<svg xmlns="http://www.w3.org/2000/svg" xmlns:xlink="http://www.w3.org/1999/xlink" width="143" height="143" viewBox="0 0 143 143">
  <defs>
    <filter id="Rectangle_411831" x="0" y="0" width="143" height="143" filterUnits="userSpaceOnUse">
      <feOffset dy="3" input="SourceAlpha"/>
      <feGaussianBlur stdDeviation="3" result="blur"/>
      <feFlood flood-opacity="0.161"/>
      <feComposite operator="in" in2="blur"/>
      <feComposite in="SourceGraphic"/>
    </filter>
  </defs>
  <g id="Group_1205007" data-name="Group 1205007" transform="translate(-3657 7069)">
    <g id="Group_1205005" data-name="Group 1205005" transform="translate(2864.949 -11748)">
      <g id="Group_1204661" data-name="Group 1204661" transform="translate(801.051 4685)">
        <g transform="matrix(1, 0, 0, 1, -9, -6)" filter="url(#Rectangle_411831)">
          <g id="Rectangle_411831-2" data-name="Rectangle 411831" transform="translate(9 6)" fill="#37f1e9" stroke="#fff" stroke-width="2">
            <path d="M5,0H93a32,32,0,0,1,32,32v88a5,5,0,0,1-5,5H32A32,32,0,0,1,0,93V5A5,5,0,0,1,5,0Z" stroke="none"/>
            <path d="M5,1H93a31,31,0,0,1,31,31v88a4,4,0,0,1-4,4H32A31,31,0,0,1,1,93V5A4,4,0,0,1,5,1Z" fill="none"/>
          </g>
        </g>
      </g>
    </g>
    <g id="interpretacion" transform="translate(3689 -7040)">
      <path id="Path_1329000" data-name="Path 1329000" d="M14,10H74.311V47.694H14Z" transform="translate(3.334 2.308)" fill="#e6e9ed"/>
      <path id="Path_1329001" data-name="Path 1329001" d="M20.539,41V63.616a3.769,3.769,0,0,1-7.539,0V41Z" transform="translate(3.078 10.259)" fill="#838f9b"/>
      <path id="Path_1329002" data-name="Path 1329002" d="M14.539,41V63.616a3.769,3.769,0,0,1-7.539,0V41Z" transform="translate(1.539 10.259)" fill="#838f9b"/>
      <path id="Path_1329003" data-name="Path 1329003" d="M44.72,19.43a2.925,2.925,0,0,1-1.344,2.463L26.8,32.623a7.518,7.518,0,0,0-3.443,6.32v8.469H8.282v3.769H5.769A3.764,3.764,0,0,1,2,47.412v-8.8A12.552,12.552,0,0,1,14.251,26.064l-.942,11.3,2.513,2.513,2.513-2.513-.942-11.308H22.48a7.6,7.6,0,0,0,3.958-1.118L40.247,16.44A2.863,2.863,0,0,1,41.78,16a2.944,2.944,0,0,1,2.94,2.94Z" transform="translate(0.256 3.847)" fill="#b4dd7f"/>
      <path id="Path_1329004" data-name="Path 1329004" d="M15.084,24l.942,11.308-2.513,2.513L11,35.308l.942-11.3V24h3.141Z" transform="translate(2.565 5.899)" fill="#e6e9ed"/>
      <path id="Path_1329005" data-name="Path 1329005" d="M22.078,19.539A7.539,7.539,0,1,1,14.539,12a6.873,6.873,0,0,1,1.256.113A7.526,7.526,0,0,1,22.078,19.539Z" transform="translate(1.539 2.821)" fill="#f0d0b4"/>
      <path id="Path_1329006" data-name="Path 1329006" d="M14,2H74.311V12.052H14Z" transform="translate(3.334 0.256)" fill="#ff826e"/>
      <path id="Path_1329007" data-name="Path 1329007" d="M61.181,41.026v20.1a2.52,2.52,0,0,1-2.513,2.513H28.513A2.52,2.52,0,0,1,26,61.129V38.513A2.52,2.52,0,0,1,28.513,36H58.668a2.52,2.52,0,0,1,2.513,2.513Z" transform="translate(6.412 8.976)" fill="#ffeaa7"/>
      <g id="Group_1205006" data-name="Group 1205006" transform="translate(37.438 50.002)">
        <path id="Path_1329008" data-name="Path 1329008" d="M30,44h5.026V56.565H30Z" transform="translate(-30 -38.974)" fill="#ff826e"/>
        <path id="Path_1329009" data-name="Path 1329009" d="M38,46h5.026V56.052H38Z" transform="translate(-27.948 -38.461)" fill="#ff826e"/>
        <path id="Path_1329010" data-name="Path 1329010" d="M46,40h5.026V57.591H46Z" transform="translate(-25.896 -40)" fill="#ff826e"/>
      </g>
      <path id="Path_1329011" data-name="Path 1329011" d="M56.513,14a2.513,2.513,0,0,1,0,5.026,2.328,2.328,0,0,1-.842-.151A2.51,2.51,0,0,1,56.513,14Z" transform="translate(13.593 3.334)" fill="#fcd770"/>
      <path id="Path_1329012" data-name="Path 1329012" d="M52.355,28.151A2.511,2.511,0,1,1,49,30.513a2.392,2.392,0,0,1,.364-1.294A2.518,2.518,0,0,1,51.513,28,2.328,2.328,0,0,1,52.355,28.151Z" transform="translate(12.311 6.925)" fill="#fcd770"/>
      <path id="Path_1329013" data-name="Path 1329013" d="M41.513,22a2.52,2.52,0,0,1,2.513,2.513,2.392,2.392,0,0,1-.364,1.294A2.509,2.509,0,0,1,39,24.513a2.492,2.492,0,0,1,.9-1.922A2.438,2.438,0,0,1,41.513,22Z" transform="translate(9.746 5.386)" fill="#fcd770"/>
      <path id="Path_1329014" data-name="Path 1329014" d="M78.9,1H16.078V13.565A8.786,8.786,0,0,0,10.67,29.282,13.844,13.844,0,0,0,1,42.464v8.8a5.031,5.031,0,0,0,5.026,5.026H7.282V73.875a5,5,0,0,0,8.8,3.289,5,5,0,0,0,8.8-3.289V51.259h6.282V70.106a3.774,3.774,0,0,0,3.769,3.769H65.08a3.774,3.774,0,0,0,3.769-3.769V51.259H78.9ZM76.388,3.513v7.539h-57.8V3.513ZM9.8,22.36a6.282,6.282,0,1,1,6.282,6.282A6.289,6.289,0,0,1,9.8,22.36ZM17.29,40.731l-1.212,1.212-1.212-1.212.8-9.576h.829ZM6.026,53.772a2.515,2.515,0,0,1-2.513-2.513v-8.8A11.315,11.315,0,0,1,13.13,31.3l-.866,10.387L16.078,45.5l3.813-3.813-.877-10.528h3.725a8.781,8.781,0,0,0,4.609-1.305l13.809-8.5a1.683,1.683,0,0,1,2.563,1.432v.49a1.678,1.678,0,0,1-.768,1.412L26.378,35.412A8.759,8.759,0,0,0,22.36,42.8V50H9.8V39.951H7.282V53.772Zm6.282,22.616A2.515,2.515,0,0,1,9.8,73.875V52.515h5.026v21.36A2.515,2.515,0,0,1,12.308,76.388Zm7.539,0a2.515,2.515,0,0,1-2.513-2.513V52.515H22.36v21.36A2.515,2.515,0,0,1,19.847,76.388Zm46.489-6.282a1.259,1.259,0,0,1-1.256,1.256H34.925a1.259,1.259,0,0,1-1.256-1.256V47.489a1.259,1.259,0,0,1,1.256-1.256H65.08a1.259,1.259,0,0,1,1.256,1.256Zm2.513-21.36V47.489A3.774,3.774,0,0,0,65.08,43.72H34.925a3.774,3.774,0,0,0-3.769,3.769v1.256H24.873V42.8a6.261,6.261,0,0,1,2.87-5.275L44.317,26.8A4.173,4.173,0,0,0,45.74,25.24l2.288,2.745a3.735,3.735,0,0,0-.539,1.914,3.774,3.774,0,0,0,3.769,3.769,3.736,3.736,0,0,0,2.384-.873l6.487,3.893A3.772,3.772,0,1,0,66.2,34.533l3.9-10.917h.011a3.817,3.817,0,1,0-2.372-.864l-3.9,10.917h-.011a3.736,3.736,0,0,0-2.384.873l-6.487-3.893a3.744,3.744,0,0,0-5-4.275L46.078,21.72a4.178,4.178,0,0,0-6.237-2.508l-13.809,8.5a6.274,6.274,0,0,1-3.293.932h-.518a8.782,8.782,0,0,0-3.631-14.707v-.371h57.8V48.746Zm-17.591-20.1A1.256,1.256,0,1,1,50,29.9,1.259,1.259,0,0,1,51.259,28.642Zm12.565,7.539a1.256,1.256,0,1,1-1.256,1.256A1.259,1.259,0,0,1,63.823,36.181Zm5.026-16.334A1.256,1.256,0,1,1,70.106,21.1,1.259,1.259,0,0,1,68.849,19.847Z"/>
      <path id="Path_1329015" data-name="Path 1329015" d="M17,5h2.513V7.513H17Z" transform="translate(4.104 1.026)"/>
      <path id="Path_1329016" data-name="Path 1329016" d="M21,5h2.513V7.513H21Z" transform="translate(5.129 1.026)"/>
      <path id="Path_1329017" data-name="Path 1329017" d="M25,5h2.513V7.513H25Z" transform="translate(6.155 1.026)"/>
      <path id="Path_1329018" data-name="Path 1329018" d="M49.1,56.591H46.591V46.539H39.052V56.591H36.539V44.026H29V59.1H56.642V39H49.1Zm-15.078,0H31.513V46.539h2.513Zm7.539-7.539h2.513v7.539H41.565Zm10.052-7.539h2.513V56.591H51.616Z" transform="translate(7.181 9.746)"/>
      <path id="Path_1329019" data-name="Path 1329019" d="M57,35h2.513v2.513H57Z" transform="translate(14.362 8.72)"/>
      <path id="Path_1329020" data-name="Path 1329020" d="M57,31h2.513v2.513H57Z" transform="translate(14.362 7.694)"/>
      <path id="Path_1329021" data-name="Path 1329021" d="M57,27h2.513v2.513H57Z" transform="translate(14.362 6.668)"/>
    </g>
  </g>
</svg>
