<svg xmlns="http://www.w3.org/2000/svg" xmlns:xlink="http://www.w3.org/1999/xlink" width="143" height="143" viewBox="0 0 143 143">
  <defs>
    <filter id="Rectangle_411831" x="0" y="0" width="143" height="143" filterUnits="userSpaceOnUse">
      <feOffset dy="3" input="SourceAlpha"/>
      <feGaussianBlur stdDeviation="3" result="blur"/>
      <feFlood flood-opacity="0.161"/>
      <feComposite operator="in" in2="blur"/>
      <feComposite in="SourceGraphic"/>
    </filter>
  </defs>
  <g id="Group_1205020" data-name="Group 1205020" transform="translate(-3657 6457)">
    <g id="Group_1205009" data-name="Group 1205009" transform="translate(0 612)">
      <g id="Group_1205005" data-name="Group 1205005" transform="translate(2864.949 -11748)">
        <g id="Group_1204661" data-name="Group 1204661" transform="translate(801.051 4685)">
          <g transform="matrix(1, 0, 0, 1, -9, -6)" filter="url(#Rectangle_411831)">
            <g id="Rectangle_411831-2" data-name="Rectangle 411831" transform="translate(9 6)" fill="#37f1e9" stroke="#fff" stroke-width="2">
              <path d="M5,0H93a32,32,0,0,1,32,32v88a5,5,0,0,1-5,5H32A32,32,0,0,1,0,93V5A5,5,0,0,1,5,0Z" stroke="none"/>
              <path d="M5,1H93a31,31,0,0,1,31,31v88a4,4,0,0,1-4,4H32A31,31,0,0,1,1,93V5A4,4,0,0,1,5,1Z" fill="none"/>
            </g>
          </g>
        </g>
      </g>
    </g>
    <g id="vigilancia" transform="translate(3676 -6441)">
      <path id="Path_1329059" data-name="Path 1329059" d="M80,26.444A2.444,2.444,0,0,1,82.444,24h57.443a2.444,2.444,0,0,1,2.444,2.444V66.777a2.444,2.444,0,0,1-2.444,2.444H80Z" transform="translate(-54.222 -6.778)" fill="#548aff"/>
      <path id="Path_1329060" data-name="Path 1329060" d="M322.333,367.889,329.666,352H311.333L304,367.889Z" transform="translate(-244.001 -284.668)" fill="#8be0e8"/>
      <path id="Path_1329061" data-name="Path 1329061" d="M240,456h28.111v2.444a2.444,2.444,0,0,1-2.444,2.444H242.444A2.444,2.444,0,0,1,240,458.444Z" transform="translate(-189.778 -372.779)" fill="#548aff"/>
      <path id="Path_1329062" data-name="Path 1329062" d="M64,280h8.407v11H64Z" transform="translate(-40.667 -223.667)" fill="#ffceb6"/>
      <path id="Path_1329063" data-name="Path 1329063" d="M102.111,240v9.629a2.593,2.593,0,0,1-4.426,1.833L96,249.778V240Z" transform="translate(-67.778 -189.778)" fill="#ffceb6"/>
      <path id="Path_1329064" data-name="Path 1329064" d="M43.667,229.444,40.818,224.7A5.743,5.743,0,0,1,40,221.743h0A5.743,5.743,0,0,1,45.743,216h8.924a2.444,2.444,0,0,1,0,4.889H51l-2.444,3.667v4.889Z" transform="translate(-20.333 -169.445)" fill="#c47220"/>
      <path id="Path_1329065" data-name="Path 1329065" d="M61.888,356.777H51.844a4.889,4.889,0,0,1-3.634-1.618l-4.654-5.172v10.457H24V343.333A7.333,7.333,0,0,1,31.333,336H39.5a8.555,8.555,0,0,1,6.622,3.138l8.433,10.306h7.333Z" transform="translate(-6.778 -271.112)" fill="#ffb401"/>
      <path id="Path_1329066" data-name="Path 1329066" d="M272,424.555v-7.333h2.444L279.333,416l5.447,3.268a1.369,1.369,0,0,1-.973,2.516l-4.474-.895-4.237,3.178a2.444,2.444,0,0,1-1.467.489Z" transform="translate(-216.89 -338.89)" fill="#ffceb6"/>
      <path id="Path_1329067" data-name="Path 1329067" d="M347,460.889h-8.555A2.444,2.444,0,0,1,336,458.444V456h13.444v2.444A2.444,2.444,0,0,1,347,460.889Z" transform="translate(-271.112 -372.779)" fill="#4367e0"/>
      <path id="Path_1329068" data-name="Path 1329068" d="M192,248h7.333v6.111H192Z" transform="translate(-149.112 -196.556)" fill="#ffa100"/>
      <path id="Path_1329069" data-name="Path 1329069" d="M240,216h7.333v11H240Z" transform="translate(-189.778 -169.445)" fill="#ffb401"/>
      <path id="Path_1329070" data-name="Path 1329070" d="M288,176h7.333v17.111H288Z" transform="translate(-230.445 -135.556)" fill="#ffc431"/>
      <path id="Path_1329071" data-name="Path 1329071" d="M336,136h7.333v23.222H336Z" transform="translate(-271.112 -101.667)" fill="#ffcc4d"/>
      <path id="Path_1329072" data-name="Path 1329072" d="M384,104h7.333v28.111H384Z" transform="translate(-311.779 -74.556)" fill="#ffd873"/>
      <g id="Group_1205019" data-name="Group 1205019" transform="translate(41.354 21.721)">
        <ellipse id="Ellipse_12630" data-name="Ellipse 12630" cx="2.5" cy="3" rx="2.5" ry="3" transform="translate(0.239 16.611)" fill="#c5dafa"/>
        <circle id="Ellipse_12631" data-name="Ellipse 12631" cx="2.5" cy="2.5" r="2.5" transform="translate(12.239 8.611)" fill="#c5dafa"/>
        <ellipse id="Ellipse_12632" data-name="Ellipse 12632" cx="3" cy="2.5" rx="3" ry="2.5" transform="translate(23.239 -0.389)" fill="#c5dafa"/>
      </g>
      <path id="Path_1329073" data-name="Path 1329073" d="M85.665,228.777H67.332a1.222,1.222,0,0,0-1.11.71L62,238.627l-4.6,1.15H48.356l-8.066-9.858a9.737,9.737,0,0,0-7.328-3.58v-.209a3.821,3.821,0,0,0,2.593-3.613v-7.4A3.666,3.666,0,0,0,34.333,208H25.409a6.965,6.965,0,0,0-5.972,10.548L22.111,223v3.686a8.569,8.569,0,0,0-6.111,8.2V252h2.444V234.888a6.118,6.118,0,0,1,6.111-6.111h8.168a7.306,7.306,0,0,1,5.676,2.69l8.433,10.306a1.222,1.222,0,0,0,.946.448h6.111v4.889H45.066A3.672,3.672,0,0,1,42.34,245.9l-9.543-10.6-1.817,1.635,4.575,5.083V252H38v-7.272l2.524,2.8a6.12,6.12,0,0,0,4.542,2.023H49.21A3.672,3.672,0,0,0,52.666,252H75.888a3.671,3.671,0,0,0,3.667-3.667v-2.176l7.221-15.645a1.222,1.222,0,0,0-1.11-1.734ZM31.74,223.889a1.362,1.362,0,0,1-.969-.4l-1.327-1.327v-4.012l1.876-2.814h1.79v7.185a1.372,1.372,0,0,1-1.37,1.371Zm-10.852-8.924a4.526,4.526,0,0,1,4.52-4.52h8.924a1.222,1.222,0,1,1,0,2.444H30.666a1.222,1.222,0,0,0-1.017.544L27.205,217.1a1.222,1.222,0,0,0-.205.678v3.667H24.025l-2.492-4.154a4.522,4.522,0,0,1-.644-2.326Zm3.667,8.924h3.16l1.327,1.327a3.8,3.8,0,0,0,1.475.917v.2H24.555Zm31.777,18.333h1.222a1.219,1.219,0,0,0,.3-.037l4.4-1.1,5.012,3.008a.146.146,0,0,1-.1.269l-4.474-.895a1.223,1.223,0,0,0-.973.221l-4.237,3.178a1.23,1.23,0,0,1-.733.245h-.407Zm2.607,6.6,2.281-1.711h2.444v1.222a3.648,3.648,0,0,0,.21,1.222H56.74A3.69,3.69,0,0,0,58.94,248.822Zm18.17-.489a1.224,1.224,0,0,1-1.222,1.222H67.332a1.224,1.224,0,0,1-1.222-1.222V247.11h11Zm.44-3.667H69.734A2.56,2.56,0,0,0,68.519,242l-4.211-2.527,3.807-8.248H83.755Z" transform="translate(0 -162.667)"/>
      <path id="Path_1329074" data-name="Path 1329074" d="M133.11,16H75.667A3.671,3.671,0,0,0,72,19.667V42.888h2.444V19.667a1.224,1.224,0,0,1,1.222-1.222H133.11a1.224,1.224,0,0,1,1.222,1.222V60a1.224,1.224,0,0,1-1.222,1.222H85.444v2.444H133.11A3.671,3.671,0,0,0,136.777,60V19.667A3.671,3.671,0,0,0,133.11,16Z" transform="translate(-47.445)"/>
      <ellipse id="Ellipse_12633" data-name="Ellipse 12633" cx="1.5" cy="1" rx="1.5" ry="1" transform="translate(27.594 19.332)"/>
      <ellipse id="Ellipse_12634" data-name="Ellipse 12634" cx="1.5" cy="1" rx="1.5" ry="1" transform="translate(31.594 19.332)"/>
      <circle id="Ellipse_12635" data-name="Ellipse 12635" cx="1" cy="1" r="1" transform="translate(35.594 19.332)"/>
      <path id="Path_1329075" data-name="Path 1329075" d="M208.333,96H201a1.222,1.222,0,0,0-1.222,1.222v3.667h-6.111a1.222,1.222,0,0,0-1.222,1.222V107h-6.111a1.222,1.222,0,0,0-1.222,1.222v4.889H179a1.222,1.222,0,0,0-1.222,1.222V118h-6.111a1.222,1.222,0,0,0-1.222,1.222v4.889H168v2.444h44v-2.444h-2.444V97.222A1.222,1.222,0,0,0,208.333,96Zm-35.444,24.444h4.889v3.667h-4.889Zm7.333-4.889h4.889v8.555h-4.889Zm7.333-6.111h4.889v14.666h-4.889Zm7.333-6.111h4.889v20.777h-4.889Zm12.222,20.777h-4.889V98.444h4.889Z" transform="translate(-128.778 -67.778)"/>
      <path id="Path_1329076" data-name="Path 1329076" d="M144,69.994h5.1a3.666,3.666,0,0,0,6.964-2.289l6.356-4.684a3.665,3.665,0,0,0,5.737-4.227l5.564-4.1a3.664,3.664,0,0,0,5.513-1.812h7.543V50.439h-7.543a3.666,3.666,0,0,0-6.964,2.289L166.5,56.98a3.664,3.664,0,0,0-5.322,3.922l-6.564,4.836A3.664,3.664,0,0,0,149.1,67.55H144Zm31.777-19.555a1.222,1.222,0,1,1-1.222,1.222A1.222,1.222,0,0,1,175.777,50.439Zm-11,8.555a1.222,1.222,0,1,1-1.222,1.222A1.222,1.222,0,0,1,164.777,58.994ZM152.555,67.55a1.222,1.222,0,1,1-1.222,1.222A1.222,1.222,0,0,1,152.555,67.55Z" transform="translate(-108.445 -27.105)"/>
      <path id="Path_1329077" data-name="Path 1329077" d="M440,64h2.444v2.444H440Z" transform="translate(-359.223 -40.667)"/>
      <path id="Path_1329078" data-name="Path 1329078" d="M112,176h2.444v2.444H112Z" transform="translate(-81.334 -135.556)"/>
    </g>
  </g>
</svg>
