<svg xmlns="http://www.w3.org/2000/svg" xmlns:xlink="http://www.w3.org/1999/xlink" width="143" height="143" viewBox="0 0 143 143">
  <defs>
    <filter id="Rectangle_411831" x="0" y="0" width="143" height="143" filterUnits="userSpaceOnUse">
      <feOffset dy="3" input="SourceAlpha"/>
      <feGaussianBlur stdDeviation="3" result="blur"/>
      <feFlood flood-opacity="0.161"/>
      <feComposite operator="in" in2="blur"/>
      <feComposite in="SourceGraphic"/>
    </filter>
  </defs>
  <g id="Group_1205024" data-name="Group 1205024" transform="translate(-4645 6457)">
    <g id="Group_1205010" data-name="Group 1205010" transform="translate(988 612)">
      <g id="Group_1205005" data-name="Group 1205005" transform="translate(2864.949 -11748)">
        <g id="Group_1204661" data-name="Group 1204661" transform="translate(801.051 4685)">
          <g transform="matrix(1, 0, 0, 1, -9, -6)" filter="url(#Rectangle_411831)">
            <g id="Rectangle_411831-2" data-name="Rectangle 411831" transform="translate(9 6)" fill="#37f1e9" stroke="#fff" stroke-width="2">
              <path d="M5,0H93a32,32,0,0,1,32,32v88a5,5,0,0,1-5,5H32A32,32,0,0,1,0,93V5A5,5,0,0,1,5,0Z" stroke="none"/>
              <path d="M5,1H93a31,31,0,0,1,31,31v88a4,4,0,0,1-4,4H32A31,31,0,0,1,1,93V5A4,4,0,0,1,5,1Z" fill="none"/>
            </g>
          </g>
        </g>
      </g>
    </g>
    <g id="audiencias" transform="translate(4591.351 -6428.254)">
      <g id="Group_1205022" data-name="Group 1205022" transform="translate(107.554 1.553)">
        <g id="Group_1205021" data-name="Group 1205021" transform="translate(0 47.563)">
          <path id="Path_1329079" data-name="Path 1329079" d="M152.365,321.612a5.324,5.324,0,1,0-10.648,0v2.662a5.324,5.324,0,0,0,10.648,0Z" transform="translate(-137.723 -316.288)" fill="#ffdcd5" fill-rule="evenodd"/>
          <path id="Path_1329080" data-name="Path 1329080" d="M129.278,390.583a5.3,5.3,0,0,1-7.917,0A9.347,9.347,0,0,0,116,399.012v2.662h18.635v-2.662A9.346,9.346,0,0,0,129.278,390.583Z" transform="translate(-116.002 -379.046)" fill="#ffee80" fill-rule="evenodd"/>
          <path id="Path_1329081" data-name="Path 1329081" d="M312.361,321.612a5.324,5.324,0,1,0-10.648,0v2.662a5.324,5.324,0,0,0,10.648,0Z" transform="translate(-272.874 -316.288)" fill="#ffdcd5" fill-rule="evenodd"/>
          <path id="Path_1329082" data-name="Path 1329082" d="M289.275,390.583a5.3,5.3,0,0,1-7.917,0A9.347,9.347,0,0,0,276,399.012v2.662h18.635v-2.662A9.346,9.346,0,0,0,289.275,390.583Z" transform="translate(-251.153 -379.046)" fill="#ff7d97" fill-rule="evenodd"/>
          <path id="Path_1329083" data-name="Path 1329083" d="M232.363,361.614a5.324,5.324,0,1,0-10.648,0v2.662a5.324,5.324,0,0,0,10.648,0Z" transform="translate(-205.299 -350.078)" fill="#ffdcd5" fill-rule="evenodd"/>
          <path id="Path_1329084" data-name="Path 1329084" d="M209.278,430.584a5.3,5.3,0,0,1-7.917,0A9.347,9.347,0,0,0,196,439.013v2.662h18.635v-2.662A9.347,9.347,0,0,0,209.278,430.584Z" transform="translate(-183.579 -412.835)" fill="#fff" fill-rule="evenodd"/>
        </g>
        <path id="Path_1329085" data-name="Path 1329085" d="M211.16,91.51l-5.384,5.384-1.826-1.826a3.105,3.105,0,0,0-4.392,4.392l4.022,4.022a3.106,3.106,0,0,0,4.392,0l7.58-7.58a3.105,3.105,0,0,0-4.392-4.392Z" transform="translate(-185.814 -78.084)" fill="#fff" fill-rule="evenodd"/>
        <path id="Path_1329086" data-name="Path 1329086" d="M149.96,27.818l-7.58,7.58a3.106,3.106,0,0,1-4.392,0l-4.022-4.022a3.105,3.105,0,1,1,4.392-4.392l1.826,1.826,5.384-5.384a3.105,3.105,0,0,1,4.392,4.392ZM122.552,48.823h15.661l2.653,2.653a1.557,1.557,0,0,0,2.2,0l2.653-2.653h15.66a1.557,1.557,0,0,0,1.553-1.553V11.553A1.558,1.558,0,0,0,161.375,10H122.552A1.559,1.559,0,0,0,121,11.553V47.271a1.558,1.558,0,0,0,1.553,1.553Z" transform="translate(-120.223 -10)" fill="#b8ecbc" fill-rule="evenodd"/>
      </g>
      <g id="Group_1205023" data-name="Group 1205023" transform="translate(106.001)">
        <path id="Path_1329087" data-name="Path 1329087" d="M114.1,41.929h15.018l2.2,2.2a3.084,3.084,0,0,0,2.2.908h0a3.085,3.085,0,0,0,2.2-.908l2.2-2.2h15.017a3.109,3.109,0,0,0,3.106-3.106V3.106A3.109,3.109,0,0,0,152.928,0H114.1A3.109,3.109,0,0,0,111,3.106V7.765a1.553,1.553,0,1,0,3.106,0V3.106h38.823V38.823h-15.66a1.553,1.553,0,0,0-1.1.455l-2.653,2.653-2.653-2.653a1.553,1.553,0,0,0-1.1-.455H114.1V21.741a1.553,1.553,0,0,0-3.106,0V38.823a3.109,3.109,0,0,0,3.106,3.106Z" transform="translate(-110.223 0)"/>
        <path id="Path_1329088" data-name="Path 1329088" d="M147.885,318.864a6.833,6.833,0,0,0,.709-3.037v-2.662a6.877,6.877,0,0,0-13.754,0v2.151a6.868,6.868,0,0,0-11.092,0v-2.151a6.877,6.877,0,0,0-13.754,0v2.662a6.835,6.835,0,0,0,.709,3.037,10.807,10.807,0,0,0-4.7,8.942v2.662a1.553,1.553,0,0,0,1.553,1.553h11.054a10.954,10.954,0,0,0-.184,2v2.662a1.553,1.553,0,0,0,1.553,1.553h2.329a1.553,1.553,0,0,0,0-3.106h-.776v-1.109a7.842,7.842,0,0,1,3.579-6.528,6.856,6.856,0,0,0,8.373,0,7.726,7.726,0,0,1,3.577,6.529v1.109h-.777a1.553,1.553,0,1,0,0,3.106h2.33a1.553,1.553,0,0,0,1.553-1.553v-2.662a10.957,10.957,0,0,0-.184-2h11.054a1.553,1.553,0,0,0,1.553-1.553v-2.662A10.81,10.81,0,0,0,147.885,318.864Zm-9.939-5.7a3.771,3.771,0,0,1,7.543,0v2.662a3.771,3.771,0,1,1-7.543,0Zm-24.846,0a3.771,3.771,0,0,1,7.543,0v2.662a3.771,3.771,0,1,1-7.543,0Zm-3.993,15.75v-1.109a7.725,7.725,0,0,1,3.577-6.529,6.857,6.857,0,0,0,8.373,0,14.681,14.681,0,0,1,1.366.983,6.829,6.829,0,0,0,.7,2.815,10.846,10.846,0,0,0-3.434,3.84Zm16.416-6.877v-2.662a3.771,3.771,0,0,1,7.543,0v2.662a3.771,3.771,0,1,1-7.543,0Zm23.959,6.877H138.9a10.849,10.849,0,0,0-3.434-3.84,6.828,6.828,0,0,0,.7-2.815,14.729,14.729,0,0,1,1.366-.982,6.856,6.856,0,0,0,8.373,0,7.727,7.727,0,0,1,3.577,6.529Z" transform="translate(-106.001 -258.725)"/>
        <path id="Path_1329089" data-name="Path 1329089" d="M197.339,97.494a4.644,4.644,0,0,0,3.294-1.362l7.58-7.58a4.658,4.658,0,1,0-6.588-6.588l-4.286,4.286-.728-.728a4.658,4.658,0,1,0-6.588,6.588l4.022,4.022A4.644,4.644,0,0,0,197.339,97.494Zm-5.12-9.776a1.554,1.554,0,0,1,2.2,0l1.826,1.826a1.553,1.553,0,0,0,2.2,0l5.384-5.384a1.552,1.552,0,0,1,2.2,2.2l-7.58,7.58a1.554,1.554,0,0,1-2.2,0l-4.022-4.022a1.554,1.554,0,0,1,0-2.2Z" transform="translate(-175.825 -68.083)"/>
        <path id="Path_1329090" data-name="Path 1329090" d="M112.552,88.107a1.553,1.553,0,0,0,1.553-1.553h0a1.553,1.553,0,1,0-1.553,1.554Z" transform="translate(-110.223 -71.801)"/>
        <path id="Path_1329091" data-name="Path 1329091" d="M247.551,492h0a1.553,1.553,0,1,0,1.554,1.553A1.552,1.552,0,0,0,247.549,492Z" transform="translate(-224.257 -415.599)"/>
      </g>
    </g>
  </g>
</svg>
