<svg xmlns="http://www.w3.org/2000/svg" xmlns:xlink="http://www.w3.org/1999/xlink" width="143" height="143" viewBox="0 0 143 143">
  <defs>
    <filter id="Rectangle_411831" x="0" y="0" width="143" height="143" filterUnits="userSpaceOnUse">
      <feOffset dy="3" input="SourceAlpha"/>
      <feGaussianBlur stdDeviation="3" result="blur"/>
      <feFlood flood-opacity="0.161"/>
      <feComposite operator="in" in2="blur"/>
      <feComposite in="SourceGraphic"/>
    </filter>
  </defs>
  <g id="Group_1205049" data-name="Group 1205049" transform="translate(-1183 -4618)">
    <g id="Group_1205005" data-name="Group 1205005" transform="translate(390.949 -61)">
      <g id="Group_1204661" data-name="Group 1204661" transform="translate(801.051 4685)">
        <g transform="matrix(1, 0, 0, 1, -9, -6)" filter="url(#Rectangle_411831)">
          <g id="Rectangle_411831-2" data-name="Rectangle 411831" transform="translate(9 6)" fill="#37f1e9" stroke="#fff" stroke-width="2">
            <path d="M5,0H93a32,32,0,0,1,32,32v88a5,5,0,0,1-5,5H32A32,32,0,0,1,0,93V5A5,5,0,0,1,5,0Z" stroke="none"/>
            <path d="M5,1H93a31,31,0,0,1,31,31v88a4,4,0,0,1-4,4H32A31,31,0,0,1,1,93V5A4,4,0,0,1,5,1Z" fill="none"/>
          </g>
        </g>
      </g>
    </g>
    <path id="Path_1329092" data-name="Path 1329092" d="M279.384,15.011h-37.5a1.536,1.536,0,0,0-1.536,1.536v5.26A15.592,15.592,0,0,1,245.725,33.6V58.585a5.57,5.57,0,0,1-2.266,4.489l7.44,4.085a9.064,9.064,0,0,1,3.971,4.38h4.709l2.644-2.644a2.651,2.651,0,1,1,3.749,3.749l-1.586,1.586h15a1.536,1.536,0,0,0,1.536-1.536V16.547a1.536,1.536,0,0,0-1.536-1.536Z" transform="translate(1011.563 4634.141)" fill="#fef0ae"/>
    <g id="Group_1205025" data-name="Group 1205025" transform="translate(1285.803 4649.152)">
      <path id="Path_1329093" data-name="Path 1329093" d="M466.145,15.011H461a1.536,1.536,0,0,1,1.536,1.536V72.695A1.536,1.536,0,0,1,461,74.231h5.145a1.536,1.536,0,0,0,1.536-1.536V16.547a1.536,1.536,0,0,0-1.536-1.536Z" transform="translate(-461 -15.011)" fill="#fee97d"/>
    </g>
    <g id="Group_1205040" data-name="Group 1205040" transform="translate(1216.152 4652.111)">
      <g id="Group_1205039" data-name="Group 1205039">
        <g id="Group_1205038" data-name="Group 1205038">
          <g id="Group_1205037" data-name="Group 1205037">
            <path id="Path_1329094" data-name="Path 1329094" d="M57.782,336.415a9.066,9.066,0,0,0-3.972-4.38l-7.44-4.085a5.553,5.553,0,0,1-3.313,1.09H41.467v5.9L34.2,330.329l-1.2,4.547-1.231-4.524-7.228,4.588v-5.9H22.956a5.553,5.553,0,0,1-3.313-1.09l-7.44,4.085a9.069,9.069,0,0,0-4.7,7.949v12.392a1.536,1.536,0,0,0,1.536,1.536H51.915V342.293a5.879,5.879,0,0,1,5.867-5.879Z" transform="translate(-7.5 -282.846)" fill="#596c76"/>
            <path id="Path_1329095" data-name="Path 1329095" d="M241.17,341.374a5.88,5.88,0,0,1,5.8-4.96,9.066,9.066,0,0,0-3.972-4.38l-7.44-4.085a5.553,5.553,0,0,1-3.313,1.09h-1.229l5.454,2.995a9.069,9.069,0,0,1,4.7,7.949Z" transform="translate(-196.684 -282.845)" fill="#465a61"/>
            <g id="Group_1205026" data-name="Group 1205026" transform="translate(17.047 46.639)">
              <path id="Path_1329096" data-name="Path 1329096" d="M118.494,362.376h16.92V343.141l-7.938-5.039a.973.973,0,0,0-1.043,0l-7.938,5.039Z" transform="translate(-118.494 -337.95)" fill="#f2fbff"/>
            </g>
            <g id="Group_1205028" data-name="Group 1205028" transform="translate(30.051 49.344)">
              <g id="Group_1205027" data-name="Group 1205027">
                <path id="Path_1329097" data-name="Path 1329097" d="M203.166,355.564v21.721h3.915V358.049Z" transform="translate(-203.166 -355.564)" fill="#dff6fd"/>
              </g>
            </g>
            <g id="Group_1205029" data-name="Group 1205029" transform="translate(9.878 0)">
              <path id="Path_1329098" data-name="Path 1329098" d="M87.443,34.285A15.629,15.629,0,0,0,71.814,49.914V74.9a5.579,5.579,0,0,0,5.579,5.579h1.591V76.856a2.884,2.884,0,0,1,1.442-2.5l2.392-1.381V71.684a10.663,10.663,0,0,0,9.253,0v1.294l2.392,1.381a2.884,2.884,0,0,1,1.442,2.5v3.621h1.591a5.579,5.579,0,0,0,5.579-5.579V49.914A15.629,15.629,0,0,0,87.443,34.285Z" transform="translate(-71.814 -34.285)" fill="#bb5d4c"/>
            </g>
            <g id="Group_1205030" data-name="Group 1205030" transform="translate(21.298)">
              <path id="Path_1329099" data-name="Path 1329099" d="M157.519,48.435a3.752,3.752,0,0,1,3.782,3.752v2h2.582a3.733,3.733,0,0,1,2.126.661V49.912A15.64,15.64,0,0,0,146.17,34.857,15.641,15.641,0,0,1,157.519,48.435Z" transform="translate(-146.17 -34.283)" fill="#a44f3e"/>
              <path id="Path_1329100" data-name="Path 1329100" d="M226.819,218.954h-2.641a10.9,10.9,0,0,1-3.652,7.061v4.214a2.883,2.883,0,0,1,1.249,2.375v3.621h1.591a5.579,5.579,0,0,0,5.579-5.579V218.293A3.732,3.732,0,0,1,226.819,218.954Z" transform="translate(-209.106 -190.032)" fill="#a44f3e"/>
            </g>
            <g id="Group_1205031" data-name="Group 1205031" transform="translate(17.047 38.693)">
              <path id="Path_1329101" data-name="Path 1329101" d="M125.1,292.728l-2.769-2.482v-4.029l-2.392,1.381a2.884,2.884,0,0,0-1.442,2.5v9.522l7.228-4.588Z" transform="translate(-118.494 -286.216)" fill="#fff"/>
              <path id="Path_1329102" data-name="Path 1329102" d="M187.188,287.6l-2.392-1.381v4.029l-2.831,2.482-.6,2.278,7.264,4.611v-9.522A2.884,2.884,0,0,0,187.188,287.6Z" transform="translate(-171.71 -286.216)" fill="#fff"/>
            </g>
            <g id="Group_1205032" data-name="Group 1205032" transform="translate(20.881 37.399)">
              <path id="Path_1329103" data-name="Path 1329103" d="M148.081,278.846a10.606,10.606,0,0,1-4.626-1.056v5.323l2.769,2.482,1.858,6.825,1.8-6.825,2.831-2.482V277.79A10.606,10.606,0,0,1,148.081,278.846Z" transform="translate(-143.455 -277.79)" fill="#ffb09e"/>
            </g>
            <g id="Group_1205033" data-name="Group 1205033" transform="translate(23.179 37.399)">
              <path id="Path_1329104" data-name="Path 1329104" d="M161.463,278.822v3.056l-2.831,2.482-.214.815.471.422,1.858,6.825,1.8-6.825,2.831-2.482v-5.323A10.6,10.6,0,0,1,161.463,278.822Z" transform="translate(-158.418 -277.791)" fill="#f89580"/>
            </g>
            <g id="Group_1205034" data-name="Group 1205034" transform="translate(8.252 19.905)">
              <path id="Path_1329105" data-name="Path 1329105" d="M67.564,171.765v-7.878H64.982a3.751,3.751,0,0,0-3.751,3.751v1.515a3.751,3.751,0,0,0,3.751,3.751h2.641a11.018,11.018,0,0,1-.059-1.139Z" transform="translate(-61.231 -163.887)" fill="#f89580"/>
              <path id="Path_1329106" data-name="Path 1329106" d="M246.944,163.887h-2.582v7.878a11.061,11.061,0,0,1-.059,1.139h2.641a3.751,3.751,0,0,0,3.751-3.751v-1.515A3.751,3.751,0,0,0,246.944,163.887Z" transform="translate(-216.186 -163.887)" fill="#f89580"/>
            </g>
            <g id="Group_1205035" data-name="Group 1205035" transform="translate(14.585 14.152)">
              <path id="Path_1329107" data-name="Path 1329107" d="M104.516,129.3a2.5,2.5,0,0,0-2.05,2.46v8.295a10.922,10.922,0,1,0,21.843,0v-9.88a3.751,3.751,0,0,0-4.427-3.69Z" transform="translate(-102.466 -126.427)" fill="#ffcebf"/>
            </g>
            <g id="Group_1205036" data-name="Group 1205036" transform="translate(23.551 14.152)">
              <path id="Path_1329108" data-name="Path 1329108" d="M169.3,126.489l-1.631.3a3.746,3.746,0,0,1,2.147,3.391v9.88a10.922,10.922,0,0,1-8.966,10.744,10.914,10.914,0,0,0,12.877-10.744v-9.88A3.751,3.751,0,0,0,169.3,126.489Z" transform="translate(-160.845 -126.426)" fill="#ffb09e"/>
            </g>
          </g>
        </g>
      </g>
    </g>
    <g id="Group_1205043" data-name="Group 1205043" transform="translate(1259.813 4653.645)">
      <g id="Group_1205041" data-name="Group 1205041" transform="translate(0 0)">
        <circle id="Ellipse_12636" data-name="Ellipse 12636" cx="9.67" cy="9.67" r="9.67" transform="matrix(0.338, -0.941, 0.941, 0.338, 0, 18.198)" fill="#00f2a6"/>
      </g>
      <g id="Group_1205042" data-name="Group 1205042" transform="translate(9.816 2.702)">
        <path id="Path_1329109" data-name="Path 1329109" d="M358.263,61.855a9.67,9.67,0,0,0-2.57.348,9.669,9.669,0,0,1,0,18.643,9.669,9.669,0,1,0,2.57-18.991Z" transform="translate(-355.693 -61.855)" fill="#0ed290"/>
      </g>
    </g>
    <g id="Group_1205044" data-name="Group 1205044" transform="translate(1260.567 4711.64)">
      <path id="Path_1329110" data-name="Path 1329110" d="M307.263,433.412H296.686V421.876H308.8v10A1.536,1.536,0,0,1,307.263,433.412Z" transform="translate(-296.686 -421.876)" fill="#7a8c98"/>
    </g>
    <g id="Group_1205045" data-name="Group 1205045" transform="translate(1267.219 4711.64)">
      <path id="Path_1329111" data-name="Path 1329111" d="M341.536,421.875v10A1.536,1.536,0,0,1,340,433.411h3.925a1.536,1.536,0,0,0,1.536-1.536v-10Z" transform="translate(-340 -421.875)" fill="#596c76"/>
    </g>
    <g id="Group_1205046" data-name="Group 1205046" transform="translate(1260.567 4702.259)">
      <path id="Path_1329112" data-name="Path 1329112" d="M313.654,361.574a2.651,2.651,0,0,0-3.749,0l-2.644,2.644h-4.7a5.879,5.879,0,0,0-5.879,5.879v.081H308.8l4.855-4.855A2.651,2.651,0,0,0,313.654,361.574Z" transform="translate(-296.686 -360.797)" fill="#ffcebf"/>
    </g>
    <g id="Group_1205047" data-name="Group 1205047" transform="translate(1268.806 4702.259)">
      <path id="Path_1329113" data-name="Path 1329113" d="M359.063,361.574a2.651,2.651,0,0,0-3.749,0l-.065.065a2.649,2.649,0,0,1-.059,3.684l-4.855,4.855h3.874l4.855-4.855A2.651,2.651,0,0,0,359.063,361.574Z" transform="translate(-350.335 -360.797)" fill="#ffb09e"/>
    </g>
    <g id="Group_1205048" data-name="Group 1205048" transform="translate(1215 4648)">
      <path id="Path_1329114" data-name="Path 1329114" d="M75.948,7.511H38.45A2.691,2.691,0,0,0,35.763,10.2v2.963A16.773,16.773,0,0,0,9.878,27.252v4.384a4.892,4.892,0,0,0-1.626,3.643v1.515a4.891,4.891,0,0,0,1.626,3.643v4.317a1.152,1.152,0,1,0,2.3,0V41.6a4.9,4.9,0,0,0,.974.1H14.8a12.109,12.109,0,0,0,5.769,8.131l-1.509.871a4.047,4.047,0,0,0-2.018,3.5v2.469h-.438a4.432,4.432,0,0,1-4.427-4.427V50.129a1.152,1.152,0,0,0-2.3,0v2.108a6.7,6.7,0,0,0,1.5,4.228L5.3,59.8A10.219,10.219,0,0,0,0,68.76V81.152a2.691,2.691,0,0,0,2.688,2.688H56.144a2.691,2.691,0,0,0,2.688-2.688V71.628l2.594-2.594h3.848a1.152,1.152,0,0,0,0-2.3H63.681a3.8,3.8,0,0,0-5.711-5l-2.306,2.306H52.159A10.209,10.209,0,0,0,48.016,59.8l-6.075-3.336a6.7,6.7,0,0,0,1.5-4.228v-11.8a4.891,4.891,0,0,0,1.625-3.643V35.279a4.892,4.892,0,0,0-1.625-3.643V27.252a16.738,16.738,0,0,0-5.374-12.3V10.2a.384.384,0,0,1,.384-.384h37.5a.384.384,0,0,1,.384.384V66.347a.384.384,0,0,1-.384.384h-5.3a1.152,1.152,0,1,0,0,2.3h5.3a2.691,2.691,0,0,0,2.688-2.688V10.2a2.691,2.691,0,0,0-2.688-2.688Zm-58.9,74.025H2.688a.384.384,0,0,1-.384-.384V68.76A7.916,7.916,0,0,1,6.41,61.82l6.839-3.755a6.688,6.688,0,0,0,3.36.9h.438V81.536ZM14.585,39.393h-1.43a2.6,2.6,0,0,1-2.6-2.6V35.279a2.6,2.6,0,0,1,2.6-2.6h1.43Zm2.3.013V31.112a1.348,1.348,0,0,1,1.106-1.327L33.361,26.97a2.6,2.6,0,0,1,3.067,2.557v9.88a9.77,9.77,0,1,1-19.54,0Zm2.462,14.788a1.737,1.737,0,0,1,.866-1.5l.664-.383v2.034a1.152,1.152,0,0,0,.383.858l2.516,2.255.314,1.153-4.742,3.01Zm6.156,27.341H19.351V64.35l5.375-3.412.781,2.869Zm1.834-25-.518,1.97a.748.748,0,0,0-.368.009l-.541-1.988a1.151,1.151,0,0,0-.342-.555l-2.386-2.139V50.968a12.047,12.047,0,0,0,6.949,0v2.855L27.7,55.962a1.15,1.15,0,0,0-.354.573Zm6.626,25H27.811V63.8l.757-2.879,5.4,3.427Zm0-19.915-4.784-3.037.3-1.123,2.566-2.25a1.152,1.152,0,0,0,.392-.866V52.311l.664.383a1.737,1.737,0,0,1,.866,1.5ZM34.253,50.7l-1.509-.871A12.108,12.108,0,0,0,38.512,41.7h1.65a4.915,4.915,0,0,0,.974-.1V52.237a4.432,4.432,0,0,1-4.427,4.427h-.438V54.194A4.047,4.047,0,0,0,34.253,50.7ZM56.528,81.152a.384.384,0,0,1-.384.384H46.719V72.3h9.809ZM51.446,66.343h4.7a1.152,1.152,0,0,0,.815-.337L59.6,63.362a1.5,1.5,0,0,1,2.12,0h0a1.5,1.5,0,0,1,0,2.12L57.2,70H46.841a4.735,4.735,0,0,1,4.6-3.657ZM46.907,61.82a7.9,7.9,0,0,1,2.716,2.46,7.043,7.043,0,0,0-5.209,6.79V81.536H36.271V58.968h.438a6.688,6.688,0,0,0,3.36-.9ZM42.762,35.279v1.515a2.6,2.6,0,0,1-2.6,2.6h-1.43V32.68h1.43A2.6,2.6,0,0,1,42.762,35.279Zm-1.625-8.027v3.221a4.9,4.9,0,0,0-.974-.1h-1.43v-.849A4.9,4.9,0,0,0,32.946,24.7L17.58,27.519a3.65,3.65,0,0,0-2.917,2.857H13.155a4.913,4.913,0,0,0-.974.1V27.252a14.477,14.477,0,1,1,28.955,0Z" transform="translate(0 -7.511)"/>
      <path id="Path_1329115" data-name="Path 1329115" d="M321.409,214.916H301.6a1.152,1.152,0,0,0,0,2.3h19.8a1.152,1.152,0,1,0,0-2.3Z" transform="translate(-254.308 -183.062)"/>
      <path id="Path_1329116" data-name="Path 1329116" d="M321.409,246.249H301.6a1.152,1.152,0,1,0,0,2.3h19.8a1.152,1.152,0,1,0,0-2.3Z" transform="translate(-254.308 -209.582)"/>
      <path id="Path_1329117" data-name="Path 1329117" d="M321.409,277.583H301.6a1.152,1.152,0,0,0,0,2.3h19.8a1.152,1.152,0,0,0,0-2.3Z" transform="translate(-254.308 -236.104)"/>
      <path id="Path_1329118" data-name="Path 1329118" d="M301.6,308.916a1.152,1.152,0,0,0,0,2.3h1.543a1.152,1.152,0,0,0,0-2.3Z" transform="translate(-254.308 -262.625)"/>
      <path id="Path_1329119" data-name="Path 1329119" d="M137.083,166.94v-2.212a1.152,1.152,0,1,0-2.3,0v2.212a1.152,1.152,0,0,0,2.3,0Z" transform="translate(-114.079 -139.607)"/>
      <path id="Path_1329120" data-name="Path 1329120" d="M198.526,168.092a1.152,1.152,0,0,0,1.152-1.152v-2.212a1.152,1.152,0,0,0-2.3,0v2.212A1.152,1.152,0,0,0,198.526,168.092Z" transform="translate(-167.06 -139.607)"/>
      <path id="Path_1329121" data-name="Path 1329121" d="M151.588,229.483a3.7,3.7,0,0,0,1.212-2.645,1.152,1.152,0,0,0-1.152-1.149h0a1.152,1.152,0,0,0-1.149,1.155,1.468,1.468,0,0,1-.512.984,2.5,2.5,0,0,1-1.751.714h-.078a2.5,2.5,0,0,1-1.751-.714,1.469,1.469,0,0,1-.512-.984,1.152,1.152,0,0,0-1.149-1.155h0a1.152,1.152,0,0,0-1.152,1.149,3.7,3.7,0,0,0,1.213,2.645,4.832,4.832,0,0,0,3.292,1.365h.1A4.827,4.827,0,0,0,151.588,229.483Z" transform="translate(-121.536 -192.18)"/>
      <path id="Path_1329122" data-name="Path 1329122" d="M159.281,192.694a1.152,1.152,0,0,0,0-2.3.29.29,0,1,1,0-.58,1.152,1.152,0,0,0,0-2.3,2.594,2.594,0,1,0,0,5.188Z" transform="translate(-132.622 -159.861)"/>
      <path id="Path_1329123" data-name="Path 1329123" d="M306.62,67.5a1.152,1.152,0,1,0-2.217.628,10.82,10.82,0,1,0,.031-6.015,1.152,1.152,0,1,0,2.21.651,8.519,8.519,0,1,1-.024,4.736Z" transform="translate(-257.614 -47.161)"/>
      <path id="Path_1329124" data-name="Path 1329124" d="M342.477,110.568a1.148,1.148,0,0,0,.814-.337l4.943-4.942a1.152,1.152,0,1,0-1.629-1.629l-4.128,4.128-2.516-2.516a1.152,1.152,0,0,0-1.629,1.629l3.331,3.331A1.146,1.146,0,0,0,342.477,110.568Z" transform="translate(-286.083 -88.607)"/>
      <path id="Path_1329125" data-name="Path 1329125" d="M350.227,308.916H335.652a1.152,1.152,0,0,0,0,2.3h14.575a1.152,1.152,0,0,0,0-2.3Z" transform="translate(-283.126 -262.625)"/>
    </g>
  </g>
</svg>
