<svg xmlns="http://www.w3.org/2000/svg" width="96.344" height="96.344" viewBox="0 0 96.344 96.344">
  <g id="Group_1205051" data-name="Group 1205051" transform="translate(-751.828 -3643.001)">
    <g id="Group_1204885" data-name="Group 1204885" transform="translate(-270.139 545.346)">
      <g id="Group_1200255" data-name="Group 1200255" transform="translate(1021.967 3097.655)">
        <g id="Group_1187152" data-name="Group 1187152">
          <g id="Group_1185946" data-name="Group 1185946">
            <g id="Group_1184280" data-name="Group 1184280">
              <g id="Group_1182168" data-name="Group 1182168">
                <g id="Group_1178877" data-name="Group 1178877">
                  <g id="Group_1111311" data-name="Group 1111311">
                    <g id="Group_1098742" data-name="Group 1098742" transform="translate(0 0)">
                      <g id="Rectangle_400898" data-name="Rectangle 400898" transform="translate(0.001 0)" fill="#c5aaf1" stroke="#615478" stroke-width="0.5" opacity="0.859">
                        <rect width="96.344" height="96.344" rx="48.172" stroke="none"/>
                        <rect x="0.25" y="0.25" width="95.844" height="95.844" rx="47.922" fill="none"/>
                      </g>
                      <g id="Rectangle_400907" data-name="Rectangle 400907" transform="translate(0 0)" fill="none" stroke="#615478" stroke-width="0.5">
                        <rect width="96.344" height="96.344" rx="48.172" stroke="none"/>
                        <rect x="0.25" y="0.25" width="95.844" height="95.844" rx="47.922" fill="none"/>
                      </g>
                    </g>
                  </g>
                </g>
              </g>
            </g>
          </g>
        </g>
      </g>
    </g>
    <g id="pruebas" transform="translate(761.556 3606.185)">
      <path id="Path_1329134" data-name="Path 1329134" d="M133.017,130.926v-1.084l.237-.045a.672.672,0,0,0,.549-.661v-2.349l.194-.057a12.374,12.374,0,0,0,2.48-1.027l.177-.1,1.66,1.66a.673.673,0,0,0,.86.077A15.237,15.237,0,0,0,143,123.516a.672.672,0,0,0-.076-.859l-1.66-1.663.1-.177a12.125,12.125,0,0,0,1.027-2.477l.056-.194h2.348a.673.673,0,0,0,.662-.553,15.178,15.178,0,0,0,0-5.416.673.673,0,0,0-.662-.553h-2.349l-.056-.194a12.277,12.277,0,0,0-1.026-2.476l-.1-.177,1.66-1.66a.673.673,0,0,0,.077-.859,15.2,15.2,0,0,0-3.826-3.83.673.673,0,0,0-.86.077l-1.66,1.66-.177-.1a12.37,12.37,0,0,0-2.48-1.027l-.194-.057v-2.349a.673.673,0,0,0-.552-.662l-.233-.045V98.322h45.772v32.6Zm19.753-14.8a.674.674,0,0,0-.673.673v10.747a.674.674,0,0,0,.673.673h10.747a.674.674,0,0,0,.673-.673V116.8a.674.674,0,0,0-.673-.673Zm23.849,5.533v-1.346H166.8v1.346Zm0-4.187v-1.346H166.8v1.346ZM152.77,101.026a.674.674,0,0,0-.673.673V112.45a.674.674,0,0,0,.673.673h10.747a.674.674,0,0,0,.673-.673V101.7a.674.674,0,0,0-.673-.673Zm23.849,5.533v-1.346H166.8v1.346Zm0-4.187v-1.346H166.8v1.346Z" transform="translate(-115.118 -33.548)" fill="#e9e9ff"/>
      <path id="Path_1329135" data-name="Path 1329135" d="M271.007,377.421h8.638v2.571h-8.638Z" transform="translate(-234.544 -275.097)" fill="#445ea0"/>
      <path id="Path_1329136" data-name="Path 1329136" d="M108.121,111.366a1.865,1.865,0,0,1-1.863-1.863V106.84l.284.016c.291.016.575.024.843.024s.552-.008.843-.024l.284-.016v1.6a.674.674,0,0,0,.673.673H156.3a.674.674,0,0,0,.673-.673V74.489a.674.674,0,0,0-.673-.673H109.185a.674.674,0,0,0-.673.673v2.122l-.284-.016c-.28-.015-.565-.023-.846-.023s-.562.008-.841.023l-.284.016V73.425a1.865,1.865,0,0,1,1.863-1.863h49.246a1.865,1.865,0,0,1,1.863,1.863V109.5a1.865,1.865,0,0,1-1.863,1.863Z" transform="translate(-91.96 -10.388)" fill="#445ea0"/>
      <path id="Path_1329137" data-name="Path 1329137" d="M211.763,411.1v-2.279a2.285,2.285,0,0,1,2.283-2.283h20.018a2.285,2.285,0,0,1,2.283,2.283V411.1Z" transform="translate(-183.27 -300.294)" fill="#293d7c"/>
      <path id="Path_1329138" data-name="Path 1329138" d="M67.47,181.608A7.33,7.33,0,1,1,74.8,174.28,7.338,7.338,0,0,1,67.47,181.608Zm-.454-3.034,2.205-8.241-1.3-.348-2.205,8.241Zm-5.627-4.766a.673.673,0,0,0,0,.952l2.719,2.714.951-.952-2.242-2.238,2.242-2.242-.952-.952Zm9.446,3.658,2.714-2.719a.674.674,0,0,0,0-.951l-2.714-2.714-.952.952,2.239,2.239-2.239,2.243Z" transform="translate(-52.045 -92.941)" fill="#e9e9ff"/>
      <path id="Path_1329139" data-name="Path 1329139" d="M25.812,146.406a13.892,13.892,0,0,1-1.678-.1l-.237-.029v-2.3a.67.67,0,0,0-.523-.656,11,11,0,0,1-3.415-1.416.673.673,0,0,0-.834.094L17.5,143.621l-.188-.147a13.862,13.862,0,0,1-2.375-2.373l-.147-.188,1.629-1.632a.67.67,0,0,0,.093-.834,10.941,10.941,0,0,1-1.416-3.413.669.669,0,0,0-.656-.523h-2.3l-.028-.237a14.242,14.242,0,0,1,0-3.355l.028-.237h2.3a.67.67,0,0,0,.656-.523,11,11,0,0,1,1.416-3.415.669.669,0,0,0-.094-.834l-1.629-1.629.147-.188a13.818,13.818,0,0,1,2.375-2.375l.188-.147,1.629,1.629a.673.673,0,0,0,.834.094,11,11,0,0,1,3.414-1.416.67.67,0,0,0,.523-.656v-2.3l.237-.029a13.9,13.9,0,0,1,3.356,0l.237.029v2.3a.67.67,0,0,0,.523.656,11.012,11.012,0,0,1,3.418,1.416.673.673,0,0,0,.834-.094l1.628-1.628.188.147a13.869,13.869,0,0,1,2.372,2.374l.147.188-1.629,1.629a.669.669,0,0,0-.093.835,10.912,10.912,0,0,1,1.415,3.413.669.669,0,0,0,.656.523h2.3l.029.237a13.841,13.841,0,0,1,0,3.356l-.029.236h-2.3a.669.669,0,0,0-.656.525,10.764,10.764,0,0,1-1.414,3.41.669.669,0,0,0,.092.836l1.629,1.632-.147.188a13.9,13.9,0,0,1-2.372,2.372l-.188.147L32.5,141.992a.673.673,0,0,0-.834-.094,11.011,11.011,0,0,1-3.418,1.416.67.67,0,0,0-.523.656v2.3l-.237.029A13.85,13.85,0,0,1,25.812,146.406Zm0-22.485a8.676,8.676,0,1,0,8.674,8.678,8.688,8.688,0,0,0-8.674-8.678Z" transform="translate(-10.388 -51.26)" fill="#0cb4fb"/>
      <path id="Path_1329140" data-name="Path 1329140" d="M284.84,137.831v-9.4h9.4v9.4Zm2.956-2.147a.67.67,0,0,0,.51.266h.026a.673.673,0,0,0,.5-.227l4.256-4.8-1.007-.893-3.712,4.188-1.3-1.717-1.072.814Z" transform="translate(-246.515 -59.602)" fill="#43cb8e"/>
      <path id="Path_1329141" data-name="Path 1329141" d="M284.84,250.079v-9.4h9.4v9.4Zm2.878-1.926,1.823-1.823,1.823,1.823.952-.952-1.823-1.823,1.823-1.823-.952-.952-1.823,1.823-1.823-1.823-.952.952,1.823,1.823-1.823,1.823Z" transform="translate(-246.515 -156.752)" fill="#ed524e"/>
      <path id="Path_1329142" data-name="Path 1329142" d="M24.369,81.339a8.945,8.945,0,1,0-8.943,8.943A8.955,8.955,0,0,0,24.369,81.339Zm-16.006,0A7.061,7.061,0,1,1,15.426,88.4,7.071,7.071,0,0,1,8.363,81.339ZM61.77,69.093H51.412V67.209H61.77Zm3.638-9.534H16.162a3.482,3.482,0,0,0-3.478,3.478v3.121l-.016,0a.942.942,0,0,0-.773.927v2.147a12.592,12.592,0,0,0-2.53,1.05L7.846,68.767a.942.942,0,0,0-1.2-.108,15.419,15.419,0,0,0-3.9,3.9.942.942,0,0,0,.108,1.2l1.518,1.518a12.578,12.578,0,0,0-1.05,2.53H1.174a.942.942,0,0,0-.927.774,15.693,15.693,0,0,0,0,5.512.942.942,0,0,0,.927.774H3.321A12.539,12.539,0,0,0,4.371,87.4L2.852,88.919a.942.942,0,0,0-.107,1.2,15.457,15.457,0,0,0,3.9,3.894.941.941,0,0,0,1.2-.108L9.364,92.39a12.592,12.592,0,0,0,2.53,1.05v2.147a.942.942,0,0,0,.773.927l.016,0v2.6a3.482,3.482,0,0,0,3.478,3.478H34.849v2.033H30.776a3.9,3.9,0,0,0-3.9,3.9v2.952a.942.942,0,0,0,.942.942H53.749a.942.942,0,0,0,.942-.942v-2.952a3.9,3.9,0,0,0-3.9-3.9H46.717v-2.033H65.408a3.482,3.482,0,0,0,3.478-3.478V63.037a3.482,3.482,0,0,0-3.478-3.478ZM13.045,91.793a10.728,10.728,0,0,1-3.331-1.382.942.942,0,0,0-1.167.131L7.087,92a13.562,13.562,0,0,1-2.329-2.326l1.461-1.464a.942.942,0,0,0,.13-1.168,10.677,10.677,0,0,1-1.381-3.33.942.942,0,0,0-.918-.733H1.984a13.969,13.969,0,0,1,0-3.291H4.049a.942.942,0,0,0,.918-.733,10.729,10.729,0,0,1,1.382-3.331.942.942,0,0,0-.132-1.167L4.758,73a13.515,13.515,0,0,1,2.329-2.329l1.46,1.46a.942.942,0,0,0,1.167.131,10.734,10.734,0,0,1,3.331-1.382.942.942,0,0,0,.733-.918V67.9a13.632,13.632,0,0,1,3.291,0v2.066a.942.942,0,0,0,.733.918,10.744,10.744,0,0,1,3.335,1.382.942.942,0,0,0,1.167-.131l1.46-1.46A13.564,13.564,0,0,1,26.089,73l-1.46,1.46a.942.942,0,0,0-.13,1.169,10.643,10.643,0,0,1,1.381,3.329.942.942,0,0,0,.918.733h2.066a13.568,13.568,0,0,1,0,3.291H26.8a.942.942,0,0,0-.919.735A10.5,10.5,0,0,1,24.5,87.043a.942.942,0,0,0,.129,1.17l1.461,1.464A13.606,13.606,0,0,1,23.764,92l-1.46-1.46a.942.942,0,0,0-1.167-.131A10.741,10.741,0,0,1,17.8,91.793a.942.942,0,0,0-.733.918v2.066a13.631,13.631,0,0,1-3.291,0V92.711A.941.941,0,0,0,13.045,91.793Zm14.949-2.874L26.478,87.4a12.364,12.364,0,0,0,1.05-2.532h2.146a.942.942,0,0,0,.927-.774,15.45,15.45,0,0,0,0-5.512.942.942,0,0,0-.927-.774H27.526a12.514,12.514,0,0,0-1.049-2.531l1.517-1.517a.942.942,0,0,0,.108-1.2,15.465,15.465,0,0,0-3.894-3.9.942.942,0,0,0-1.2.107l-1.518,1.518a12.608,12.608,0,0,0-2.534-1.05V67.087a.942.942,0,0,0-.773-.927l-.012,0V65.043H63.4V97.108H18.168v-.593l.012,0a.942.942,0,0,0,.773-.927V93.439a12.6,12.6,0,0,0,2.534-1.05L23,93.907a.942.942,0,0,0,1.2.107A15.5,15.5,0,0,0,28.1,90.121.942.942,0,0,0,27.995,88.919Zm22.8,17.591a2.016,2.016,0,0,1,2.014,2.014v2.01H28.762v-2.01a2.016,2.016,0,0,1,2.014-2.014H50.794Zm-14.061-1.884v-2.033h8.1v2.033ZM67,99.114a1.6,1.6,0,0,1-1.594,1.594H16.162a1.6,1.6,0,0,1-1.594-1.594V96.737c.286.016.572.025.858.025s.572-.009.858-.025V98.05a.942.942,0,0,0,.942.942H64.344a.942.942,0,0,0,.942-.942V64.1a.942.942,0,0,0-.942-.942H17.226a.942.942,0,0,0-.942.942v1.837a15.638,15.638,0,0,0-1.716,0v-2.9a1.6,1.6,0,0,1,1.594-1.594H65.408A1.6,1.6,0,0,1,67,63.037V99.114ZM17.506,77.2l-2.344,8.761-1.82-.487,2.344-8.761ZM13.394,83.58l-1.331,1.333-2.909-2.9a.942.942,0,0,1,0-1.333l2.909-2.908L13.394,79.1l-2.242,2.242Zm4.063-4.487,1.332-1.332,2.9,2.9a.942.942,0,0,1,0,1.332l-2.9,2.909-1.333-1.331L19.7,81.332Zm20.195.751H48.4a.942.942,0,0,0,.942-.942V68.151a.942.942,0,0,0-.942-.942H37.652a.942.942,0,0,0-.942.942V78.9A.942.942,0,0,0,37.652,79.844Zm.942-10.751h8.863V77.96H38.594ZM61.77,73.281H51.412V71.4H61.77ZM37.652,94.942H48.4A.942.942,0,0,0,49.341,94V83.253a.942.942,0,0,0-.942-.942H37.652a.942.942,0,0,0-.942.942V94A.942.942,0,0,0,37.652,94.942ZM38.594,84.2h8.863v8.863H38.594ZM46.18,86.8l-1.823,1.823L46.18,90.45l-1.332,1.332-1.823-1.823L41.2,91.782,39.87,90.45l1.823-1.823L39.87,86.8,41.2,85.472l1.823,1.823,1.823-1.823ZM61.77,84.2H51.412V82.311H61.77Zm0,4.187H51.412V86.5H61.77ZM45.546,70.048l1.41,1.25-4.435,5a.942.942,0,0,1-.7.317H41.78a.942.942,0,0,1-.715-.372L39.1,73.66l1.5-1.139,1.267,1.67Z"/>
    </g>
  </g>
</svg>
