<svg xmlns="http://www.w3.org/2000/svg" width="96.344" height="96.344" viewBox="0 0 96.344 96.344">
  <g id="Group_1205050" data-name="Group 1205050" transform="translate(-432.5 -3643.001)">
    <g id="Group_1204884" data-name="Group 1204884" transform="translate(-589.467 545.346)">
      <g id="Group_1200255" data-name="Group 1200255" transform="translate(1021.967 3097.655)">
        <g id="Group_1187152" data-name="Group 1187152">
          <g id="Group_1185946" data-name="Group 1185946">
            <g id="Group_1184280" data-name="Group 1184280">
              <g id="Group_1182168" data-name="Group 1182168">
                <g id="Group_1178877" data-name="Group 1178877">
                  <g id="Group_1111311" data-name="Group 1111311">
                    <g id="Group_1098742" data-name="Group 1098742" transform="translate(0 0)">
                      <g id="Rectangle_400898" data-name="Rectangle 400898" transform="translate(0.001 0)" fill="#c5aaf1" stroke="#615478" stroke-width="0.5" opacity="0.859">
                        <rect width="96.344" height="96.344" rx="48.172" stroke="none"/>
                        <rect x="0.25" y="0.25" width="95.844" height="95.844" rx="47.922" fill="none"/>
                      </g>
                      <g id="Rectangle_400907" data-name="Rectangle 400907" transform="translate(0 0)" fill="none" stroke="#615478" stroke-width="0.5">
                        <rect width="96.344" height="96.344" rx="48.172" stroke="none"/>
                        <rect x="0.25" y="0.25" width="95.844" height="95.844" rx="47.922" fill="none"/>
                      </g>
                    </g>
                  </g>
                </g>
              </g>
            </g>
          </g>
        </g>
      </g>
    </g>
    <g id="actualizar-datos" transform="translate(451.715 3646.586)">
      <path id="Path_1329126" data-name="Path 1329126" d="M24.252,28.249l-1.464-4.39a1.208,1.208,0,0,0-1.146-.826H8.708A1.208,1.208,0,0,0,7.5,24.24V68.07l52.842-3.753V29.87a1.208,1.208,0,0,0-1.208-1.208H24.825a.6.6,0,0,1-.573-.413Z" transform="translate(-6.594 -6.594)" fill="#feb237"/>
      <path id="Path_1329127" data-name="Path 1329127" d="M77.97,140.615H38.562V116.823a.6.6,0,0,1,.6-.6H59.2Z" transform="translate(-33.903 -88.521)" fill="#eef5f6"/>
      <path id="Path_1329128" data-name="Path 1329128" d="M14.725,121.849H28.412a.6.6,0,0,0,.528-.311l2.955-5.319H66.342a1.208,1.208,0,0,1,1.18,1.47l-7.075,31.835a.6.6,0,0,1-.59.473H7.5l6.045-27.2A1.208,1.208,0,0,1,14.725,121.849Z" transform="translate(-6.594 -88.521)" fill="#ffd15b"/>
      <path id="Path_1329129" data-name="Path 1329129" d="M66.342,116.219H64.895l-6.864,30.889a.6.6,0,0,1-.59.473H8.037L7.5,150H59.857a.6.6,0,0,0,.59-.473l7.075-31.835A1.208,1.208,0,0,0,66.342,116.219Z" transform="translate(-6.594 -88.521)" fill="#ffc344"/>
      <circle id="Ellipse_12637" data-name="Ellipse 12637" cx="11.26" cy="11.26" r="11.26" transform="translate(19.672 50.217)" fill="#6ed5a1"/>
      <path id="Path_1329130" data-name="Path 1329130" d="M197.495,321.5a11.26,11.26,0,0,1-15.775,15.775A11.26,11.26,0,1,0,197.495,321.5Z" transform="translate(-159.763 -269.001)" fill="#46cc8d"/>
      <path id="Path_1329131" data-name="Path 1329131" d="M61.4,27.583a2.1,2.1,0,0,0-1.649-.791H54.654V23.276a2.117,2.117,0,0,0-2.114-2.114H29.131a.906.906,0,1,0,0,1.812H52.54a.3.3,0,0,1,.3.3v3.515H5.263a1.512,1.512,0,0,0-1.51,1.51V44.466c0,.007,0,.014,0,.02L1.812,53.221V17.646a.3.3,0,0,1,.3-.3H15.048a.3.3,0,0,1,.287.206l1.464,4.39a1.508,1.508,0,0,0,1.433,1.033H24.9a.906.906,0,0,0,0-1.812H18.449l-1.395-4.184a2.112,2.112,0,0,0-2.006-1.446H2.114A2.117,2.117,0,0,0,0,17.646V61.479s0,.007,0,.011S0,61.5,0,61.5v.026s0,0,0,.007,0,.014,0,.02v0a.9.9,0,0,0,.2.484h0l.015.018,0,0,.015.017h0l.034.036,0,0,.015.014,0,0,.014.012,0,0,.015.013,0,0a.9.9,0,0,0,.5.207h0l.022,0H18.8a12.166,12.166,0,0,0,24.265,0h10.2A1.5,1.5,0,0,0,54.738,61.2L58.52,44.178a.906.906,0,1,0-1.769-.393L53.021,60.57H43.064a12.169,12.169,0,0,0-18.451-9.492.906.906,0,1,0,.943,1.548,10.357,10.357,0,1,1-2.984,2.741A.906.906,0,0,0,21.109,54.3,12.055,12.055,0,0,0,18.8,60.57H2.036l5.8-26.1a.3.3,0,0,1,.295-.237H21.819a1.511,1.511,0,0,0,1.32-.777l2.7-4.853H59.748a.3.3,0,0,1,.295.368L57.679,39.609A.906.906,0,1,0,59.448,40l2.364-10.637a2.1,2.1,0,0,0-.415-1.782ZM21.641,32.421H8.131a2.1,2.1,0,0,0-2.064,1.656l-.5,2.255V28.6h18.2Z"/>
      <path id="Path_1329132" data-name="Path 1329132" d="M200.7,343.386a6.537,6.537,0,0,0-10.806,3.567l-.245-.245a.906.906,0,1,0-1.283,1.28l1.735,1.739a.906.906,0,0,0,1.282,0l1.739-1.735a.906.906,0,1,0-1.28-1.283l-.015.015a4.724,4.724,0,0,1,7.655-2,.906.906,0,0,0,1.219-1.341Z" transform="translate(-165.37 -286.748)"/>
      <path id="Path_1329133" data-name="Path 1329133" d="M221.865,387.637a4.712,4.712,0,0,1-3.176-1.227.906.906,0,0,0-1.219,1.341,6.537,6.537,0,0,0,10.806-3.567l.245.245a.906.906,0,1,0,1.283-1.28l-1.735-1.739a.906.906,0,0,0-1.282,0l-1.739,1.735a.906.906,0,0,0,1.28,1.283l.015-.015A4.732,4.732,0,0,1,221.865,387.637Z" transform="translate(-190.933 -321.437)"/>
    </g>
  </g>
</svg>
