<svg xmlns="http://www.w3.org/2000/svg" xmlns:xlink="http://www.w3.org/1999/xlink" width="118" height="118" viewBox="0 0 118 118">
  <defs>
    <filter id="Rectangle_411831" x="0" y="0" width="118" height="118" filterUnits="userSpaceOnUse">
      <feOffset dy="3" input="SourceAlpha"/>
      <feGaussianBlur stdDeviation="3" result="blur"/>
      <feFlood flood-opacity="0.161"/>
      <feComposite operator="in" in2="blur"/>
      <feComposite in="SourceGraphic"/>
    </filter>
  </defs>
  <g id="Group_1204919" data-name="Group 1204919" transform="translate(6408 6929)">
    <g id="Group_1204664" data-name="Group 1204664" transform="translate(-6734.781 -10781)">
      <g transform="matrix(1, 0, 0, 1, 326.78, 3852)" filter="url(#Rectangle_411831)">
        <g id="Rectangle_411831-2" data-name="Rectangle 411831" transform="translate(9 6)" fill="#37f1e9" stroke="#fff" stroke-width="2">
          <path d="M5,0H68a32,32,0,0,1,32,32V95a5,5,0,0,1-5,5H32A32,32,0,0,1,0,68V5A5,5,0,0,1,5,0Z" stroke="none"/>
          <path d="M5,1H68A31,31,0,0,1,99,32V95a4,4,0,0,1-4,4H32A31,31,0,0,1,1,68V5A4,4,0,0,1,5,1Z" fill="none"/>
        </g>
      </g>
    </g>
    <g id="programacion" transform="translate(-6383 -6907)">
      <g id="Group_1204917" data-name="Group 1204917" transform="translate(2.054 2.054)">
        <g id="Group_1204908" data-name="Group 1204908" transform="translate(0 23.192)">
          <path id="Path_1328778" data-name="Path 1328778" d="M2,57.734V24H35.059c.137.3.285.59.443.875l-1.286,2.488,4.48,4.47,2.488-1.276a15.316,15.316,0,0,0,3.184,1.307l.854,2.678h3.163V51.409a6.333,6.333,0,0,0-5.967,8.433H4.108A2.115,2.115,0,0,1,2,57.734Z" transform="translate(-2 -24)" fill="#e6e9ed"/>
        </g>
        <g id="Group_1204909" data-name="Group 1204909" transform="translate(0 10.542)">
          <path id="Path_1328779" data-name="Path 1328779" d="M35.059,24.65H2V14.108A2.115,2.115,0,0,1,4.108,12H35.059a14.429,14.429,0,0,0-.864,2.309l-2.678.854v6.325l2.678.854A14.429,14.429,0,0,0,35.059,24.65Z" transform="translate(-2 -12)" fill="#5cd6b3"/>
        </g>
        <g id="Group_1204910" data-name="Group 1204910" transform="translate(4.217 14.759)">
          <path id="Path_1328780" data-name="Path 1328780" d="M17.6,20.217H7.054A1.055,1.055,0,0,1,6,19.163V17.054A1.055,1.055,0,0,1,7.054,16H17.6a1.055,1.055,0,0,1,1.054,1.054v2.108A1.055,1.055,0,0,1,17.6,20.217Z" transform="translate(-6 -16)" fill="#e6e9ed"/>
        </g>
        <g id="Group_1204911" data-name="Group 1204911" transform="translate(40.059 50.601)">
          <path id="Path_1328781" data-name="Path 1328781" d="M46.325,50A6.333,6.333,0,1,1,40,56.325,6.33,6.33,0,0,1,46.325,50Z" transform="translate(-40 -50)" fill="#ff826e"/>
        </g>
        <g id="Group_1204912" data-name="Group 1204912" transform="translate(44.276 54.818)">
          <circle id="Ellipse_12589" data-name="Ellipse 12589" cx="2" cy="2" r="2" transform="translate(0.029 0.488)" fill="#fc6e51"/>
        </g>
        <g id="Group_1204913" data-name="Group 1204913" transform="translate(56.926 50.601)">
          <ellipse id="Ellipse_12590" data-name="Ellipse 12590" cx="2" cy="2.5" rx="2" ry="2.5" transform="translate(0.379 -0.296)" fill="#ff826e"/>
        </g>
        <g id="Group_1204914" data-name="Group 1204914" transform="translate(31.626 50.601)">
          <circle id="Ellipse_12591" data-name="Ellipse 12591" cx="2.5" cy="2.5" r="2.5" transform="translate(-0.32 -0.296)" fill="#ff826e"/>
        </g>
        <g id="Group_1204915" data-name="Group 1204915" transform="translate(29.517)">
          <path id="Path_1328782" data-name="Path 1328782" d="M63.734,15.7v6.325l-2.678.854a15.316,15.316,0,0,1-1.307,3.184l1.286,2.488-4.48,4.47-2.488-1.276a15.316,15.316,0,0,1-3.184,1.307l-.854,2.678H43.7l-.854-2.678a15.316,15.316,0,0,1-3.184-1.307l-2.488,1.276-4.48-4.47,1.286-2.488c-.158-.285-.306-.58-.443-.875a14.429,14.429,0,0,1-.864-2.309L30,22.029V15.7l2.678-.854a14.429,14.429,0,0,1,.864-2.309c.137-.3.285-.59.443-.875L32.7,9.179l4.48-4.48,2.488,1.286A15.316,15.316,0,0,1,42.85,4.678L43.7,2h6.325l.854,2.678a15.316,15.316,0,0,1,3.184,1.307L56.555,4.7l4.48,4.48-1.286,2.488a15.316,15.316,0,0,1,1.307,3.184Z" transform="translate(-30 -2)" fill="#fcd770"/>
        </g>
        <g id="Group_1204916" data-name="Group 1204916" transform="translate(35.842 6.325)">
          <circle id="Ellipse_12592" data-name="Ellipse 12592" cx="10.5" cy="10.5" r="10.5" transform="translate(0.463 -0.02)" fill="#ffeaa7"/>
        </g>
      </g>
      <g id="Group_1204918" data-name="Group 1204918" transform="translate(1 1)">
        <path id="Path_1328783" data-name="Path 1328783" d="M46.6,7a11.6,11.6,0,1,0,11.6,11.6A11.61,11.61,0,0,0,46.6,7Zm0,21.084A9.488,9.488,0,1,1,56.084,18.6,9.5,9.5,0,0,1,46.6,28.084Z" transform="translate(0.842 -0.675)"/>
        <path id="Path_1328784" data-name="Path 1328784" d="M63.477,14.066a15.745,15.745,0,0,0-.969-2.35l1.383-2.687-5.56-5.56L55.645,4.852a15.744,15.744,0,0,0-2.35-.969L52.369,1H44.506l-.923,2.882a15.744,15.744,0,0,0-2.35.969L38.546,3.468l-5.56,5.56,1.292,2.514H4.163A3.166,3.166,0,0,0,1,14.7V58.98a3.166,3.166,0,0,0,3.163,3.163H41.781a7.374,7.374,0,1,0,7.711-10.458V36.842h2.877l.923-2.882a15.744,15.744,0,0,0,2.35-.969l2.687,1.383,5.56-5.56-1.383-2.686a15.763,15.763,0,0,0,.969-2.35l2.884-.927V14.989ZM4.163,13.65h29.39c-.05.139-.106.274-.152.415l-2.883.925v7.863l2.882.923c.045.141.1.276.152.415H3.108V14.7A1.056,1.056,0,0,1,4.163,13.65ZM53.709,58.98a5.271,5.271,0,1,1-5.271-5.271A5.277,5.277,0,0,1,53.709,58.98Zm-6.325-7.295a7.307,7.307,0,0,0-6.241,8.349H4.163A1.056,1.056,0,0,1,3.108,58.98V26.3H34.28l-1.293,2.513,5.56,5.56,2.687-1.383a15.744,15.744,0,0,0,2.35.969l.925,2.883h2.877Zm16.867-30.37-2.484.8-.154.545A13.571,13.571,0,0,1,60.4,25.6l-.277.494,1.191,2.314L57.927,31.8l-2.314-1.19-.493.276A13.614,13.614,0,0,1,52.172,32.1l-.545.154-.795,2.483H46.045l-.8-2.484L44.7,32.1a13.667,13.667,0,0,1-2.947-1.215l-.493-.276-2.314,1.19L35.565,28.41,36.756,26.1l-.277-.494a13.593,13.593,0,0,1-1.215-2.946l-.154-.545-2.484-.795V16.528l2.484-.8.154-.545a13.667,13.667,0,0,1,1.215-2.947l.276-.493-1.19-2.314L38.95,6.047l2.314,1.19.493-.276A13.614,13.614,0,0,1,44.7,5.746l.545-.154.795-2.484h4.787l.8,2.484.545.154A13.667,13.667,0,0,1,55.12,6.961l.493.276,2.314-1.19,3.385,3.385-1.19,2.314.276.493a13.614,13.614,0,0,1,1.215,2.947l.154.545,2.484.795Z" transform="translate(-1 -1)"/>
        <path id="Path_1328785" data-name="Path 1328785" d="M48.2,14.665l2.688,3.584L48.2,21.833,49.887,23.1l3.637-4.849L49.887,13.4Z" transform="translate(1.557 -0.328)"/>
        <path id="Path_1328786" data-name="Path 1328786" d="M42.387,13.4,38.75,18.249,42.387,23.1l1.687-1.265-2.688-3.584,2.688-3.584Z" transform="translate(1.045 -0.328)"/>
        <path id="Path_1328787" data-name="Path 1328787" d="M0,0H14.908V2.108H0Z" transform="translate(45.356 25.154) rotate(-81.837)"/>
        <path id="Path_1328788" data-name="Path 1328788" d="M7.108,21.325H17.65a2.11,2.11,0,0,0,2.108-2.108V17.108A2.11,2.11,0,0,0,17.65,15H7.108A2.11,2.11,0,0,0,5,17.108v2.108A2.11,2.11,0,0,0,7.108,21.325Zm4.217-2.108V17.108h2.108v2.108Zm6.326,0H15.542V17.108H17.65ZM7.108,17.108H9.217v2.108H7.108Z" transform="translate(-0.783 -0.241)"/>
        <path id="Path_1328789" data-name="Path 1328789" d="M43,56.163A3.163,3.163,0,1,0,46.163,53,3.166,3.166,0,0,0,43,56.163Zm4.217,0a1.054,1.054,0,1,1-1.054-1.054A1.056,1.056,0,0,1,47.217,56.163Z" transform="translate(1.276 1.818)"/>
        <path id="Path_1328790" data-name="Path 1328790" d="M59.325,50.007V46.214L55.108,42V34H53v8.87l4.217,4.217v2.92a3.163,3.163,0,1,0,2.108,0Zm-1.054,4.023a1.054,1.054,0,1,1,1.054-1.054A1.056,1.056,0,0,1,58.271,54.029Z" transform="translate(1.818 0.788)"/>
        <path id="Path_1328791" data-name="Path 1328791" d="M37.325,42l-4.217,4.217v3.793a3.163,3.163,0,1,0,2.108,0v-2.92l4.217-4.217V34H37.325ZM34.163,54.029a1.054,1.054,0,1,1,1.054-1.054A1.056,1.056,0,0,1,34.163,54.029Z" transform="translate(0.626 0.788)"/>
        <path id="Path_1328792" data-name="Path 1328792" d="M7.108,34.379a3.166,3.166,0,0,0,3.163,3.163h1.054V35.433H10.271a1.056,1.056,0,0,1-1.054-1.054,3.142,3.142,0,0,0-.822-2.108,3.142,3.142,0,0,0,.822-2.108,1.056,1.056,0,0,1,1.054-1.054h1.054V27H10.271a3.166,3.166,0,0,0-3.163,3.163,1.056,1.056,0,0,1-1.054,1.054H5v2.108H6.054A1.056,1.056,0,0,1,7.108,34.379Z" transform="translate(-0.783 0.409)"/>
        <path id="Path_1328793" data-name="Path 1328793" d="M13,27H25.65v2.108H13Z" transform="translate(-0.35 0.409)"/>
        <path id="Path_1328794" data-name="Path 1328794" d="M13,31H25.65v2.108H13Z" transform="translate(-0.35 0.626)"/>
        <path id="Path_1328795" data-name="Path 1328795" d="M23,35h2.108v2.108H23Z" transform="translate(0.192 0.842)"/>
        <path id="Path_1328796" data-name="Path 1328796" d="M13,35h8.433v2.108H13Z" transform="translate(-0.35 0.842)"/>
        <path id="Path_1328797" data-name="Path 1328797" d="M27.217,46.163A3.166,3.166,0,0,0,24.054,43H23v2.108h1.054a1.056,1.056,0,0,1,1.054,1.054,3.142,3.142,0,0,0,.822,2.108,3.137,3.137,0,0,0-.822,2.108,1.056,1.056,0,0,1-1.054,1.054H23v2.108h1.054a3.166,3.166,0,0,0,3.163-3.163,1.056,1.056,0,0,1,1.054-1.054h1.054V47.217H28.271A1.056,1.056,0,0,1,27.217,46.163Z" transform="translate(0.192 1.276)"/>
        <path id="Path_1328798" data-name="Path 1328798" d="M9,51H21.65v2.108H9Z" transform="translate(-0.567 1.709)"/>
        <path id="Path_1328799" data-name="Path 1328799" d="M13,47h8.433v2.108H13Z" transform="translate(-0.35 1.492)"/>
        <path id="Path_1328800" data-name="Path 1328800" d="M9,47h2.108v2.108H9Z" transform="translate(-0.567 1.492)"/>
        <path id="Path_1328801" data-name="Path 1328801" d="M9,43H21.65v2.108H9Z" transform="translate(-0.567 1.276)"/>
        <path id="Path_1328802" data-name="Path 1328802" d="M5,39H26.084v2.108H5Z" transform="translate(-0.783 1.059)"/>
      </g>
    </g>
  </g>
</svg>
