<svg xmlns="http://www.w3.org/2000/svg" width="76.345" height="76.344" viewBox="0 0 76.345 76.344">
  <g id="Group_1204966" data-name="Group 1204966" transform="translate(-1020.051 -3623)">
    <g id="Group_1204656" data-name="Group 1204656" transform="translate(-1.916 525.345)">
      <g id="Group_1200255" data-name="Group 1200255" transform="translate(0 5)">
        <g id="Group_1187152" data-name="Group 1187152">
          <g id="Group_1185946" data-name="Group 1185946" transform="translate(-3.07)">
            <g id="Group_1184280" data-name="Group 1184280">
              <g id="Group_1182168" data-name="Group 1182168">
                <g id="Group_1178877" data-name="Group 1178877">
                  <g id="Group_1111311" data-name="Group 1111311">
                    <g id="Group_1098742" data-name="Group 1098742" transform="translate(1025.482 3093.101)">
                      <g id="Rectangle_400898" data-name="Rectangle 400898" transform="translate(-0.445 -0.445)" fill="#c5aaf1" stroke="#615478" stroke-width="0.5" opacity="0.859">
                        <rect width="76.345" height="76.345" rx="38.172" stroke="none"/>
                        <rect x="0.25" y="0.25" width="75.845" height="75.845" rx="37.922" fill="none"/>
                      </g>
                      <g id="Rectangle_400907" data-name="Rectangle 400907" transform="translate(-0.446 -0.445)" fill="none" stroke="#615478" stroke-width="0.5">
                        <rect width="76.345" height="76.345" rx="38.172" stroke="none"/>
                        <rect x="0.25" y="0.25" width="75.845" height="75.845" rx="37.922" fill="none"/>
                      </g>
                    </g>
                  </g>
                </g>
              </g>
            </g>
          </g>
        </g>
      </g>
    </g>
    <g id="asistente-de-ai_1_" data-name="asistente-de-ai (1)" transform="translate(1034.932 3637)">
      <g id="Group_1204964" data-name="Group 1204964" transform="translate(0.815 0.696)">
        <g id="Group_1204963" data-name="Group 1204963">
          <g id="Group_1204937" data-name="Group 1204937" transform="translate(9.878)">
            <g id="Group_1204935" data-name="Group 1204935">
              <g id="Group_1204934" data-name="Group 1204934">
                <path id="Path_1328850" data-name="Path 1328850" d="M136.241,53.612H118.257a4.175,4.175,0,0,1-4.175-4.175V11.675A4.175,4.175,0,0,1,118.257,7.5h17.984a4.175,4.175,0,0,1,4.175,4.175V49.437A4.175,4.175,0,0,1,136.241,53.612Z" transform="translate(-114.082 -7.5)" fill="#f9f7f8"/>
              </g>
            </g>
            <g id="Group_1204936" data-name="Group 1204936" transform="translate(0.094 0.066)">
              <path id="Path_1328851" data-name="Path 1328851" d="M137.895,8.209V47.714a3.247,3.247,0,0,1-3.247,3.247H115.1a4.176,4.176,0,0,0,4.081,3.294H137.16a4.175,4.175,0,0,0,4.175-4.175V12.318A4.175,4.175,0,0,0,137.895,8.209Z" transform="translate(-115.095 -8.209)" fill="#efedef"/>
            </g>
          </g>
          <g id="Group_1204941" data-name="Group 1204941" transform="translate(15.723 19.353)">
            <g id="Group_1204940" data-name="Group 1204940">
              <g id="Group_1204938" data-name="Group 1204938" transform="translate(0 0)">
                <path id="Path_1328852" data-name="Path 1328852" d="M177.084,229.11V217.7a1.617,1.617,0,0,1,1.617-1.617H190.11a1.617,1.617,0,0,1,1.617,1.617V229.11a1.617,1.617,0,0,1-1.617,1.617H178.7A1.617,1.617,0,0,1,177.084,229.11Z" transform="translate(-177.084 -216.084)" fill="#b9acac"/>
              </g>
              <g id="Group_1204939" data-name="Group 1204939">
                <path id="Path_1328853" data-name="Path 1328853" d="M190.11,216.084h-.432v11.667a.928.928,0,0,1-.928.928H177.084v.432a1.617,1.617,0,0,0,1.617,1.617H190.11a1.617,1.617,0,0,0,1.617-1.617V217.7a1.617,1.617,0,0,0-1.617-1.617Z" transform="translate(-177.084 -216.084)" fill="#9e9797"/>
              </g>
            </g>
          </g>
          <g id="Group_1204959" data-name="Group 1204959" transform="translate(0 3.096)">
            <g id="Group_1204949" data-name="Group 1204949" transform="translate(34.457)">
              <g id="Group_1204942" data-name="Group 1204942">
                <circle id="Ellipse_12611" data-name="Ellipse 12611" cx="5.817" cy="5.817" r="5.817" fill="#ffdfcf"/>
              </g>
              <g id="Group_1204943" data-name="Group 1204943" transform="translate(1.638 0.393)">
                <path id="Path_1328854" data-name="Path 1328854" d="M402.934,45.1a5.816,5.816,0,0,1-6.28,9.467,5.816,5.816,0,1,0,6.28-9.467Z" transform="translate(-396.654 -45.104)" fill="#ffcebf"/>
              </g>
              <g id="Group_1204948" data-name="Group 1204948" transform="translate(2.248 2.981)">
                <g id="Group_1204944" data-name="Group 1204944" transform="translate(0 5.299)">
                  <path id="Path_1328855" data-name="Path 1328855" d="M406.793,133.464a5.789,5.789,0,0,0,3.569-1.225,2.939,2.939,0,0,0-2.325-2.128,2.751,2.751,0,0,1-2.487,0,2.939,2.939,0,0,0-2.325,2.128A5.79,5.79,0,0,0,406.793,133.464Z" transform="translate(-403.224 -130.111)" fill="#fe5694"/>
                </g>
                <g id="Group_1204945" data-name="Group 1204945" transform="translate(0 5.562)">
                  <path id="Path_1328856" data-name="Path 1328856" d="M408.836,132.948a5.816,5.816,0,0,1-5.5,1.543,2.9,2.9,0,0,0-.108.321,5.81,5.81,0,0,0,7.138,0A2.942,2.942,0,0,0,408.836,132.948Z" transform="translate(-403.224 -132.948)" fill="#fd3581"/>
                </g>
                <g id="Group_1204946" data-name="Group 1204946" transform="translate(0.733)">
                  <circle id="Ellipse_12612" data-name="Ellipse 12612" cx="2.836" cy="2.836" r="2.836" fill="#d78878"/>
                </g>
                <g id="Group_1204947" data-name="Group 1204947" transform="translate(1.112 0.029)">
                  <path id="Path_1328857" data-name="Path 1328857" d="M418.072,73.309a2.835,2.835,0,0,1-2.457,4.251,2.855,2.855,0,0,1-.4-.029,2.835,2.835,0,1,0,2.86-4.222Z" transform="translate(-415.212 -73.309)" fill="#c96e59"/>
                </g>
              </g>
            </g>
            <g id="Group_1204958" data-name="Group 1204958" transform="translate(0 28.287)">
              <g id="Group_1204950" data-name="Group 1204950">
                <circle id="Ellipse_12613" data-name="Ellipse 12613" cx="5.817" cy="5.817" r="5.817" fill="#0593fc"/>
              </g>
              <g id="Group_1204951" data-name="Group 1204951">
                <circle id="Ellipse_12614" data-name="Ellipse 12614" cx="5.817" cy="5.817" r="5.817" fill="#0593fc"/>
              </g>
              <g id="Group_1204952" data-name="Group 1204952" transform="translate(1.667 0.373)">
                <path id="Path_1328858" data-name="Path 1328858" d="M31.79,349.771a5.816,5.816,0,0,1-6.2,9.519,5.816,5.816,0,1,0,6.2-9.519Z" transform="translate(-25.59 -349.771)" fill="#0182fc"/>
              </g>
              <g id="Group_1204957" data-name="Group 1204957" transform="translate(2.248 2.981)">
                <g id="Group_1204953" data-name="Group 1204953" transform="translate(0 5.299)">
                  <path id="Path_1328859" data-name="Path 1328859" d="M35.412,438.348a5.79,5.79,0,0,0,3.569-1.225,2.939,2.939,0,0,0-2.325-2.128,2.751,2.751,0,0,1-2.487,0,2.939,2.939,0,0,0-2.325,2.128A5.789,5.789,0,0,0,35.412,438.348Z" transform="translate(-31.843 -434.995)" fill="#ffd15b"/>
                </g>
                <g id="Group_1204954" data-name="Group 1204954" transform="translate(0 5.559)">
                  <path id="Path_1328860" data-name="Path 1328860" d="M37.447,437.791a5.813,5.813,0,0,1-5.5,1.562,2.911,2.911,0,0,0-.1.307,5.81,5.81,0,0,0,7.138,0A2.942,2.942,0,0,0,37.447,437.791Z" transform="translate(-31.843 -437.791)" fill="#ffc344"/>
                </g>
                <g id="Group_1204955" data-name="Group 1204955" transform="translate(0.733)">
                  <circle id="Ellipse_12615" data-name="Ellipse 12615" cx="2.836" cy="2.836" r="2.836" fill="#ffdfcf"/>
                </g>
                <g id="Group_1204956" data-name="Group 1204956" transform="translate(1.123 0.02)">
                  <path id="Path_1328861" data-name="Path 1328861" d="M46.731,378.1a2.835,2.835,0,0,1-2.446,4.27,2.86,2.86,0,0,1-.335-.02,2.835,2.835,0,1,0,2.781-4.25Z" transform="translate(-43.95 -378.1)" fill="#ffcebf"/>
                </g>
              </g>
            </g>
          </g>
          <g id="Group_1204962" data-name="Group 1204962" transform="translate(14.792 7.619)">
            <g id="Group_1204960" data-name="Group 1204960" transform="translate(0 0)">
              <path id="Path_1328862" data-name="Path 1328862" d="M180.79,89.62H169.815a2.765,2.765,0,0,0,0,5.531h3.774a.386.386,0,0,1,.27.11l1.173,1.15a.386.386,0,0,0,.541,0l1.173-1.15a.386.386,0,0,1,.27-.11h3.774a2.765,2.765,0,0,0,0-5.531Z" transform="translate(-167.05 -89.62)" fill="#00f2a6"/>
            </g>
            <g id="Group_1204961" data-name="Group 1204961" transform="translate(0.028)">
              <path id="Path_1328863" data-name="Path 1328863" d="M181.062,89.62h-.041a2.764,2.764,0,0,1-2.738,3.154H167.349a2.765,2.765,0,0,0,2.738,2.377h3.774a.386.386,0,0,1,.27.11l1.173,1.15a.386.386,0,0,0,.541,0l1.173-1.15a.386.386,0,0,1,.27-.11h3.774a2.765,2.765,0,0,0,0-5.531Z" transform="translate(-167.349 -89.62)" fill="#05e39c"/>
            </g>
          </g>
        </g>
      </g>
      <g id="Group_1204965" data-name="Group 1204965" transform="translate(0.119)">
        <path id="Path_1328864" data-name="Path 1328864" d="M214.766,30.75a.7.7,0,1,0,0-1.392h-7.844a.7.7,0,1,0,0,1.392Z" transform="translate(-187.103 -26.634)"/>
        <path id="Path_1328865" data-name="Path 1328865" d="M226.55,456.5a.7.7,0,1,0,0,1.392h4.2a.7.7,0,1,0,0-1.392Z" transform="translate(-204.91 -414.146)"/>
        <path id="Path_1328866" data-name="Path 1328866" d="M149.2,202.423a.7.7,0,1,0,0,1.392h1.35a2.322,2.322,0,0,0,1.587,1.587v1.35a.7.7,0,0,0,1.392,0v-1.26H155.9v1.26a.7.7,0,1,0,1.392,0v-1.26h2.372v1.26a.7.7,0,0,0,1.392,0v-1.26h2.372v1.26a.7.7,0,0,0,1.392,0V205.4a2.322,2.322,0,0,0,1.587-1.587h1.35a.7.7,0,0,0,0-1.392h-1.26v-2.372h1.26a.7.7,0,0,0,0-1.392h-1.26v-2.372h1.26a.7.7,0,0,0,0-1.392h-1.26v-2.372h1.26a.7.7,0,0,0,0-1.392H166.4a2.322,2.322,0,0,0-1.587-1.587V188.2a.7.7,0,1,0-1.392,0v1.26h-2.372V188.2a.7.7,0,0,0-1.392,0v1.26h-2.372V188.2a.7.7,0,1,0-1.392,0v1.26h-2.372V188.2a.7.7,0,1,0-1.392,0v1.35a2.322,2.322,0,0,0-1.587,1.587H149.2a.7.7,0,1,0,0,1.392h1.26V194.9H149.2a.7.7,0,1,0,0,1.392h1.26v2.372H149.2a.7.7,0,1,0,0,1.392h1.26v2.372H149.2Zm2.652-10.654a.922.922,0,0,1,.921-.922h11.409a.922.922,0,0,1,.921.922v11.409a.922.922,0,0,1-.921.922H152.769a.922.922,0,0,1-.921-.922Z" transform="translate(-134.733 -170.104)"/>
        <path id="Path_1328867" data-name="Path 1328867" d="M206.6,260.013a.7.7,0,0,0,.9-.4l.444-1.165h3l.439,1.163a.7.7,0,1,0,1.3-.491l-2.444-6.477-.007-.019a.842.842,0,0,0-.781-.523h0a.842.842,0,0,0-.781.525l-.006.016-2.467,6.477A.7.7,0,0,0,206.6,260.013Zm2.85-5.528.969,2.568h-1.948Z" transform="translate(-187.035 -228.708)"/>
        <path id="Path_1328868" data-name="Path 1328868" d="M286.7,260.059a.7.7,0,0,0,.7-.7v-6.569a.7.7,0,1,0-1.392,0v6.569A.7.7,0,0,0,286.7,260.059Z" transform="translate(-259.482 -228.708)"/>
        <path id="Path_1328869" data-name="Path 1328869" d="M137.674,3.1a6.472,6.472,0,0,0-3.431.981A4.878,4.878,0,0,0,129.437,0H111.453a4.877,4.877,0,0,0-4.871,4.871V8.907a.7.7,0,0,0,1.392,0V4.871a3.483,3.483,0,0,1,3.479-3.479h17.984a3.483,3.483,0,0,1,3.479,3.479v.3a6.5,6.5,0,0,0,0,8.882V35.442a.7.7,0,1,0,1.392,0V20.574h1.974a2.09,2.09,0,0,0,2.088-2.088v-2.4a6.512,6.512,0,0,0-.7-12.987Zm-.7,15.391a.7.7,0,0,1-.7.7h-1.974v-4a6.466,6.466,0,0,0,2.67.9Zm.7-3.758a5.089,5.089,0,0,1-2.725-.789,2.269,2.269,0,0,1,1.3-1.1,3.519,3.519,0,0,0,2.857,0,2.267,2.267,0,0,1,1.3,1.1A5.088,5.088,0,0,1,137.674,14.729Zm-2.14-5.121a2.14,2.14,0,1,1,2.14,2.14,2.142,2.142,0,0,1-2.14-2.14Zm5.947,3.42a3.6,3.6,0,0,0-1.123-1.129,3.531,3.531,0,1,0-5.368,0,3.612,3.612,0,0,0-1.123,1.129,5.121,5.121,0,1,1,7.615,0Z" transform="translate(-96.704)"/>
        <path id="Path_1328870" data-name="Path 1328870" d="M159.55,85.581a3.465,3.465,0,0,0,3.461,3.461h3.648l1.082,1.061a1.088,1.088,0,0,0,1.515,0l1.082-1.061h3.648a3.461,3.461,0,1,0,0-6.922H163.011A3.465,3.465,0,0,0,159.55,85.581Zm16.506,0a2.072,2.072,0,0,1-2.07,2.07h-3.774a1.076,1.076,0,0,0-.757.309l-.956.937-.956-.937a1.076,1.076,0,0,0-.757-.309h-3.774a2.07,2.07,0,1,1,0-4.139h10.975A2.072,2.072,0,0,1,176.056,85.581Z" transform="translate(-144.758 -74.501)"/>
        <path id="Path_1328871" data-name="Path 1328871" d="M292.542,113.317h1.293a.7.7,0,1,0,0-1.392h-1.293a.7.7,0,1,0,0,1.392Z" transform="translate(-264.779 -101.541)"/>
        <path id="Path_1328872" data-name="Path 1328872" d="M191.218,112.621a.7.7,0,0,0,.7.7h6.706a.7.7,0,1,0,0-1.392h-6.706A.7.7,0,0,0,191.218,112.621Z" transform="translate(-173.488 -101.541)"/>
        <path id="Path_1328873" data-name="Path 1328873" d="M37.027,150.035a.7.7,0,0,0-.7.7v3.943a3.483,3.483,0,0,1-3.479,3.479H14.868a3.483,3.483,0,0,1-3.479-3.479v-.3a6.5,6.5,0,0,0,0-8.882V124.2a.7.7,0,0,0-1.392,0v14.775H8.023a2.09,2.09,0,0,0-2.088,2.088v2.4a6.512,6.512,0,1,0,4.127,12.006,4.878,4.878,0,0,0,4.805,4.076H32.852a4.877,4.877,0,0,0,4.871-4.871v-3.943A.7.7,0,0,0,37.027,150.035Zm-29.7-8.976a.7.7,0,0,1,.7-.7H10v4a6.466,6.466,0,0,0-2.67-.9Zm-.7,14a5.088,5.088,0,0,1-2.725-.789,2.269,2.269,0,0,1,1.3-1.1,3.519,3.519,0,0,0,2.857,0,2.268,2.268,0,0,1,1.3,1.1,5.089,5.089,0,0,1-2.725.789Zm-2.14-5.121a2.14,2.14,0,1,1,2.14,2.14,2.142,2.142,0,0,1-2.14-2.14Zm4.824,2.291a3.531,3.531,0,1,0-5.368,0,3.611,3.611,0,0,0-1.123,1.129,5.121,5.121,0,1,1,7.614,0,3.6,3.6,0,0,0-1.123-1.129Z" transform="translate(-0.119 -112.042)"/>
      </g>
    </g>
  </g>
</svg>
