<svg xmlns="http://www.w3.org/2000/svg" xmlns:xlink="http://www.w3.org/1999/xlink" width="118" height="118" viewBox="0 0 118 118">
  <defs>
    <filter id="Rectangle_411831" x="0" y="0" width="118" height="118" filterUnits="userSpaceOnUse">
      <feOffset dy="3" input="SourceAlpha"/>
      <feGaussianBlur stdDeviation="3" result="blur"/>
      <feFlood flood-opacity="0.161"/>
      <feComposite operator="in" in2="blur"/>
      <feComposite in="SourceGraphic"/>
    </filter>
  </defs>
  <g id="Group_1204901" data-name="Group 1204901" transform="translate(-792.051 -4679)">
    <g id="Group_1204661" data-name="Group 1204661" transform="translate(465.27 827)">
      <g transform="matrix(1, 0, 0, 1, 326.78, 3852)" filter="url(#Rectangle_411831)">
        <g id="Rectangle_411831-2" data-name="Rectangle 411831" transform="translate(9 6)" fill="#37f1e9" stroke="#fff" stroke-width="2">
          <path d="M5,0H68a32,32,0,0,1,32,32V95a5,5,0,0,1-5,5H32A32,32,0,0,1,0,68V5A5,5,0,0,1,5,0Z" stroke="none"/>
          <path d="M5,1H68A31,31,0,0,1,99,32V95a4,4,0,0,1-4,4H32A31,31,0,0,1,1,68V5A4,4,0,0,1,5,1Z" fill="none"/>
        </g>
      </g>
    </g>
    <g id="s2" transform="translate(804.051 4674)">
      <path id="Path_1328728" data-name="Path 1328728" d="M202.534,149.148h-5.148V144h-8.237v5.148H184v8.237h5.148v5.148h8.237v-5.148h5.148Z" transform="translate(-146.377 -97.585)" fill="#25b1fa"/>
      <rect id="Rectangle_425543" data-name="Rectangle 425543" width="59.586" height="46.997" rx="10" transform="translate(16.839 33.432)" fill="#fafdff"/>
      <path id="Path_1328729" data-name="Path 1328729" d="M25.287,40H82.433a1.287,1.287,0,0,1,1.287,1.287v4.891H24V41.287A1.287,1.287,0,0,1,25.287,40Z" transform="translate(-6.97 -6.97)" fill="#25b1fa"/>
      <path id="Path_1328730" data-name="Path 1328730" d="M24,344H83.72v6.95a1.287,1.287,0,0,1-1.287,1.287H25.287A1.287,1.287,0,0,1,24,350.95Z" transform="translate(-6.97 -271.843)" fill="#25b1fa"/>
      <path id="Path_1328731" data-name="Path 1328731" d="M182.952,412.562l-.9-.3A5.148,5.148,0,0,1,178.571,408H166.141a5.148,5.148,0,0,1-3.483,4.262l-.9.3A2.574,2.574,0,0,0,160,415v1.234h24.712V415a2.574,2.574,0,0,0-1.76-2.442Z" transform="translate(-125.466 -327.606)" fill="#25b1fa"/>
      <g id="Group_1204900" data-name="Group 1204900" transform="translate(23.553 44.342)">
        <path id="Path_1328732" data-name="Path 1328732" d="M202.534,149.148h-5.148V144h-8.237v5.148H184v8.237h5.148v5.148h8.237v-5.148h5.148Z" transform="translate(-169.93 -141.927)" fill="#80daff"/>
        <circle id="Ellipse_12583" data-name="Ellipse 12583" cx="2.937" cy="2.937" r="2.937" transform="translate(41.123 16.785)" fill="#80daff"/>
        <circle id="Ellipse_12584" data-name="Ellipse 12584" cx="2.937" cy="2.937" r="2.937" transform="translate(0 16.785)" fill="#80daff"/>
        <circle id="Ellipse_12585" data-name="Ellipse 12585" cx="2.937" cy="2.937" r="2.937" transform="translate(41.123 0)" fill="#80daff"/>
        <circle id="Ellipse_12586" data-name="Ellipse 12586" cx="2.937" cy="2.937" r="2.937" transform="translate(0 0)" fill="#80daff"/>
      </g>
      <path id="Path_1328733" data-name="Path 1328733" d="M448,56h2.059v2.059H448Z" transform="translate(-376.398 -20.911)"/>
      <path id="Path_1328734" data-name="Path 1328734" d="M77.78,57.742V34.317A2.319,2.319,0,0,0,75.463,32H28.356v2.059H75.463a.257.257,0,0,1,.257.257v3.861H18.059V34.317a.257.257,0,0,1,.257-.257H26.3V32h-7.98A2.319,2.319,0,0,0,16,34.317v44.79a2.319,2.319,0,0,0,2.317,2.317H39.335a4.139,4.139,0,0,1-2.469,2.256l-.9.3A3.6,3.6,0,0,0,33.5,87.4v1.234a1.03,1.03,0,0,0,1.03,1.03H59.246a1.03,1.03,0,0,0,1.03-1.03V87.4a3.6,3.6,0,0,0-2.464-3.419l-.9-.3a4.139,4.139,0,0,1-2.469-2.256H75.463a2.319,2.319,0,0,0,2.317-2.317V59.8H75.72V71.127H18.059V40.237H75.72v17.5ZM56.263,85.633l.9.3A1.543,1.543,0,0,1,58.216,87.4v.2H35.564v-.2a1.543,1.543,0,0,1,1.056-1.465l.9-.3a6.21,6.21,0,0,0,4-4.21H52.263a6.21,6.21,0,0,0,4,4.21ZM75.72,73.187v5.921a.257.257,0,0,1-.257.257H18.317a.257.257,0,0,1-.257-.257V73.187Z"/>
      <path id="Path_1328735" data-name="Path 1328735" d="M232,368h6.178v2.059H232Z" transform="translate(-188.199 -292.754)"/>
      <path id="Path_1328736" data-name="Path 1328736" d="M48,56h2.059v2.059H48Z" transform="translate(-27.881 -20.911)"/>
      <path id="Path_1328737" data-name="Path 1328737" d="M80,56h2.059v2.059H80Z" transform="translate(-55.763 -20.911)"/>
      <path id="Path_1328738" data-name="Path 1328738" d="M112,56h2.059v2.059H112Z" transform="translate(-83.644 -20.911)"/>
      <path id="Path_1328739" data-name="Path 1328739" d="M416,56h2.059v2.059H416Z" transform="translate(-348.517 -20.911)"/>
      <path id="Path_1328740" data-name="Path 1328740" d="M182.178,156.593h8.237a1.03,1.03,0,0,0,1.03-1.03v-4.119h4.119a1.03,1.03,0,0,0,1.03-1.03v-8.237a1.03,1.03,0,0,0-1.03-1.03h-4.119V137.03a1.03,1.03,0,0,0-1.03-1.03h-8.237a1.03,1.03,0,0,0-1.03,1.03v4.119H177.03a1.03,1.03,0,0,0-1.03,1.03v8.237a1.03,1.03,0,0,0,1.03,1.03h4.119v4.119A1.03,1.03,0,0,0,182.178,156.593Zm-4.119-7.208v-6.178h4.119a1.03,1.03,0,0,0,1.03-1.03v-4.119h6.178v4.119a1.03,1.03,0,0,0,1.03,1.03h4.119v6.178h-4.119a1.03,1.03,0,0,0-1.03,1.03v4.119h-6.178v-4.119a1.03,1.03,0,0,0-1.03-1.03Z" transform="translate(-139.407 -90.614)"/>
      <path id="Path_1328741" data-name="Path 1328741" d="M358.033,256.235a4.119,4.119,0,1,0-3.259-6.634l-4.652-1.551L349.47,250l4.49,1.5a4.12,4.12,0,0,0,4.073,4.734Zm0-6.178a2.059,2.059,0,1,1-2.059,2.059A2.059,2.059,0,0,1,358.033,250.057Z" transform="translate(-290.55 -188.197)"/>
      <path id="Path_1328742" data-name="Path 1328742" d="M76.262,248.147,71.609,249.7a4.1,4.1,0,1,0,.813,1.9l4.49-1.5Zm-7.912,6.125a2.059,2.059,0,1,1,2.059-2.059A2.059,2.059,0,0,1,68.35,254.272Z" transform="translate(-42.053 -188.293)"/>
      <path id="Path_1328743" data-name="Path 1328743" d="M358.033,120a4.12,4.12,0,0,0-4.073,4.734l-4.49,1.5.651,1.954,4.652-1.551A4.118,4.118,0,1,0,358.033,120Zm0,6.178a2.059,2.059,0,1,1,2.059-2.059,2.059,2.059,0,0,1-2.059,2.059Z" transform="translate(-290.55 -76.674)"/>
      <path id="Path_1328744" data-name="Path 1328744" d="M72.107,124.641a4.125,4.125,0,1,0-.813,1.9l4.652,1.551.651-1.954Zm-4.073,1.444a2.059,2.059,0,1,1,2.059-2.059A2.059,2.059,0,0,1,68.034,126.085Z" transform="translate(-41.737 -76.58)"/>
    </g>
  </g>
</svg>
