<svg xmlns="http://www.w3.org/2000/svg" xmlns:xlink="http://www.w3.org/1999/xlink" width="118" height="118" viewBox="0 0 118 118">
  <defs>
    <filter id="Rectangle_411831" x="0" y="0" width="118" height="118" filterUnits="userSpaceOnUse">
      <feOffset dy="3" input="SourceAlpha"/>
      <feGaussianBlur stdDeviation="3" result="blur"/>
      <feFlood flood-opacity="0.161"/>
      <feComposite operator="in" in2="blur"/>
      <feComposite in="SourceGraphic"/>
    </filter>
  </defs>
  <g id="Group_1204907" data-name="Group 1204907" transform="translate(6749.27 6929.35)">
    <g id="Group_1204663" data-name="Group 1204663" transform="translate(-7076.051 -10781.35)">
      <g transform="matrix(1, 0, 0, 1, 326.78, 3852)" filter="url(#Rectangle_411831)">
        <g id="Rectangle_411831-2" data-name="Rectangle 411831" transform="translate(9 6)" fill="#37f1e9" stroke="#fff" stroke-width="2">
          <path d="M5,0H68a32,32,0,0,1,32,32V95a5,5,0,0,1-5,5H32A32,32,0,0,1,0,68V5A5,5,0,0,1,5,0Z" stroke="none"/>
          <path d="M5,1H68A31,31,0,0,1,99,32V95a4,4,0,0,1-4,4H32A31,31,0,0,1,1,68V5A4,4,0,0,1,5,1Z" fill="none"/>
        </g>
      </g>
    </g>
    <g id="buscar" transform="translate(-6746.745 -6913.047)">
      <g id="Group_1204906" data-name="Group 1204906" transform="translate(29.441 9.87)">
        <g id="Group_1204904" data-name="Group 1204904" transform="translate(0 0)">
          <path id="Path_1328772" data-name="Path 1328772" d="M101.056,16H128.1a1.8,1.8,0,0,1,1.318.546l6.6,6.6a1.8,1.8,0,0,1,.546,1.318V63.33H99.192V17.864A1.868,1.868,0,0,1,101.056,16Z" transform="translate(-91.285 -16)" fill="#f4f6f8" fill-rule="evenodd"/>
          <path id="Path_1328773" data-name="Path 1328773" d="M338.013,17.3v5.67a1.868,1.868,0,0,0,1.864,1.864h5.67a1.866,1.866,0,0,0-.384-.546l-6.6-6.6A1.87,1.87,0,0,0,338.013,17.3Z" transform="translate(-300.426 -17.138)" fill="#cad0d7" fill-rule="evenodd"/>
          <path id="Path_1328774" data-name="Path 1328774" d="M81.712,207.944a5.076,5.076,0,0,0,5.076-5.076v-25.3a5.076,5.076,0,0,0-5.076-5.076H55.419L50.3,167.064H40.481a4.908,4.908,0,0,0-4.908,4.908v30.9a5.076,5.076,0,0,0,5.076,5.076Z" transform="translate(-35.573 -148.29)" fill="#fdcd56" fill-rule="evenodd"/>
        </g>
        <g id="Group_1204905" data-name="Group 1204905" transform="translate(11.291 5.123)">
          <path id="Path_1328775" data-name="Path 1328775" d="M0,0H7.275V4.156H0Z" transform="translate(12.295 34.41) rotate(-45)" fill="#a9b0bb" fill-rule="evenodd"/>
          <path id="Path_1328776" data-name="Path 1328776" d="M142.245,327.789,140,325.543a1.913,1.913,0,0,0-2.7,0l-10.319,10.319a1.913,1.913,0,0,0,0,2.7l2.246,2.246a1.913,1.913,0,0,0,2.7,0l10.319-10.319A1.913,1.913,0,0,0,142.245,327.789Z" transform="translate(-126.427 -291.709)" fill="#636c77" fill-rule="evenodd"/>
          <circle id="Ellipse_12587" data-name="Ellipse 12587" cx="14.871" cy="14.871" r="14.871" transform="translate(7.592 21.027) rotate(-45)" fill="#e4e8eb"/>
          <circle id="Ellipse_12588" data-name="Ellipse 12588" cx="10.742" cy="10.742" r="10.742" transform="translate(14.101 16.624) rotate(-28.153)" fill="#f4f6f8"/>
        </g>
      </g>
      <path id="Path_1328777" data-name="Path 1328777" d="M52.053,25.578H43.99a.87.87,0,1,1,0-1.74h8.062a.87.87,0,0,1,0,1.74ZM43.12,20.024a.87.87,0,0,1,.87-.87H56.946a.87.87,0,0,1,0,1.74H43.99A.87.87,0,0,1,43.12,20.024Zm0-4.684a.87.87,0,0,1,.87-.87H62.212a.87.87,0,1,1,0,1.74H43.99A.87.87,0,0,1,43.12,15.34ZM75.58,68.655H34.518a4.211,4.211,0,0,1-4.207-4.206v-30.9a4.043,4.043,0,0,1,4.039-4.038h9.44l4.864,5.153a.869.869,0,0,0,.632.273h4.37q-.037.534-.037,1.078a15.651,15.651,0,0,0,2.727,8.846L53.705,47.5a2.767,2.767,0,0,0-2.712.707L40.674,58.531a2.785,2.785,0,0,0,0,3.928L42.919,64.7a2.783,2.783,0,0,0,3.929,0l10.319-10.32a2.782,2.782,0,0,0,.707-2.712l2.641-2.641A15.711,15.711,0,0,0,79.786,47.8V64.449A4.211,4.211,0,0,1,75.58,68.655ZM38.218,10.74V27.774h5.948a.867.867,0,0,1,.632.273L49.663,33.2h4.209A15.744,15.744,0,0,1,73.855,20.932v-2.5H67.028a.87.87,0,0,1-.87-.87V10.74ZM67.9,11.97,72.625,16.7H67.9Zm-11,38.219,2.223-2.225a15.811,15.811,0,0,1-1.708-1.709L55.189,48.48Zm-3.208-.747a1.042,1.042,0,0,0-1.467,0L41.9,59.761a1.046,1.046,0,0,0,0,1.468l2.246,2.246a1.04,1.04,0,0,0,1.468,0l10.319-10.32a1.045,1.045,0,0,0,0-1.467ZM83.361,36.018a14,14,0,1,0-14,14A14.017,14.017,0,0,0,83.361,36.018Zm1.74,0A15.765,15.765,0,0,0,75.6,21.566v-4a.871.871,0,0,0-.255-.615l-7.7-7.7A.868.868,0,0,0,67.028,9H37.348a.871.871,0,0,0-.87.87v17.9H34.35a5.785,5.785,0,0,0-5.779,5.778v30.9a5.953,5.953,0,0,0,5.947,5.946H75.58a5.952,5.952,0,0,0,5.946-5.946V45.995A15.662,15.662,0,0,0,85.1,36.018Zm-5.277,0A10.465,10.465,0,1,0,69.36,46.483,10.476,10.476,0,0,0,79.824,36.018Zm-22.669,0a12.2,12.2,0,1,0,12.2-12.2A12.219,12.219,0,0,0,57.156,36.018Z" fill-rule="evenodd"/>
    </g>
  </g>
</svg>
