<svg xmlns="http://www.w3.org/2000/svg" xmlns:xlink="http://www.w3.org/1999/xlink" width="118" height="118" viewBox="0 0 118 118">
  <defs>
    <filter id="Rectangle_411831" x="0" y="0" width="118" height="118" filterUnits="userSpaceOnUse">
      <feOffset dy="3" input="SourceAlpha"/>
      <feGaussianBlur stdDeviation="3" result="blur"/>
      <feFlood flood-opacity="0.161"/>
      <feComposite operator="in" in2="blur"/>
      <feComposite in="SourceGraphic"/>
    </filter>
  </defs>
  <g id="Group_1204928" data-name="Group 1204928" transform="translate(-850.051 -5652)">
    <g id="Group_1204670" data-name="Group 1204670" transform="translate(523.27 1800)">
      <g transform="matrix(1, 0, 0, 1, 326.78, 3852)" filter="url(#Rectangle_411831)">
        <g id="Rectangle_411831-2" data-name="Rectangle 411831" transform="translate(9 6)" fill="#615478" stroke="#fff" stroke-width="2">
          <path d="M5,0H68a32,32,0,0,1,32,32V95a5,5,0,0,1-5,5H32A32,32,0,0,1,0,68V5A5,5,0,0,1,5,0Z" stroke="none"/>
          <path d="M5,1H68A31,31,0,0,1,99,32V95a4,4,0,0,1-4,4H32A31,31,0,0,1,1,68V5A4,4,0,0,1,5,1Z" fill="none"/>
        </g>
      </g>
    </g>
    <g id="larva-del-moscardon" transform="translate(869.726 5677.353)">
      <g id="Group_1204925" data-name="Group 1204925" transform="translate(1.343 0.898)">
        <path id="Path_1328805" data-name="Path 1328805" d="M257.576,11.091A3.591,3.591,0,0,0,253.984,7.5H227.646a3.591,3.591,0,0,0-3.592,3.591v3.562h33.521Z" transform="translate(-198.183 -7.5)" fill="#cdd9dd"/>
        <path id="Path_1328806" data-name="Path 1328806" d="M230.041,7.5h-2.394a3.591,3.591,0,0,0-3.592,3.591v3.562h2.394V11.091A3.591,3.591,0,0,1,230.041,7.5Z" transform="translate(-198.183 -7.5)" fill="#a9baca"/>
        <path id="Path_1328807" data-name="Path 1328807" d="M224.055,67.255h33.521v43.1H224.055Z" transform="translate(-198.183 -60.101)" fill="#a8e1f8"/>
        <path id="Path_1328808" data-name="Path 1328808" d="M224.055,67.255h2.394v43.1h-2.394Z" transform="translate(-198.183 -60.101)" fill="#75d2f5"/>
        <path id="Path_1328809" data-name="Path 1328809" d="M224.055,432.911a3.591,3.591,0,0,0,3.592,3.591h26.338a3.591,3.591,0,0,0,3.591-3.591v-5.656H224.055Z" transform="translate(-198.183 -377.003)" fill="#cdd9dd"/>
        <path id="Path_1328810" data-name="Path 1328810" d="M28.2,61.006h6.9a4.015,4.015,0,0,0,3.968-4.06V42.06A4.015,4.015,0,0,0,35.1,38H11.913a4.015,4.015,0,0,0-3.968,4.06V56.946a4.015,4.015,0,0,0,3.968,4.06h7.706L28.2,66.42V61.006Z" transform="translate(-7.945 -34.349)" fill="#8ae897"/>
        <g id="Group_1204923" data-name="Group 1204923" transform="translate(30.291 14.686)">
          <path id="Path_1328811" data-name="Path 1328811" d="M280.333,330.522h0a8.04,8.04,0,0,0-1.555-2.011h-10.94a8.041,8.041,0,0,0-1.555,2.011h0a6.305,6.305,0,0,0-5.314,6.226v3.583h24.683v-3.583A6.3,6.3,0,0,0,280.333,330.522Z" transform="translate(-260.964 -304.766)" fill="#fff"/>
          <path id="Path_1328812" data-name="Path 1328812" d="M307.224,223.682h-9.577a3.591,3.591,0,0,1-3.591-3.591v-7.073a3.591,3.591,0,0,1,3.591-3.591h9.577a3.591,3.591,0,0,1,3.592,3.591v7.073A3.592,3.592,0,0,1,307.224,223.682Z" transform="translate(-290.093 -199.938)" fill="#fff"/>
          <g id="Group_1204922" data-name="Group 1204922" transform="translate(0.37 13.08)">
            <path id="Path_1328813" data-name="Path 1328813" d="M267.646,246.5h-.055a3.537,3.537,0,0,1,0-7.074h.055Z" transform="translate(-264.055 -239.425)" fill="#8ae897"/>
            <path id="Path_1328814" data-name="Path 1328814" d="M434.055,239.426h.055a3.537,3.537,0,1,1,0,7.074h-.055Z" transform="translate(-413.703 -239.426)" fill="#8ae897"/>
          </g>
          <circle id="Ellipse_12602" data-name="Ellipse 12602" cx="1.796" cy="1.796" r="1.796" transform="translate(10.546)" fill="#8ae897"/>
          <path id="Path_1328815" data-name="Path 1328815" d="M297.048,220.091v-7.073a3.592,3.592,0,0,1,3.592-3.591h-2.993a3.591,3.591,0,0,0-3.591,3.591v7.073a3.591,3.591,0,0,0,3.591,3.591h2.993A3.592,3.592,0,0,1,297.048,220.091Z" transform="translate(-290.093 -199.938)" fill="#e3e9ee"/>
        </g>
        <path id="Path_1328816" data-name="Path 1328816" d="M226.449,432.911v-5.656h-2.394v5.656a3.591,3.591,0,0,0,3.592,3.591h2.394A3.591,3.591,0,0,1,226.449,432.911Z" transform="translate(-198.183 -377.003)" fill="#a9baca"/>
        <path id="Path_1328817" data-name="Path 1328817" d="M10.339,56.946V42.06A4.015,4.015,0,0,1,14.307,38H11.913a4.015,4.015,0,0,0-3.968,4.06V56.946a4.015,4.015,0,0,0,3.968,4.06h2.394A4.015,4.015,0,0,1,10.339,56.946Z" transform="translate(-7.945 -34.349)" fill="#54e072"/>
        <g id="Group_1204924" data-name="Group 1204924" transform="translate(30.291 38.43)">
          <path id="Path_1328818" data-name="Path 1328818" d="M265.307,349.134a7.953,7.953,0,0,1,.975-3.824h0a6.305,6.305,0,0,0-5.314,6.226v3.583h4.342Z" transform="translate(-260.965 -343.299)" fill="#e3e9ee"/>
          <path id="Path_1328819" data-name="Path 1328819" d="M302.753,328.511H299.76a7.976,7.976,0,0,0-2.53,5.835v5.986h2.993v-5.987A7.976,7.976,0,0,1,302.753,328.511Z" transform="translate(-292.888 -328.511)" fill="#e3e9ee"/>
        </g>
      </g>
      <g id="Group_1204926" data-name="Group 1204926" transform="translate(0.445)">
        <path id="Path_1328820" data-name="Path 1328820" d="M57.144,0H30.806A4.5,4.5,0,0,0,26.4,3.651H9.124v1.8H28.5a3.12,3.12,0,0,1,3.07,3.162V23.5a3.12,3.12,0,0,1-3.07,3.162H20.7v4.683l-7.423-4.683H5.31A3.12,3.12,0,0,1,2.241,23.5V8.609A3.12,3.12,0,0,1,5.31,5.447H7.329v-1.8H5.31A4.918,4.918,0,0,0,.445,8.609V23.5A4.918,4.918,0,0,0,5.31,28.453h7.447L22.494,34.6V28.453h3.823V56.805a4.494,4.494,0,0,0,4.489,4.489H52.746V59.5H30.806a2.7,2.7,0,0,1-2.694-2.694V52.047H59.838v4.758A2.7,2.7,0,0,1,57.144,59.5h-2.6v1.8h2.6a4.494,4.494,0,0,0,4.489-4.489V4.489A4.494,4.494,0,0,0,57.144,0ZM28.5,3.651h-.255A2.7,2.7,0,0,1,30.806,1.8H57.144a2.7,2.7,0,0,1,2.694,2.694V7.154H33.153a4.886,4.886,0,0,0-4.651-3.5ZM43.077,17.379a.9.9,0,1,1,.9.9A.9.9,0,0,1,43.077,17.379Zm5.687,8.59a2.7,2.7,0,0,1,2.694,2.694v7.073a2.7,2.7,0,0,1-2.694,2.694H39.186a2.7,2.7,0,0,1-2.694-2.694V28.663a2.7,2.7,0,0,1,2.694-2.694Zm6.655,24.281H52.873V45.163a8.852,8.852,0,0,0-.33-2.382,5.377,5.377,0,0,1,2.876,4.784ZM49.078,40.226a7.026,7.026,0,0,1,2,4.937v5.088h-14.2V45.163a7.026,7.026,0,0,1,2-4.937Zm-14,4.937v5.088H32.531V47.566a5.377,5.377,0,0,1,2.876-4.784,8.848,8.848,0,0,0-.33,2.382Zm22.137,5.089V47.566a7.238,7.238,0,0,0-5.648-7.032,8.925,8.925,0,0,0-.611-.882,4.5,4.5,0,0,0,2.219-3.085,4.438,4.438,0,0,0,0-8.734,4.5,4.5,0,0,0-4.411-3.659H44.873V19.918a2.693,2.693,0,1,0-1.8,0v4.255H39.186a4.5,4.5,0,0,0-4.411,3.659,4.438,4.438,0,0,0,0,8.734,4.5,4.5,0,0,0,2.219,3.085,8.91,8.91,0,0,0-.611.882,7.238,7.238,0,0,0-5.648,7.032v2.686H28.113v-21.8A4.942,4.942,0,0,0,33.367,23.5V8.95H59.838v41.3H57.215ZM55.049,32.2a2.643,2.643,0,0,1-1.8,2.5v-5a2.643,2.643,0,0,1,1.8,2.5ZM32.9,32.2a2.643,2.643,0,0,1,1.8-2.5v5A2.643,2.643,0,0,1,32.9,32.2Z" transform="translate(-0.445)"/>
        <path id="Path_1328821" data-name="Path 1328821" d="M319.282,458.377h10.774v1.8H319.282Z" transform="translate(-281.112 -403.502)"/>
        <path id="Path_1328822" data-name="Path 1328822" d="M319.282,29.877h10.774v1.8H319.282Z" transform="translate(-281.112 -26.3)"/>
        <path id="Path_1328823" data-name="Path 1328823" d="M319.555,242.964h1.8v5.986h-1.8Z" transform="translate(-281.352 -213.877)"/>
        <path id="Path_1328824" data-name="Path 1328824" d="M393.555,242.964h1.8v5.986h-1.8Z" transform="translate(-346.493 -213.877)"/>
        <path id="Path_1328825" data-name="Path 1328825" d="M117.945,79.2h11.972v1.8H117.945Z" transform="translate(-103.878 -69.715)"/>
        <path id="Path_1328826" data-name="Path 1328826" d="M106.855,109.2h13.3V111h-13.3Z" transform="translate(-94.116 -96.127)"/>
        <path id="Path_1328827" data-name="Path 1328827" d="M57.945,109.2H62V111h-4.06Z" transform="translate(-51.061 -96.127)"/>
        <path id="Path_1328828" data-name="Path 1328828" d="M57.945,169.2h7.183v1.8H57.945Z" transform="translate(-51.061 -148.94)"/>
        <path id="Path_1328829" data-name="Path 1328829" d="M170.425,139.2h5.689V141h-5.689Z" transform="translate(-150.076 -122.535)"/>
        <path id="Path_1328830" data-name="Path 1328830" d="M57.945,139.2h11.67V141H57.945Z" transform="translate(-51.061 -122.535)"/>
      </g>
      <g id="Group_1204927" data-name="Group 1204927" transform="translate(37.091 16.481)">
        <path id="Path_1328831" data-name="Path 1328831" d="M406.555,137.67h1.8v1.8h-1.8Z" transform="translate(-394.583 -137.67)" fill="#fff"/>
        <path id="Path_1328832" data-name="Path 1328832" d="M306.555,137.67h1.8v1.8h-1.8Z" transform="translate(-306.555 -137.67)" fill="#fff"/>
      </g>
    </g>
  </g>
</svg>
