<svg xmlns="http://www.w3.org/2000/svg" width="190" height="107" viewBox="0 0 190 107">
  <g id="Group_1204933" data-name="Group 1204933" transform="translate(-1230.051 -11402)">
    <rect id="Rectangle_425208" data-name="Rectangle 425208" width="190" height="107" transform="translate(1230.051 11402)" fill="#ff9800"/>
    <g id="asistente-de-ai" transform="translate(1285.056 11405.207)">
      <g id="Group_1204930" data-name="Group 1204930" transform="translate(1.219 8.166)">
        <path id="Path_1328833" data-name="Path 1328833" d="M69.278,356.43H11.716A4.213,4.213,0,0,1,7.5,352.217V339.165a9.808,9.808,0,0,1,9.808-9.808H59.47a9.808,9.808,0,0,1,9.808,9.808V356.43Z" transform="translate(-7.503 -278.177)" fill="#fee97d"/>
        <path id="Path_1328834" data-name="Path 1328834" d="M160.92,282.018h11.908v7.694H160.92Z" transform="translate(-135.986 -238.531)" fill="#ffe5c2"/>
        <path id="Path_1328835" data-name="Path 1328835" d="M207.08,282.016h4.406v7.694H207.08Z" transform="translate(-174.644 -238.53)" fill="#fed2a4"/>
        <path id="Path_1328836" data-name="Path 1328836" d="M124.615,329.357,116.7,336.1a2.169,2.169,0,0,1-3.363-.715l-2.882-6.023Z" transform="translate(-93.727 -278.177)" fill="#d9b1ee"/>
        <path id="Path_1328837" data-name="Path 1328837" d="M197.553,329.357l7.91,6.738a2.169,2.169,0,0,0,3.363-.715l2.882-6.023Z" transform="translate(-166.665 -278.177)" fill="#cb97e7"/>
        <path id="Path_1328838" data-name="Path 1328838" d="M262.191,356.43H226.979L232.956,333a4.832,4.832,0,0,1,4.682-3.638H267.99a3.814,3.814,0,0,1,3.7,4.757l-4.752,18.632A4.894,4.894,0,0,1,262.191,356.43Z" transform="translate(-191.309 -278.177)" fill="#8d9ca8"/>
        <path id="Path_1328839" data-name="Path 1328839" d="M419.594,334.113l-4.752,18.632a4.894,4.894,0,0,1-4.742,3.684H403.59a4.893,4.893,0,0,0,4.742-3.684l4.752-18.632a3.814,3.814,0,0,0-3.7-4.757H415.9A3.815,3.815,0,0,1,419.594,334.113Z" transform="translate(-339.217 -278.176)" fill="#7a8c98"/>
        <path id="Path_1328840" data-name="Path 1328840" d="M138.4,463.563H124.357a3.141,3.141,0,1,1,0-6.283h15.65Z" transform="translate(-102.735 -385.309)" fill="#7a8c98"/>
        <circle id="Ellipse_12603" data-name="Ellipse 12603" cx="3.378" cy="3.378" r="3.378" transform="translate(56.296 61.531)" fill="#d8ecfe"/>
        <path id="Path_1328841" data-name="Path 1328841" d="M127.851,117.627h-20.8a5.145,5.145,0,0,1-5.145-5.145V90.87a5.145,5.145,0,0,1,5.145-5.145h20.8A5.145,5.145,0,0,1,133,90.87v21.612A5.145,5.145,0,0,1,127.851,117.627Z" transform="translate(-86.563 -74.141)" fill="#d9b1ee"/>
        <path id="Path_1328842" data-name="Path 1328842" d="M229.533,90.871v21.611a5.145,5.145,0,0,1-5.145,5.145h-7.21a5.041,5.041,0,0,0,5.073-5.145V90.871a5.041,5.041,0,0,0-5.073-5.145h7.21A5.145,5.145,0,0,1,229.533,90.871Z" transform="translate(-183.1 -74.141)" fill="#cb97e7"/>
        <g id="Group_1204929" data-name="Group 1204929" transform="translate(0 9.495)">
          <circle id="Ellipse_12604" data-name="Ellipse 12604" cx="2.509" cy="2.509" r="2.509" transform="translate(59.434 30.792)" fill="#60b7ff"/>
          <circle id="Ellipse_12605" data-name="Ellipse 12605" cx="2.509" cy="2.509" r="2.509" transform="translate(0 15.532)" fill="#60b7ff"/>
          <circle id="Ellipse_12606" data-name="Ellipse 12606" cx="2.509" cy="2.509" r="2.509" transform="translate(1.439)" fill="#60b7ff"/>
          <circle id="Ellipse_12607" data-name="Ellipse 12607" cx="2.509" cy="2.509" r="2.509" transform="translate(1.439 30.792)" fill="#60b7ff"/>
        </g>
        <path id="Path_1328843" data-name="Path 1328843" d="M356.2,14.446c-7.161,0-12.966,5.072-12.966,11.329,0,4.674,3.24,8.687,7.865,10.418l-1.08,3.151a.71.71,0,0,0,1.036.839l5.145-3.079c7.161,0,12.966-5.073,12.966-11.33S363.361,14.446,356.2,14.446Z" transform="translate(-288.669 -14.446)" fill="#d8ecfe"/>
        <path id="Path_1328844" data-name="Path 1328844" d="M403.92,25.775c0,6.257-5.805,11.329-12.968,11.329l-5.144,3.08a.71.71,0,0,1-1.037-.84l.811-2.37c6.207-.822,10.865-5.487,10.865-11.159,0-5.144-3.834-9.516-9.178-10.907a14.76,14.76,0,0,1,3.683-.463C398.115,14.446,403.92,19.518,403.92,25.775Z" transform="translate(-323.423 -14.446)" fill="#c4e2ff"/>
      </g>
      <g id="Group_1204932" data-name="Group 1204932" transform="translate(0 6.947)">
        <path id="Path_1328845" data-name="Path 1328845" d="M77.9,107.052H39.28V101.8h3.226a6.371,6.371,0,0,0,6.364-6.364v-1.61h7.244a1.133,1.133,0,0,1,.866.4l3.065,3.621a3.728,3.728,0,1,0,1.931-1.492l-3.135-3.7a3.566,3.566,0,0,0-2.727-1.265H48.871V85.846h7.516a1.219,1.219,0,1,0,0-2.438H48.871V73.821a6.371,6.371,0,0,0-6.364-6.364h-20.8a6.371,6.371,0,0,0-6.364,6.364V75.16H12.214a1.133,1.133,0,0,1-.866-.4L8.283,71.137a3.728,3.728,0,1,0-1.931,1.492l3.135,3.7A3.566,3.566,0,0,0,12.214,77.6h3.129v5.81H7.25a3.728,3.728,0,1,0,0,2.438h8.093v5.539H12.214A3.566,3.566,0,0,0,9.487,92.65l-3.135,3.7a3.735,3.735,0,1,0,1.931,1.492l3.064-3.621a1.133,1.133,0,0,1,.866-.4h3.129v1.61a6.371,6.371,0,0,0,6.364,6.364h3.227v5.256H17.952a1.229,1.229,0,0,0-1.1,1.745l2.882,6.023a3.405,3.405,0,0,0,5.253,1.117l7.12-6.065,7.12,6.064a3.369,3.369,0,0,0,1.188.652l-2.87,11.255h-14.7a4.358,4.358,0,0,0-3.913,6.282H5.433a3,3,0,0,1-3-2.994V118.08a8.6,8.6,0,0,1,8.589-8.589h1.221a1.219,1.219,0,1,0,0-2.438H11.027A11.04,11.04,0,0,0,0,118.08v13.052a5.439,5.439,0,0,0,5.433,5.432H72.1a6.109,6.109,0,0,0,5.924-4.6l4.752-18.632a5.062,5.062,0,0,0-4.877-6.277ZM64.453,99.888a1.29,1.29,0,1,1-2.58,0,1.307,1.307,0,0,1,1.29-1.29A1.292,1.292,0,0,1,64.453,99.888ZM3.877,69.1a1.29,1.29,0,0,1,2.58,0,1.307,1.307,0,0,1-1.29,1.29A1.292,1.292,0,0,1,3.877,69.1ZM3.728,85.917a1.29,1.29,0,1,1,1.29-1.29A1.292,1.292,0,0,1,3.728,85.917Zm1.439,15.261a1.29,1.29,0,0,1,0-2.58,1.307,1.307,0,0,1,1.29,1.29A1.292,1.292,0,0,1,5.167,101.178Zm12.614-5.745V73.821a3.931,3.931,0,0,1,3.926-3.926h20.8a3.931,3.931,0,0,1,3.926,3.926V95.433a3.931,3.931,0,0,1-3.926,3.926h-20.8a3.931,3.931,0,0,1-3.926-3.926Zm9.591,6.364h9.47v5.256h-9.47Zm-3.966,12.285a.955.955,0,0,1-1.473-.313l-2.047-4.278H28.8Zm12.012-4.591h7.277a6.043,6.043,0,0,0-1.01,2.118l-.666,2.609C40.945,114.182,35.418,109.49,35.418,109.49ZM20.919,132.2a1.925,1.925,0,0,1,1.922-1.922H36.923l-.981,3.845H22.837A1.924,1.924,0,0,1,20.919,132.2Zm59.5-19.476-4.752,18.632a3.673,3.673,0,0,1-3.561,2.767H38.458l5.589-21.915a3.611,3.611,0,0,1,3.5-2.72H77.9A2.61,2.61,0,0,1,80.415,112.727Z" transform="translate(0 -55.872)"/>
        <path id="Path_1328846" data-name="Path 1328846" d="M350.985,385.543a4.6,4.6,0,1,0,4.6,4.6A4.6,4.6,0,0,0,350.985,385.543Zm0,6.757a2.159,2.159,0,1,1,2.159-2.159A2.162,2.162,0,0,1,350.985,392.3Z" transform="translate(-290.092 -324.012)"/>
        <path id="Path_1328847" data-name="Path 1328847" d="M144.321,146.352l1,2.643a1.219,1.219,0,1,0,2.281-.861l-5.2-13.781-.013-.033a1.53,1.53,0,0,0-1.42-.951h0a1.531,1.531,0,0,0-1.42.954l-.011.028-5.248,13.78a1.219,1.219,0,0,0,2.278.868l1.008-2.647h6.75Zm-3.36-8.9,2.44,6.465h-4.9Z" transform="translate(-112.382 -112.823)"/>
        <path id="Path_1328848" data-name="Path 1328848" d="M234.613,149.785a1.219,1.219,0,0,0,1.219-1.219V134.589a1.219,1.219,0,0,0-2.438,0v13.977A1.219,1.219,0,0,0,234.613,149.785Z" transform="translate(-195.462 -112.823)"/>
        <path id="Path_1328849" data-name="Path 1328849" d="M343.292,30.6l-.711,2.074A1.94,1.94,0,0,0,345.4,34.95l5.145-3.079a1.219,1.219,0,1,0-1.252-2.092l-3.952,2.365.629-1.835a1.219,1.219,0,0,0-.726-1.537c-4.3-1.608-7.073-5.25-7.073-9.277,0-5.575,5.27-10.111,11.747-10.111s11.748,4.536,11.748,10.111c0,3.893-2.529,7.376-6.6,9.09a1.219,1.219,0,0,0,.946,2.247c4.917-2.069,8.093-6.519,8.093-11.337,0-6.919-6.364-12.548-14.185-12.548S335.731,12.576,335.731,19.5a12.422,12.422,0,0,0,7.561,11.1Z" transform="translate(-281.167 -6.947)"/>
        <g id="Group_1204931" data-name="Group 1204931" transform="translate(61.966 11.455)">
          <circle id="Ellipse_12608" data-name="Ellipse 12608" cx="1.209" cy="1.209" r="1.209"/>
          <circle id="Ellipse_12609" data-name="Ellipse 12609" cx="1.209" cy="1.209" r="1.209" transform="translate(6.058)"/>
          <circle id="Ellipse_12610" data-name="Ellipse 12610" cx="1.209" cy="1.209" r="1.209" transform="translate(12.4)"/>
        </g>
      </g>
    </g>
  </g>
</svg>
