<svg xmlns="http://www.w3.org/2000/svg" width="96.344" height="96.344" viewBox="0 0 96.344 96.344">
  <g id="Group_1205063" data-name="Group 1205063" transform="translate(-7911.572 7964.999)">
    <g id="Group_1204887" data-name="Group 1204887" transform="translate(6889.606 -11062.654)">
      <g id="Group_1200255" data-name="Group 1200255" transform="translate(1021.967 3097.655)">
        <g id="Group_1187152" data-name="Group 1187152">
          <g id="Group_1185946" data-name="Group 1185946">
            <g id="Group_1184280" data-name="Group 1184280">
              <g id="Group_1182168" data-name="Group 1182168">
                <g id="Group_1178877" data-name="Group 1178877">
                  <g id="Group_1111311" data-name="Group 1111311">
                    <g id="Group_1098742" data-name="Group 1098742" transform="translate(0 0)">
                      <g id="Rectangle_400898" data-name="Rectangle 400898" transform="translate(0.001 0)" fill="#c5aaf1" stroke="#615478" stroke-width="0.5" opacity="0.859">
                        <rect width="96.344" height="96.344" rx="48.172" stroke="none"/>
                        <rect x="0.25" y="0.25" width="95.844" height="95.844" rx="47.922" fill="none"/>
                      </g>
                      <g id="Rectangle_400907" data-name="Rectangle 400907" transform="translate(0 0)" fill="none" stroke="#615478" stroke-width="0.5">
                        <rect width="96.344" height="96.344" rx="48.172" stroke="none"/>
                        <rect x="0.25" y="0.25" width="95.844" height="95.844" rx="47.922" fill="none"/>
                      </g>
                    </g>
                  </g>
                </g>
              </g>
            </g>
          </g>
        </g>
      </g>
    </g>
    <g id="lista-de-verificacion" transform="translate(7921.335 -7955.237)">
      <g id="Group_1205059" data-name="Group 1205059" transform="translate(8.981 15.848)">
        <path id="Path_1329168" data-name="Path 1329168" d="M74.857,74.452V108.3H16V74.452A2.452,2.452,0,0,1,18.452,72H72.405A2.452,2.452,0,0,1,74.857,74.452Z" transform="translate(-16 -72)" fill="#78b9eb"/>
        <path id="Path_1329169" data-name="Path 1329169" d="M74.857,368v3.433a2.452,2.452,0,0,1-2.452,2.452H18.452A2.452,2.452,0,0,1,16,371.433V368Z" transform="translate(-16 -331.705)" fill="#d8d7da"/>
        <path id="Path_1329170" data-name="Path 1329170" d="M144,472h27.467v2.943H144Z" transform="translate(-128.305 -422.952)" fill="#d8d7da"/>
        <path id="Path_1329171" data-name="Path 1329171" d="M201.657,422.867H184L185.962,416H199.7Z" transform="translate(-163.4 -373.819)" fill="#acabb1"/>
      </g>
      <g id="Group_1205061" data-name="Group 1205061" transform="translate(22.224 8.49)">
        <path id="Path_1329172" data-name="Path 1329172" d="M128,16h31.391V55.238H128Z" transform="translate(-128 -16)" fill="#a0815c"/>
        <path id="Path_1329173" data-name="Path 1329173" d="M171.619,40H177.5V73.353H152V40h5.886" transform="translate(-149.057 -37.057)" fill="#ffeb99"/>
        <path id="Path_1329174" data-name="Path 1329174" d="M200,16h13.733v4.414a1.471,1.471,0,0,1-1.471,1.471H201.471A1.471,1.471,0,0,1,200,20.414Z" transform="translate(-191.171 -16)" fill="#ffda44"/>
        <g id="Group_1205060" data-name="Group 1205060" transform="translate(5.886 9.81)">
          <path id="Path_1329175" data-name="Path 1329175" d="M176,96h7.848v7.848H176Z" transform="translate(-176 -96)" fill="#91cc04"/>
          <path id="Path_1329176" data-name="Path 1329176" d="M176,200h7.848v7.848H176Z" transform="translate(-176 -187.248)" fill="#91cc04"/>
        </g>
      </g>
      <g id="Group_1205062" data-name="Group 1205062" transform="translate(8 8)">
        <path id="Path_1329177" data-name="Path 1329177" d="M65.386,14.867h-10.3V8.981A.981.981,0,0,0,54.1,8H22.714a.981.981,0,0,0-.981.981v5.886h-10.3A3.437,3.437,0,0,0,8,18.3V55.576a3.437,3.437,0,0,0,3.433,3.433H30.242l-1.4,4.9H24.676a.981.981,0,0,0-.981.981v2.943a.981.981,0,0,0,.981.981H52.143a.981.981,0,0,0,.981-.981V64.9a.981.981,0,0,0-.981-.981H47.978l-1.4-4.9H65.386a3.437,3.437,0,0,0,3.433-3.433V18.3A3.437,3.437,0,0,0,65.386,14.867Zm-32.862-4.9H44.3V13.4a.49.49,0,0,1-.49.49H33.014a.49.49,0,0,1-.49-.49Zm.49,5.886H43.8A2.455,2.455,0,0,0,46.257,13.4V12.9h3.924V44.3H26.638V12.9h3.924v.49a2.455,2.455,0,0,0,2.452,2.452ZM23.7,9.962h6.867v.981h-4.9a.981.981,0,0,0-.981.981V45.276a.981.981,0,0,0,.981.981h25.5a.981.981,0,0,0,.981-.981V11.924a.981.981,0,0,0-.981-.981h-4.9V9.962h6.867V47.238H23.7ZM51.162,65.876v.981h-25.5v-.981Zm-20.28-1.962,1.4-4.9H44.537l1.4,4.9Zm35.975-8.338a1.473,1.473,0,0,1-1.471,1.471H11.433a1.473,1.473,0,0,1-1.471-1.471V53.124h56.9Zm0-4.414H9.962V18.3a1.473,1.473,0,0,1,1.471-1.471h10.3V48.219a.981.981,0,0,0,.981.981H54.1a.981.981,0,0,0,.981-.981V16.829h10.3A1.473,1.473,0,0,1,66.857,18.3Z" transform="translate(-8 -8)"/>
        <path id="Path_1329178" data-name="Path 1329178" d="M168,88.981v7.848a.981.981,0,0,0,.981.981h7.848a.981.981,0,0,0,.981-.981v-4.3l1.42-.71a.981.981,0,1,0-.877-1.755l-.542.271V88.981a.981.981,0,0,0-.981-.981h-7.848A.981.981,0,0,0,168,88.981Zm1.962.981h5.886v1.356L173.1,92.692l-.481-.481A.981.981,0,0,0,171.23,93.6l.981.981a.981.981,0,0,0,1.132.184l2.5-1.252v2.337h-5.886Z" transform="translate(-148.381 -78.19)"/>
        <path id="Path_1329179" data-name="Path 1329179" d="M178.352,194.066l-.542.271v-1.356a.981.981,0,0,0-.981-.981h-7.848a.981.981,0,0,0-.981.981v7.848a.981.981,0,0,0,.981.981h7.848a.981.981,0,0,0,.981-.981v-4.3l1.42-.71a.981.981,0,1,0-.877-1.755Zm-2.5,5.782h-5.886v-5.886h5.886v1.356l-2.749,1.375-.481-.481a.981.981,0,0,0-1.387,1.387l.981.981a.981.981,0,0,0,1.132.184l2.5-1.252Z" transform="translate(-148.381 -169.438)"/>
        <path id="Path_1329180" data-name="Path 1329180" d="M272.981,97.962h6.867a.981.981,0,0,0,0-1.962h-6.867a.981.981,0,0,0,0,1.962Z" transform="translate(-239.628 -85.209)"/>
        <path id="Path_1329181" data-name="Path 1329181" d="M272.981,121.962h6.867a.981.981,0,0,0,0-1.962h-6.867a.981.981,0,0,0,0,1.962Z" transform="translate(-239.628 -106.267)"/>
        <path id="Path_1329182" data-name="Path 1329182" d="M272.981,145.962h4.9a.981.981,0,0,0,0-1.962h-4.9a.981.981,0,0,0,0,1.962Z" transform="translate(-239.628 -127.324)"/>
        <path id="Path_1329183" data-name="Path 1329183" d="M272.981,201.962h6.867a.981.981,0,1,0,0-1.962h-6.867a.981.981,0,1,0,0,1.962Z" transform="translate(-239.628 -176.457)"/>
        <path id="Path_1329184" data-name="Path 1329184" d="M272.981,225.962h6.867a.981.981,0,0,0,0-1.962h-6.867a.981.981,0,0,0,0,1.962Z" transform="translate(-239.628 -197.514)"/>
        <path id="Path_1329185" data-name="Path 1329185" d="M272.981,249.962h4.9a.981.981,0,0,0,0-1.962h-4.9a.981.981,0,0,0,0,1.962Z" transform="translate(-239.628 -218.571)"/>
      </g>
    </g>
  </g>
</svg>
