<svg xmlns="http://www.w3.org/2000/svg" xmlns:xlink="http://www.w3.org/1999/xlink" width="118" height="118" viewBox="0 0 118 118">
  <defs>
    <filter id="Rectangle_411831" x="0" y="0" width="118" height="118" filterUnits="userSpaceOnUse">
      <feOffset dy="3" input="SourceAlpha"/>
      <feGaussianBlur stdDeviation="3" result="blur"/>
      <feFlood flood-opacity="0.161"/>
      <feComposite operator="in" in2="blur"/>
      <feComposite in="SourceGraphic"/>
    </filter>
  </defs>
  <g id="Group_1204985" data-name="Group 1204985" transform="translate(-792.051 -4934)">
    <g id="Group_1204777" data-name="Group 1204777" transform="translate(465.27 1082)">
      <g transform="matrix(1, 0, 0, 1, 326.78, 3852)" filter="url(#Rectangle_411831)">
        <g id="Rectangle_411831-2" data-name="Rectangle 411831" transform="translate(9 6)" fill="#37f1e9" stroke="#fff" stroke-width="2">
          <path d="M5,0H68a32,32,0,0,1,32,32V95a5,5,0,0,1-5,5H32A32,32,0,0,1,0,68V5A5,5,0,0,1,5,0Z" stroke="none"/>
          <path d="M5,1H68A31,31,0,0,1,99,32V95a4,4,0,0,1-4,4H32A31,31,0,0,1,1,68V5A4,4,0,0,1,5,1Z" fill="none"/>
        </g>
      </g>
    </g>
    <g id="ia-etica" transform="translate(818.051 4956.001)">
      <g id="Group_1204984" data-name="Group 1204984" transform="translate(2.01 2.01)">
        <g id="Group_1204981" data-name="Group 1204981">
          <path id="Path_1328892" data-name="Path 1328892" d="M11.937,25.169a3.112,3.112,0,1,1,3.112,3.112A3.112,3.112,0,0,1,11.937,25.169ZM25.169,11.937a3.112,3.112,0,1,1-3.112,3.112A3.112,3.112,0,0,1,25.169,11.937ZM40.194,9a3.112,3.112,0,1,1-3.112,3.112A3.112,3.112,0,0,1,40.194,9Zm15.024,2.937a3.112,3.112,0,1,1-3.112,3.112A3.112,3.112,0,0,1,55.218,11.937ZM68.451,25.169a3.112,3.112,0,1,1-3.112-3.112A3.112,3.112,0,0,1,68.451,25.169Zm2.937,15.025a3.112,3.112,0,1,1-3.112-3.112A3.112,3.112,0,0,1,71.388,40.194ZM68.451,55.218a3.112,3.112,0,1,1-3.112-3.112A3.112,3.112,0,0,1,68.451,55.218ZM55.218,68.451a3.112,3.112,0,1,1,3.112-3.112A3.112,3.112,0,0,1,55.218,68.451ZM40.194,71.388a3.112,3.112,0,1,1,3.112-3.112,3.112,3.112,0,0,1-3.112,3.112ZM25.169,68.451a3.112,3.112,0,1,1,3.112-3.112A3.112,3.112,0,0,1,25.169,68.451ZM11.937,55.218a3.112,3.112,0,1,1,3.112,3.112A3.112,3.112,0,0,1,11.937,55.218ZM9,40.194a3.112,3.112,0,1,1,3.112,3.112A3.112,3.112,0,0,1,9,40.194Z" transform="translate(-9 -9)" fill="#fc685b" fill-rule="evenodd"/>
          <path id="Path_1328893" data-name="Path 1328893" d="M21.169,25.647a3.112,3.112,0,1,1-4.08,4.563,3.112,3.112,0,0,0,4.08-4.563Zm10.12-10.12a3.112,3.112,0,1,1-4.08,4.563,3.112,3.112,0,0,0,4.08-4.563Zm15.024-2.938a3.112,3.112,0,1,1-4.08,4.563,3.112,3.112,0,0,0,4.08-4.563Zm15.025,2.937a3.112,3.112,0,1,1-4.08,4.563,3.112,3.112,0,0,0,4.08-4.563ZM72.952,28.305a3.112,3.112,0,0,1-5.573,1.9,3.112,3.112,0,0,0,4.08-4.563A3.11,3.11,0,0,1,72.952,28.305ZM75.889,43.33a3.112,3.112,0,0,1-5.574,1.9,3.112,3.112,0,0,0,4.08-4.563,3.11,3.11,0,0,1,1.494,2.659ZM72.952,58.354a3.112,3.112,0,0,1-5.573,1.9,3.112,3.112,0,0,0,4.08-4.563A3.11,3.11,0,0,1,72.952,58.354ZM59.72,71.586a3.107,3.107,0,0,1-2.461-1.208,3.112,3.112,0,0,0,4.08-4.563,3.112,3.112,0,0,1-1.618,5.771ZM44.7,74.524a3.106,3.106,0,0,1-2.461-1.208,3.112,3.112,0,0,0,4.08-4.563A3.112,3.112,0,0,1,44.7,74.524ZM29.671,71.586a3.107,3.107,0,0,1-2.461-1.208,3.112,3.112,0,0,0,4.08-4.563,3.112,3.112,0,0,1-1.618,5.771ZM21.169,55.7a3.112,3.112,0,1,1-4.08,4.563,3.112,3.112,0,0,0,4.08-4.563ZM18.232,40.671a3.112,3.112,0,1,1-4.08,4.563,3.112,3.112,0,0,0,4.08-4.563Z" transform="translate(-13.501 -12.136)" fill="#f35244" fill-rule="evenodd"/>
        </g>
        <g id="Group_1204982" data-name="Group 1204982" transform="translate(14.642 14.642)">
          <path id="Path_1328894" data-name="Path 1328894" d="M128.939,124.939h25.1a4.013,4.013,0,0,1,4,4v25.1a4.013,4.013,0,0,1-4,4h-25.1a4.013,4.013,0,0,1-4-4v-25.1A4.013,4.013,0,0,1,128.939,124.939Z" transform="translate(-124.938 -124.939)" fill="#72d561" fill-rule="evenodd"/>
          <path id="Path_1328895" data-name="Path 1328895" d="M159.384,129.033a4.01,4.01,0,0,1,2.04,3.484v25.1a4.013,4.013,0,0,1-4,4h-25.1a4.011,4.011,0,0,1-3.512-2.091,3.966,3.966,0,0,0,1.961.517h25.1a4.013,4.013,0,0,0,4-4v-25.1A3.967,3.967,0,0,0,159.384,129.033Z" transform="translate(-128.32 -128.516)" fill="#57ca5a" fill-rule="evenodd"/>
        </g>
        <g id="Group_1204983" data-name="Group 1204983" transform="translate(16.605 22.786)">
          <circle id="Ellipse_12617" data-name="Ellipse 12617" cx="2.282" cy="2.282" r="2.282" transform="translate(3.313 1.263)" fill="#ffda2d"/>
          <path id="Path_1328896" data-name="Path 1328896" d="M173.819,201.322a2.283,2.283,0,1,1-2.752,3.528,2.283,2.283,0,0,0,2.752-3.528Z" transform="translate(-167.205 -199.82)" fill="#ffc700" fill-rule="evenodd"/>
          <path id="Path_1328897" data-name="Path 1328897" d="M151.675,270.445a5.609,5.609,0,0,1-11.188,0,.379.379,0,0,1,.378-.406H151.3a.379.379,0,0,1,.378.406Z" transform="translate(-140.486 -259.858)" fill="#ffda2d" fill-rule="evenodd"/>
          <path id="Path_1328898" data-name="Path 1328898" d="M186.015,270.446a5.609,5.609,0,0,1-5.594,5.2,5.705,5.705,0,0,1-.631-.035,5.61,5.61,0,0,0,4.963-5.167.379.379,0,0,0-.378-.406h1.263a.379.379,0,0,1,.378.406Z" transform="translate(-174.825 -259.859)" fill="#ffc700" fill-rule="evenodd"/>
          <circle id="Ellipse_12618" data-name="Ellipse 12618" cx="2.282" cy="2.282" r="2.282" transform="translate(20.615 4.784) rotate(-67.486)" fill="#ffda2d"/>
          <path id="Path_1328899" data-name="Path 1328899" d="M316.241,201.322a2.283,2.283,0,1,1-2.752,3.528,2.283,2.283,0,0,0,2.752-3.528Z" transform="translate(-291.64 -199.82)" fill="#ffc700" fill-rule="evenodd"/>
          <path id="Path_1328900" data-name="Path 1328900" d="M294.1,270.444a5.609,5.609,0,0,1-11.188,0,.379.379,0,0,1,.378-.406H293.72a.379.379,0,0,1,.378.406Z" transform="translate(-264.922 -259.857)" fill="#ffda2d" fill-rule="evenodd"/>
          <path id="Path_1328901" data-name="Path 1328901" d="M328.438,270.445a5.609,5.609,0,0,1-5.594,5.2,5.693,5.693,0,0,1-.631-.036,5.61,5.61,0,0,0,4.963-5.167.379.379,0,0,0-.378-.406h1.263a.379.379,0,0,1,.378.406Z" transform="translate(-299.262 -259.858)" fill="#ffc700" fill-rule="evenodd"/>
          <circle id="Ellipse_12619" data-name="Ellipse 12619" cx="2.273" cy="2.273" r="2.273" transform="translate(12.315 0)" fill="#ffda2d"/>
          <path id="Path_1328902" data-name="Path 1328902" d="M240.273,189.426a2.273,2.273,0,0,1,2.02,1.229,2.274,2.274,0,0,0-3.383,2.863,2.273,2.273,0,0,1,1.363-4.093Z" transform="translate(-225.685 -189.426)" fill="#ffc700" fill-rule="evenodd"/>
          <path id="Path_1328903" data-name="Path 1328903" d="M217.773,319.349H224.4a1.739,1.739,0,0,1,1.734,1.734v.766a.253.253,0,0,1-.253.253h-9.588a.253.253,0,0,1-.253-.253v-.766A1.739,1.739,0,0,1,217.773,319.349Z" transform="translate(-206.497 -302.941)" fill="#7a8c98" fill-rule="evenodd"/>
          <path id="Path_1328904" data-name="Path 1328904" d="M219.715,319.349h6.626a1.739,1.739,0,0,1,1.734,1.734v.766a.253.253,0,0,1-.253.253h-.541v-.359a1.739,1.739,0,0,0-1.734-1.734h-6.626a1.715,1.715,0,0,0-.66.131A1.736,1.736,0,0,1,219.715,319.349Z" transform="translate(-208.439 -302.941)" fill="#596c76" fill-rule="evenodd"/>
        </g>
      </g>
      <path id="Path_1328905" data-name="Path 1328905" d="M42.2,39.259A3.974,3.974,0,0,1,38.361,36.3h7.674A3.973,3.973,0,0,1,42.2,39.259Zm-.507-7.834a2.924,2.924,0,0,0,1.013,0l1.6,2.857H40.095Zm-8.486-3.093h0a1.263,1.263,0,1,1,1.264-1.263A1.265,1.265,0,0,1,33.2,28.333Zm-11.1,5.949,1.6-2.857a2.924,2.924,0,0,0,1.013,0l1.6,2.857Zm2.1,4.977A3.973,3.973,0,0,1,20.375,36.3h7.673A3.974,3.974,0,0,1,24.211,39.259Zm0-11.811a1,1,0,1,1-1,1A1,1,0,0,1,24.211,27.449Zm17.986,0a1,1,0,1,1-1,1A1,1,0,0,1,42.2,27.449Zm-4.957,15.49v.009H29.168v-.009a.724.724,0,0,1,.724-.724h6.625A.724.724,0,0,1,37.241,42.938Zm9.375-8.656-2.149-3.843a3.018,3.018,0,0,0-4.114-4.38H36.328a3.3,3.3,0,0,0-2.112-2.114v-1.5a1.01,1.01,0,0,0-2.021,0v1.5a3.3,3.3,0,0,0-2.113,2.114H26.056a3.019,3.019,0,0,0-4.115,4.38l-2.148,3.843h-.559a1.01,1.01,0,0,0-1.011,1.01,5.987,5.987,0,1,0,11.975,0,1.01,1.01,0,0,0-1.01-1.01h-.561L26.48,30.439a2.992,2.992,0,0,0,.728-2.359h2.873a3.293,3.293,0,0,0,2.113,2.113v10h-2.3a2.747,2.747,0,0,0-2.744,2.744v1.019a1.011,1.011,0,0,0,1.01,1.01H38.251a1.011,1.011,0,0,0,1.011-1.01V42.938a2.748,2.748,0,0,0-2.745-2.744h-2.3v-10a3.3,3.3,0,0,0,2.114-2.113H39.2a2.9,2.9,0,0,0-.024.369,3.009,3.009,0,0,0,.752,1.99l-2.147,3.843h-.56a1.01,1.01,0,0,0-1.011,1.01,5.987,5.987,0,1,0,11.975,0,1.01,1.01,0,0,0-1.01-1.01h-.559ZM60.451,48.229a2.1,2.1,0,1,1-2.1-2.1A2.1,2.1,0,0,1,60.451,48.229Zm-11.7-2.474v-25.1a2.993,2.993,0,0,0-2.991-2.991h-25.1a2.993,2.993,0,0,0-2.99,2.991v25.1a2.993,2.993,0,0,0,2.99,2.991h25.1A2.994,2.994,0,0,0,48.746,45.754Zm-.517,10.492a2.1,2.1,0,1,1-2.1,2.1A2.1,2.1,0,0,1,48.229,56.247ZM35.306,61.286a2.1,2.1,0,1,1-2.1-2.1,2.1,2.1,0,0,1,2.1,2.1ZM18.18,60.45a2.1,2.1,0,1,1,2.1-2.1,2.1,2.1,0,0,1-2.1,2.1ZM8.06,50.33a2.1,2.1,0,1,1,2.1-2.1A2.1,2.1,0,0,1,8.06,50.33ZM5.122,35.305a2.1,2.1,0,1,1,2.1-2.1A2.1,2.1,0,0,1,5.122,35.305Zm.836-17.126a2.1,2.1,0,1,1,2.1,2.1,2.1,2.1,0,0,1-2.1-2.1ZM18.18,10.161a2.1,2.1,0,1,1,2.1-2.1A2.1,2.1,0,0,1,18.18,10.161ZM31.1,5.122a2.1,2.1,0,1,1,2.1,2.1A2.1,2.1,0,0,1,31.1,5.122Zm17.126.836a2.1,2.1,0,1,1-2.1,2.1,2.1,2.1,0,0,1,2.1-2.1Zm10.12,10.12a2.1,2.1,0,1,1-2.1,2.1A2.1,2.1,0,0,1,58.349,16.077ZM61.287,31.1a2.1,2.1,0,1,1-2.1,2.1,2.1,2.1,0,0,1,2.1-2.1Zm-4,3.112a4.122,4.122,0,1,0,0-2.021H50.766V27.238h2.816a1.008,1.008,0,0,0,.869-.495l2.731-4.61A4.131,4.131,0,1,0,55.444,21.1l-2.437,4.116H50.766V20.653a5.017,5.017,0,0,0-5.011-5.011H41.19V13.4l4.118-2.437a4.113,4.113,0,1,0-1.032-1.738l-4.61,2.731a1.011,1.011,0,0,0-.5.869v2.816H34.215V9.119a4.122,4.122,0,1,0-2.021,0v6.523H27.239V12.825a1.009,1.009,0,0,0-.5-.869L22.134,9.226A4.133,4.133,0,1,0,21.1,10.964L25.218,13.4v2.241H20.654a5.017,5.017,0,0,0-5.011,5.011v4.564H13.4L10.964,21.1a4.115,4.115,0,1,0-1.738,1.032l2.731,4.61a1.01,1.01,0,0,0,.869.495h2.816v4.956H9.119a4.122,4.122,0,1,0,0,2.021h6.523v4.955H12.826a1.011,1.011,0,0,0-.869.5l-2.731,4.61a4.131,4.131,0,1,0,1.738,1.032L13.4,41.189h2.241v4.566a5.017,5.017,0,0,0,5.011,5.011h4.564v2.24L21.1,55.444a4.113,4.113,0,1,0,1.032,1.738l4.609-2.731a1.01,1.01,0,0,0,.5-.869V50.766h4.956v6.523a4.122,4.122,0,1,0,2.021,0V50.766h4.954v2.816a1.012,1.012,0,0,0,.5.869l4.61,2.731a4.133,4.133,0,1,0,1.032-1.738L41.19,53.006v-2.24h4.566a5.017,5.017,0,0,0,5.011-5.011V41.189h2.241l2.437,4.117a4.117,4.117,0,1,0,1.738-1.032l-2.731-4.61a1.009,1.009,0,0,0-.869-.5H50.766V34.214Z" fill-rule="evenodd"/>
    </g>
  </g>
</svg>
