<svg xmlns="http://www.w3.org/2000/svg" xmlns:xlink="http://www.w3.org/1999/xlink" width="118" height="118" viewBox="0 0 118 118">
  <defs>
    <filter id="Rectangle_411831" x="0" y="0" width="118" height="118" filterUnits="userSpaceOnUse">
      <feOffset dy="3" input="SourceAlpha"/>
      <feGaussianBlur stdDeviation="3" result="blur"/>
      <feFlood flood-opacity="0.161"/>
      <feComposite operator="in" in2="blur"/>
      <feComposite in="SourceGraphic"/>
    </filter>
  </defs>
  <g id="Group_1204996" data-name="Group 1204996" transform="translate(483.27 6691.35)">
    <g id="Group_1204779" data-name="Group 1204779" transform="translate(-810.051 -10543.35)">
      <g transform="matrix(1, 0, 0, 1, 326.78, 3852)" filter="url(#Rectangle_411831)">
        <g id="Rectangle_411831-2" data-name="Rectangle 411831" transform="translate(9 6)" fill="#37f1e9" stroke="#fff" stroke-width="2">
          <path d="M5,0H68a32,32,0,0,1,32,32V95a5,5,0,0,1-5,5H32A32,32,0,0,1,0,68V5A5,5,0,0,1,5,0Z" stroke="none"/>
          <path d="M5,1H68A31,31,0,0,1,99,32V95a4,4,0,0,1-4,4H32A31,31,0,0,1,1,68V5A4,4,0,0,1,5,1Z" fill="none"/>
        </g>
      </g>
    </g>
    <g id="innovacion-en-inteligencia-artificial" transform="translate(-496.326 -6673.844)">
      <g id="Group_1204995" data-name="Group 1204995" transform="translate(45.585 8.805)">
        <g id="Group_1204992" data-name="Group 1204992" transform="translate(0)">
          <path id="Path_1328943" data-name="Path 1328943" d="M56.83,30.122a6.722,6.722,0,0,1-1.016-3.339A5.718,5.718,0,0,1,57.4,23.219a8.088,8.088,0,0,1,5.627-2.885,11.777,11.777,0,0,1,2.169.216,23.573,23.573,0,0,0-2.8-.551.494.494,0,0,1-.333-.779,16.508,16.508,0,0,1,4.261-3.428,7.809,7.809,0,0,1,3.411-1.24,10.011,10.011,0,0,1,5.989,2.379,5,5,0,0,1,1.83,2.859,5.352,5.352,0,0,1,1.887-2.783,10.443,10.443,0,0,1,6.14-2.485,6.762,6.762,0,0,1,3.276,1.321,17.855,17.855,0,0,1,3.944,3.533.494.494,0,0,1-.333.779c-1.258.171-2.733.229-4.02.514a4.6,4.6,0,0,0-2.014.871c-.137.117-.274.226-.385.311.058.055.124.116.19.177s.137.115.194.157a5.924,5.924,0,0,1,.673-.7c1.12-.957,3.092-1.136,4.808-1.136a8.593,8.593,0,0,1,5.707,2.579,5.116,5.116,0,0,1,1.661,3.431,7.171,7.171,0,0,1-2.884,4.976l-.349.228.237.28.076.088a3.383,3.383,0,0,1,.565-.47,12.289,12.289,0,0,0,2.071-2.138.494.494,0,0,1,.754,0,23.176,23.176,0,0,1,2.444,3.54,3.963,3.963,0,0,1,.528,1.636,5.739,5.739,0,0,1-.349,1.564,19.989,19.989,0,0,1-1.751,3.835.494.494,0,0,1-.677.128c-1.808-1.2-3.743-2.917-6.221-2.917-.352,0-.636-.022-.86-.026-.06,0-.138,0-.187.009a2.064,2.064,0,0,0-.027.3c0,.187-.005.313.065.387s.171.062.3.073c.227.019.506.013.838.013a7.53,7.53,0,0,1,5.335,2.5,7.764,7.764,0,0,1,2.268,5.086,5.664,5.664,0,0,1-1.646,3.838,8.754,8.754,0,0,1-6.249,2.666c-2.042,0-4.047-.13-5.387-1.26l-.022-.019-.025.023c-.223.2-.411.345-.547.457.057.055.128.121.2.185a4.61,4.61,0,0,0,2.2.982c.873.173,1.828.235,2.9.423a.494.494,0,0,1,.406.54,8.985,8.985,0,0,1-2.8,4.6C88.96,59.373,87.055,60.5,85.475,60.5a6.112,6.112,0,0,1-4.44-2.232,6.956,6.956,0,0,1-1.852-4.316L77.533,21.2c-.267,5.537-1.578,32.747-1.577,32.745a6.225,6.225,0,0,1-1.883,4.132,6.325,6.325,0,0,1-4.439,2.009c-1.584,0-3.428-1.09-4.894-2.539a8.752,8.752,0,0,1-2.673-4.52.494.494,0,0,1,.406-.54c2.052-.36,3.677-.331,5.106-1.536.084-.071.169-.135.249-.191l-.035-.032-.057-.052a2.87,2.87,0,0,1-.343.338c-1.338,1.128-3.472,1.192-5.511,1.192a9.708,9.708,0,0,1-6.7-3.227A6.408,6.408,0,0,1,53.3,44.848a6.022,6.022,0,0,1,1.851-4.017,9.644,9.644,0,0,1,6.617-2.99l.323,0c-.007-.094-.013-.2-.014-.317h-.08c-2.481,0-4.836,1.32-6.645,2.522a.494.494,0,0,1-.677-.128,19.507,19.507,0,0,1-1.745-3.679,5.347,5.347,0,0,1-.349-1.527,4.636,4.636,0,0,1,.48-1.679,20.375,20.375,0,0,1,2.327-3.815.494.494,0,0,1,.754,0c.2.235.437.563.691.905ZM57.915,31.4a2.386,2.386,0,0,0,.28.218,2.729,2.729,0,0,1,.4.322l.034-.04.022-.027a3.7,3.7,0,0,1-.421-.239A3.644,3.644,0,0,1,57.915,31.4ZM68.6,22.048a4.576,4.576,0,0,0-.391-.282h0c.137.117.256.23.348.322Z" transform="translate(-52.578 -14.521)" fill="#eb5463" fill-rule="evenodd"/>
        </g>
        <g id="Group_1204993" data-name="Group 1204993" transform="translate(11.739 13.191)">
          <path id="Path_1328944" data-name="Path 1328944" d="M160.915,121.365a13.253,13.253,0,0,1,13.25,13.25c0,8.616-6.2,6.6-6.2,22.231H153.86c0-15.631-6.2-13.615-6.2-22.231A13.253,13.253,0,0,1,160.915,121.365Z" transform="translate(-147.662 -121.365)" fill="#fdcd56" fill-rule="evenodd"/>
          <path id="Path_1328945" data-name="Path 1328945" d="M177.436,382.764h15.17a2.278,2.278,0,0,1,2.271,2.271v4.9a2.277,2.277,0,0,1-2.271,2.268h-2.331v2.278a2.151,2.151,0,0,1-2.142,2.142h-6.225a2.151,2.151,0,0,1-2.142-2.142V392.2h-2.331a2.277,2.277,0,0,1-2.271-2.268v-4.9A2.278,2.278,0,0,1,177.436,382.764Z" transform="translate(-171.77 -350.492)" fill="#a9b0bb" fill-rule="evenodd"/>
        </g>
        <g id="Group_1204994" data-name="Group 1204994" transform="translate(19.508 21.15)">
          <path id="Path_1328946" data-name="Path 1328946" d="M220.937,185.837a.618.618,0,0,1,.617.617v9.731a.617.617,0,0,1-.617.617h-9.731a.617.617,0,0,1-.617-.617v-9.731a.618.618,0,0,1,.617-.617Z" transform="translate(-210.588 -185.837)" fill="#cad0d7" fill-rule="evenodd"/>
        </g>
      </g>
      <path id="Path_1328947" data-name="Path 1328947" d="M47.06,34.586A7.554,7.554,0,0,1,44.6,29.1a7.83,7.83,0,0,1,3.662-6.452,6.34,6.34,0,0,1-.2-1.569c0-3.4,2.737-6.305,6.475-7.1C55.267,10.611,58.716,8,62.921,8a8.83,8.83,0,0,1,7.655,4.2A8.83,8.83,0,0,1,78.23,8c4.2,0,7.654,2.611,8.381,5.977,3.738.793,6.475,3.7,6.475,7.1a6.34,6.34,0,0,1-.2,1.569A7.83,7.83,0,0,1,96.551,29.1a7.554,7.554,0,0,1-2.46,5.49,7.449,7.449,0,0,1,1.63,4.6c0,4.337-3.925,7.963-8.978,8.282q.01.177.01.356c0,3.246-2.5,6.046-5.986,6.978a3.112,3.112,0,0,1,.528,1.736v4.9a3.144,3.144,0,0,1-3.135,3.132H76.694v1.414a3.019,3.019,0,0,1-3.006,3.006H67.463a3.019,3.019,0,0,1-3.006-3.006V64.569H62.99a3.144,3.144,0,0,1-3.135-3.132v-4.9a3.112,3.112,0,0,1,.528-1.736C56.9,53.869,54.4,51.069,54.4,47.823q0-.179.01-.356c-5.052-.32-8.978-3.945-8.978-8.282a7.449,7.449,0,0,1,1.63-4.6Zm1.87-10.3a6.032,6.032,0,0,0-2.6,4.808,5.842,5.842,0,0,0,1.925,4.24,10.526,10.526,0,0,1,6.881-2.452.864.864,0,1,1,0,1.728c-4.368,0-7.976,2.9-7.976,6.573s3.607,6.577,7.976,6.577a9.1,9.1,0,0,0,4.734-1.284c-1.68-2.856-3.408-4.535-3.408-9.233A14.119,14.119,0,0,1,69.711,21.156V15.311c0-2.966-3.078-5.583-6.79-5.583-3.077,0-5.712,1.682-6.532,4.038l.2,0A9.284,9.284,0,0,1,62.6,15.885.864.864,0,0,1,61.481,17.2a7.55,7.55,0,0,0-4.888-1.709c-3.717,0-6.8,2.454-6.8,5.583a5.3,5.3,0,0,0,2.594,4.384.864.864,0,0,1-.943,1.448,7.728,7.728,0,0,1-2.514-2.619ZM84.762,13.766c-.82-2.356-3.455-4.038-6.532-4.038-3.712,0-6.79,2.617-6.79,5.583v5.845A14.118,14.118,0,0,1,84.692,35.244c0,4.7-1.728,6.377-3.408,9.233a9.1,9.1,0,0,0,4.734,1.284c4.368,0,7.976-2.9,7.976-6.577s-3.608-6.573-7.976-6.573a.864.864,0,0,1,0-1.728A10.526,10.526,0,0,1,92.9,33.336a5.842,5.842,0,0,0,1.925-4.24,6.032,6.032,0,0,0-2.6-4.807,7.73,7.73,0,0,1-2.509,2.618.864.864,0,1,1-.945-1.447,5.31,5.31,0,0,0,2.59-4.384c0-3.129-3.083-5.583-6.8-5.583A7.55,7.55,0,0,0,79.67,17.2a.864.864,0,0,1-1.119-1.317,9.284,9.284,0,0,1,6.008-2.121l.2,0Zm.248,33.68A10.711,10.711,0,0,1,80.469,46a21.228,21.228,0,0,0-1.808,7.387c3.52-.181,6.364-2.565,6.364-5.568Q85.025,47.632,85.01,47.446ZM78.161,55.13H62.99a1.411,1.411,0,0,0-1.407,1.407v4.9a1.41,1.41,0,0,0,1.407,1.4h2.331a.864.864,0,0,1,.864.864v2.278a1.283,1.283,0,0,0,1.278,1.277h6.226a1.283,1.283,0,0,0,1.278-1.277V63.7a.864.864,0,0,1,.864-.864h2.331a1.41,1.41,0,0,0,1.407-1.4v-4.9A1.411,1.411,0,0,0,78.161,55.13ZM62.49,53.391A21.228,21.228,0,0,0,60.682,46a10.711,10.711,0,0,1-4.541,1.441q-.015.187-.016.377c0,3,2.844,5.387,6.364,5.568m1.736.011h12.7a21.872,21.872,0,0,1,2.454-9.069c1.647-3.034,3.584-4.433,3.584-9.089A12.388,12.388,0,0,0,70.577,22.859h0A12.389,12.389,0,0,0,58.188,35.244c0,4.656,1.936,6.054,3.583,9.089A21.872,21.872,0,0,1,64.226,53.4Zm0-19.832H61.975a.864.864,0,1,1,0-1.728h2.253V29.954a.864.864,0,0,1,.864-.864H66.98V26.836a.864.864,0,0,1,1.728,0V29.09h3.734V26.836a.864.864,0,0,1,1.728,0V29.09h1.888a.864.864,0,0,1,.864.864v1.888h2.253a.864.864,0,0,1,0,1.728H76.923V37.3h2.253a.864.864,0,0,1,0,1.728H76.923V40.92a.864.864,0,0,1-.864.864H74.171v2.253a.864.864,0,0,1-1.728,0V41.784H68.709v2.253a.864.864,0,0,1-1.728,0V41.784H65.093a.864.864,0,0,1-.864-.864V39.032H61.975a.864.864,0,1,1,0-1.728h2.253Zm10.966-2.752H65.957v9.238h9.238Z" transform="translate(0)" fill-rule="evenodd"/>
    </g>
  </g>
</svg>
