<svg xmlns="http://www.w3.org/2000/svg" xmlns:xlink="http://www.w3.org/1999/xlink" width="118" height="118" viewBox="0 0 118 118">
  <defs>
    <filter id="Rectangle_411831" x="0" y="0" width="118" height="118" filterUnits="userSpaceOnUse">
      <feOffset dy="3" input="SourceAlpha"/>
      <feGaussianBlur stdDeviation="3" result="blur"/>
      <feFlood flood-opacity="0.161"/>
      <feComposite operator="in" in2="blur"/>
      <feComposite in="SourceGraphic"/>
    </filter>
  </defs>
  <g id="Group_1204903" data-name="Group 1204903" transform="translate(-1110.051 -4679)">
    <g id="Group_1204662" data-name="Group 1204662" transform="translate(783.27 827)">
      <g transform="matrix(1, 0, 0, 1, 326.78, 3852)" filter="url(#Rectangle_411831)">
        <g id="Rectangle_411831-2" data-name="Rectangle 411831" transform="translate(9 6)" fill="#37f1e9" stroke="#fff" stroke-width="2">
          <path d="M5,0H68a32,32,0,0,1,32,32V95a5,5,0,0,1-5,5H32A32,32,0,0,1,0,68V5A5,5,0,0,1,5,0Z" stroke="none"/>
          <path d="M5,1H68A31,31,0,0,1,99,32V95a4,4,0,0,1-4,4H32A31,31,0,0,1,1,68V5A4,4,0,0,1,5,1Z" fill="none"/>
        </g>
      </g>
    </g>
    <g id="analisis-de-datos" transform="translate(1139.051 4705)">
      <path id="Path_1328745" data-name="Path 1328745" d="M65.535,36.768A28.768,28.768,0,1,1,36.768,8,28.768,28.768,0,0,1,65.535,36.768Zm0,0" transform="translate(-7.041 -7.041)" fill="#85d3c1"/>
      <path id="Path_1328746" data-name="Path 1328746" d="M297.534,25.261A11.517,11.517,0,0,1,307.507,8V31.014A11.508,11.508,0,0,1,297.534,25.261Zm0,0" transform="translate(-260.52 -7.041)" fill="#ff958a"/>
      <path id="Path_1328747" data-name="Path 1328747" d="M403.507,19.507H392V8A11.5,11.5,0,0,1,403.507,19.507Zm0,0" transform="translate(-345.013 -7.041)" fill="#f5f7fa"/>
      <path id="Path_1328748" data-name="Path 1328748" d="M117.993,157.734c-.2.01-.393.019-.595.019A11.508,11.508,0,0,1,107.425,152H80.959a.962.962,0,0,0-.959.959v22.055h40.275V157.754Zm0,0" transform="translate(-70.411 -133.781)" fill="#f5f7fa"/>
      <path id="Path_1328749" data-name="Path 1328749" d="M259.836,197.425v1.918H256V184h3.836Zm0,0" transform="translate(-225.315 -161.945)" fill="#ff958a"/>
      <path id="Path_1328750" data-name="Path 1328750" d="M192,216h3.836v11.507H192Zm0,0" transform="translate(-168.986 -190.109)" fill="#ff958a"/>
      <path id="Path_1328751" data-name="Path 1328751" d="M128,248h3.836v7.671H128Zm0,0" transform="translate(-112.657 -218.273)" fill="#ff958a"/>
      <path id="Path_1328752" data-name="Path 1328752" d="M92.466,351.671H82.877A2.873,2.873,0,0,1,80,348.795V344h40.275v4.795a2.873,2.873,0,0,1-2.877,2.877h-9.589v5.754H92.466Zm0,0" transform="translate(-70.411 -302.766)" fill="#f9d48a"/>
      <path id="Path_1328753" data-name="Path 1328753" d="M392,104h11.507a11.475,11.475,0,0,1-10.912,11.488c-.2.01-.393.019-.595.019Zm0,0" transform="translate(-345.013 -91.534)" fill="#f9d48a"/>
      <path id="Path_1328754" data-name="Path 1328754" d="M267.836,9.918a1.923,1.923,0,0,1-1.918,1.918A1.931,1.931,0,0,1,264,9.918a1.918,1.918,0,0,1,3.836,0Zm0,0" transform="translate(-232.356 -7.041)" fill="#f9d48a"/>
      <path id="Path_1328755" data-name="Path 1328755" d="M200.681,72.46a1.918,1.918,0,0,1,3.155,1.458,1.918,1.918,0,1,1-3.836,0A1.9,1.9,0,0,1,200.681,72.46Zm0,0" transform="translate(-176.027 -63.37)" fill="#f9d48a"/>
      <path id="Path_1328756" data-name="Path 1328756" d="M139.836,9.918a1.933,1.933,0,0,1-1.918,1.918A1.931,1.931,0,0,1,136,9.918a1.918,1.918,0,0,1,3.836,0Zm0,0" transform="translate(-119.698 -7.041)" fill="#f9d48a"/>
      <path id="Path_1328757" data-name="Path 1328757" d="M75.27,72.566a1.878,1.878,0,0,1,.566,1.352,1.918,1.918,0,1,1-3.836,0,1.912,1.912,0,0,1,3.27-1.352Zm0,0" transform="translate(-63.37 -63.37)" fill="#f9d48a"/>
      <path id="Path_1328758" data-name="Path 1328758" d="M9.918,8a1.923,1.923,0,0,1,1.918,1.918,1.931,1.931,0,0,1-1.918,1.918A1.918,1.918,0,1,1,9.918,8Zm0,0" transform="translate(-7.041 -7.041)" fill="#f9d48a"/>
      <g id="Group_1204902" data-name="Group 1204902">
        <path id="Path_1328759" data-name="Path 1328759" d="M59.453,12.466a12.466,12.466,0,1,0-23.97,4.795H10.548A1.92,1.92,0,0,0,8.63,19.178v26.85a3.839,3.839,0,0,0,3.836,3.836H21.1V53.7H15.658A27.782,27.782,0,0,1,8.172,12.166a2.875,2.875,0,0,0,5.253-1.618,2.831,2.831,0,0,0-.288-1.232l3.85-3.85a2.829,2.829,0,0,0,2.355.059L23.36,9.209a2.839,2.839,0,0,0-.346,1.339,2.877,2.877,0,1,0,5.754,0,2.831,2.831,0,0,0-.288-1.232l3.85-3.85a2.851,2.851,0,0,0,1.233.287,2.877,2.877,0,1,0-2.877-2.877,2.831,2.831,0,0,0,.288,1.232l-3.85,3.85A2.829,2.829,0,0,0,24.769,7.9L20.75,4.215A2.839,2.839,0,0,0,21.1,2.877a2.877,2.877,0,0,0-5.754,0,2.831,2.831,0,0,0,.288,1.232l-3.85,3.85a2.783,2.783,0,0,0-2.466,0L5.465,4.109a2.831,2.831,0,0,0,.288-1.232A2.877,2.877,0,1,0,2.877,5.754a2.831,2.831,0,0,0,1.232-.288l3.85,3.85a2.825,2.825,0,0,0-.119.3,29.718,29.718,0,1,0,49.666,9.514A12.376,12.376,0,0,0,59.453,12.466ZM33.562,1.918a.959.959,0,1,1-.959.959A.96.96,0,0,1,33.562,1.918Zm-6.712,8.63a.959.959,0,1,1-.959-.959A.96.96,0,0,1,26.85,10.548Zm-8.63-8.63a.959.959,0,1,1-.959.959A.96.96,0,0,1,18.22,1.918Zm-6.712,8.63a.959.959,0,1,1-.959-.959A.96.96,0,0,1,11.507,10.548ZM1.918,2.877a.959.959,0,1,1,.959.959A.96.96,0,0,1,1.918,2.877ZM47.946,22.965V13.425h9.541A10.558,10.558,0,0,1,47.946,22.965Zm9.541-11.458H47.946V1.967A10.558,10.558,0,0,1,57.487,11.507ZM46.028,1.967v21a10.543,10.543,0,0,1,0-21ZM36.5,19.178A12.293,12.293,0,0,0,48.9,24.769V40.275H10.548v-21.1ZM23.014,49.864h5.754V47.946h-16.3a1.92,1.92,0,0,1-1.918-1.918V42.193H48.9v3.836a1.92,1.92,0,0,1-1.918,1.918h-16.3v1.918h5.754V53.7H23.014ZM19.6,55.617H39.855a27.7,27.7,0,0,1-20.256,0ZM57.535,29.727A27.818,27.818,0,0,1,43.795,53.7H38.357V49.864h8.63a3.839,3.839,0,0,0,3.836-3.836V24.322a12.471,12.471,0,0,0,5.292-3.394A27.735,27.735,0,0,1,57.535,29.727Zm0,0" fill="#232323"/>
        <path id="Path_1328760" data-name="Path 1328760" d="M416,64h1.918v1.918H416Zm0,0" transform="translate(-366.136 -56.329)" fill="#232323"/>
        <path id="Path_1328761" data-name="Path 1328761" d="M448,64h1.918v1.918H448Zm0,0" transform="translate(-394.3 -56.329)" fill="#232323"/>
        <path id="Path_1328762" data-name="Path 1328762" d="M376,368h1.918v1.918H376Zm0,0" transform="translate(-330.931 -323.89)" fill="#232323"/>
        <path id="Path_1328763" data-name="Path 1328763" d="M344,368h1.918v1.918H344Zm0,0" transform="translate(-302.766 -323.89)" fill="#232323"/>
        <path id="Path_1328764" data-name="Path 1328764" d="M312,368h1.918v1.918H312Zm0,0" transform="translate(-274.602 -323.89)" fill="#232323"/>
        <path id="Path_1328765" data-name="Path 1328765" d="M312,224h1.918v1.918H312Zm0,0" transform="translate(-274.602 -197.15)" fill="#232323"/>
        <path id="Path_1328766" data-name="Path 1328766" d="M344,224h5.754v1.918H344Zm0,0" transform="translate(-302.766 -197.15)" fill="#232323"/>
        <path id="Path_1328767" data-name="Path 1328767" d="M312,256h1.918v1.918H312Zm0,0" transform="translate(-274.602 -225.315)" fill="#232323"/>
        <path id="Path_1328768" data-name="Path 1328768" d="M344,256h5.754v1.918H344Zm0,0" transform="translate(-302.766 -225.315)" fill="#232323"/>
        <path id="Path_1328769" data-name="Path 1328769" d="M312,288h1.918v1.918H312Zm0,0" transform="translate(-274.602 -253.479)" fill="#232323"/>
        <path id="Path_1328770" data-name="Path 1328770" d="M344,288h5.754v1.918H344Zm0,0" transform="translate(-302.766 -253.479)" fill="#232323"/>
        <path id="Path_1328771" data-name="Path 1328771" d="M127.014,176h-5.754v15.343h-1.918V179.836h-5.754v11.507h-1.918v-7.671h-5.754v7.671H104v1.918h23.014Zm-11.507,5.754h1.918v9.589h-1.918Zm-7.671,3.836h1.918v5.754h-1.918Zm17.261,5.754h-1.918V177.918H125.1Zm0,0" transform="translate(-91.534 -154.904)" fill="#232323"/>
      </g>
    </g>
  </g>
</svg>
