<svg xmlns="http://www.w3.org/2000/svg" xmlns:xlink="http://www.w3.org/1999/xlink" width="143" height="143" viewBox="0 0 143 143">
  <defs>
    <filter id="Rectangle_411831" x="0" y="0" width="143" height="143" filterUnits="userSpaceOnUse">
      <feOffset dy="3" input="SourceAlpha"/>
      <feGaussianBlur stdDeviation="3" result="blur"/>
      <feFlood flood-opacity="0.161"/>
      <feComposite operator="in" in2="blur"/>
      <feComposite in="SourceGraphic"/>
    </filter>
  </defs>
  <g id="Group_1205018" data-name="Group 1205018" transform="translate(-3657 6765)">
    <g id="Group_1205008" data-name="Group 1205008" transform="translate(0 304)">
      <g id="Group_1205005" data-name="Group 1205005" transform="translate(2864.949 -11748)">
        <g id="Group_1204661" data-name="Group 1204661" transform="translate(801.051 4685)">
          <g transform="matrix(1, 0, 0, 1, -9, -6)" filter="url(#Rectangle_411831)">
            <g id="Rectangle_411831-2" data-name="Rectangle 411831" transform="translate(9 6)" fill="#37f1e9" stroke="#fff" stroke-width="2">
              <path d="M5,0H93a32,32,0,0,1,32,32v88a5,5,0,0,1-5,5H32A32,32,0,0,1,0,93V5A5,5,0,0,1,5,0Z" stroke="none"/>
              <path d="M5,1H93a31,31,0,0,1,31,31v88a4,4,0,0,1-4,4H32A31,31,0,0,1,1,93V5A4,4,0,0,1,5,1Z" fill="none"/>
            </g>
          </g>
        </g>
      </g>
    </g>
    <g id="entrada-de-datos" transform="translate(3684.609 -6752.896)">
      <g id="Group_1205016" data-name="Group 1205016" transform="translate(1.286 16.379)">
        <path id="Path_1329022" data-name="Path 1329022" d="M45.412,224.9a10.258,10.258,0,0,1-7.562-9.886v-.683H32.917a4.179,4.179,0,0,1-3.887-2.657l-.357-.171H8.357l-.857.171v24.941a2.572,2.572,0,0,0,2.572,2.572H24.5v-2.608a8.155,8.155,0,0,1,8.146-8.146h12.9v-3.5Z" transform="translate(-7.5 -179.111)" fill="#d8ecfe"/>
        <path id="Path_1329023" data-name="Path 1329023" d="M28.745,169.892v-2.643a4.177,4.177,0,0,1,4.09-4.171l.083-.174H10.072A2.572,2.572,0,0,0,7.5,165.477v5.931H28.845l.106-.221a4.155,4.155,0,0,1-.207-1.295Z" transform="translate(-7.5 -138.849)" fill="#0593fc"/>
        <path id="Path_1329024" data-name="Path 1329024" d="M348.252,22.593H319.7a1.714,1.714,0,0,0-1.714,1.714v6.507a15.717,15.717,0,0,1,4.535,3.608h25.728a1.714,1.714,0,0,0,1.714-1.714v-8.4A1.714,1.714,0,0,0,348.252,22.593Z" transform="translate(-264.757 -22.593)" fill="#ffe177"/>
        <path id="Path_1329025" data-name="Path 1329025" d="M348.252,22.593h-3.427v4.87a1.714,1.714,0,0,1-1.714,1.714H317.99v1.637a15.717,15.717,0,0,1,4.535,3.608h25.728a1.714,1.714,0,0,0,1.714-1.714v-8.4a1.714,1.714,0,0,0-1.714-1.714Z" transform="translate(-264.757 -22.593)" fill="#ffd15b"/>
        <path id="Path_1329026" data-name="Path 1329026" d="M386.139,128.406H363.716a15.458,15.458,0,0,1,.5,3.891v2.257l.136.029a4.19,4.19,0,0,1,3.3,4.082v1.57h18.483a1.714,1.714,0,0,0,1.714-1.714v-8.4A1.714,1.714,0,0,0,386.139,128.406Z" transform="translate(-302.644 -110.265)" fill="#ffe177"/>
        <path id="Path_1329027" data-name="Path 1329027" d="M394.532,128.406H391.1v4.87a1.714,1.714,0,0,1-1.714,1.714H373.846a4.194,4.194,0,0,1,2.2,3.674v1.57h18.483a1.714,1.714,0,0,0,1.714-1.714v-8.4A1.714,1.714,0,0,0,394.532,128.406Z" transform="translate(-311.037 -110.265)" fill="#ffd15b"/>
        <path id="Path_1329028" data-name="Path 1329028" d="M107.343,340.137h50.895v-22.57a8.318,8.318,0,0,0-8.318-8.318H113.947a8.318,8.318,0,0,0-8.318,8.318v20.855A1.714,1.714,0,0,0,107.343,340.137Z" transform="translate(-88.805 -260.103)" fill="#26a6fe"/>
        <g id="Group_1205012" data-name="Group 1205012" transform="translate(60.455 49.146)">
          <path id="Path_1329029" data-name="Path 1329029" d="M361.444,315h7.246a8.32,8.32,0,0,0-7.912-5.75h-.66a8.275,8.275,0,0,1,1.326,4.5Z" transform="translate(-360.118 -309.249)" fill="#0593fc"/>
        </g>
        <path id="Path_1329030" data-name="Path 1329030" d="M205.625,426.865v-5.6a2.641,2.641,0,0,0-1.945-.853h-7.515v4.927a2.636,2.636,0,0,0,.488,1.529Z" transform="translate(-163.82 -352.204)" fill="#d78878"/>
        <path id="Path_1329031" data-name="Path 1329031" d="M158.1,457.064h15.22v5.289l-.171.256H157.175v-4.621a.924.924,0,0,1,.924-.924Z" transform="translate(-131.514 -382.575)" fill="#e1d3ce"/>
        <path id="Path_1329032" data-name="Path 1329032" d="M231.095,289.854h5.071a10.2,10.2,0,0,0,2.726-.372v3.389l-4.551,6.4a.924.924,0,0,1-1.511-.007l-4.46-6.395v-3.389A10.2,10.2,0,0,0,231.095,289.854Z" transform="translate(-190.502 -243.725)" fill="#bb5d4c"/>
        <g id="Group_1205015" data-name="Group 1205015" transform="translate(21.073 6.25)">
          <path id="Path_1329033" data-name="Path 1329033" d="M151.381,77.038h4.946V74.83a9.943,9.943,0,0,1,9.932-9.932h5.666a9.944,9.944,0,0,1,9.932,9.932v2.208H186.8a4.152,4.152,0,0,1,.9.1V74.83a15.8,15.8,0,0,0-15.783-15.783h-5.666A15.8,15.8,0,0,0,150.476,74.83v2.309A4.151,4.151,0,0,1,151.381,77.038Z" transform="translate(-147.036 -59.047)" fill="#cdbfba"/>
          <path id="Path_1329034" data-name="Path 1329034" d="M288.138,59.907a10.241,10.241,0,0,1,2.205,6.361v.352a9.943,9.943,0,0,1,5.574,8.922v2.208h4.946a4.151,4.151,0,0,1,.9.1V75.542a15.806,15.806,0,0,0-13.629-15.635Z" transform="translate(-261.096 -59.76)" fill="#b9acac"/>
          <g id="Group_1205013" data-name="Group 1205013" transform="translate(0 17.806)">
            <path id="Path_1329035" data-name="Path 1329035" d="M139.7,162.9h-4.946a4.344,4.344,0,0,0-4.344,4.344v2.643a4.344,4.344,0,0,0,4.344,4.344H139.7Z" transform="translate(-130.413 -162.904)" fill="#b9acac"/>
            <path id="Path_1329036" data-name="Path 1329036" d="M338.455,162.9h-4.946v11.331h4.946a4.344,4.344,0,0,0,4.344-4.344v-2.643A4.344,4.344,0,0,0,338.455,162.9Z" transform="translate(-298.689 -162.904)" fill="#9e9797"/>
          </g>
          <path id="Path_1329037" data-name="Path 1329037" d="M199.007,126.491h-5.071a10.415,10.415,0,0,1-10.415-10.415V102.21a10.117,10.117,0,0,1,10.117-10.117H199.3a10.117,10.117,0,0,1,10.117,10.117v13.867A10.415,10.415,0,0,1,199.007,126.491Z" transform="translate(-174.417 -86.427)" fill="#d78878"/>
          <path id="Path_1329038" data-name="Path 1329038" d="M199.007,126.491h-5.071a10.415,10.415,0,0,1-10.415-10.415V102.21a10.117,10.117,0,0,1,10.117-10.117H199.3a10.117,10.117,0,0,1,10.117,10.117v13.867A10.415,10.415,0,0,1,199.007,126.491Z" transform="translate(-174.417 -86.427)" fill="#d78878"/>
          <path id="Path_1329039" data-name="Path 1329039" d="M260.2,97.839V120.88a10.594,10.594,0,0,1-8.443,10.372h3.787a10.415,10.415,0,0,0,10.415-10.415V106.971A10.117,10.117,0,0,0,260.2,97.839Z" transform="translate(-230.952 -91.188)" fill="#c96e59"/>
          <path id="Path_1329040" data-name="Path 1329040" d="M245.483,236.463h-5.477a1.605,1.605,0,0,1-1.605-1.605v-1.848a1.605,1.605,0,0,1,1.605-1.605h3.871a1.605,1.605,0,0,1,1.605,1.605v3.453Z" transform="translate(-219.887 -201.854)" fill="#cdbfba"/>
          <g id="Group_1205014" data-name="Group 1205014" transform="translate(9.105 5.665)">
            <path id="Path_1329041" data-name="Path 1329041" d="M193.639,92.092a10.117,10.117,0,0,0-10.117,10.117v2.023h9.911a5.545,5.545,0,0,0,3.925-1.628l8.273-8.289a10.072,10.072,0,0,0-6.325-2.223Z" transform="translate(-183.522 -92.092)" fill="#554e56"/>
          </g>
          <path id="Path_1329042" data-name="Path 1329042" d="M301,97.859v3.205l1.967-1.97A10.154,10.154,0,0,0,301,97.859Z" transform="translate(-271.753 -91.205)" fill="#433f43"/>
        </g>
        <path id="Path_1329043" data-name="Path 1329043" d="M157.175,467.343h15.973v3.783H157.175Z" transform="translate(-131.514 -391.092)" fill="#cdbfba"/>
        <path id="Path_1329044" data-name="Path 1329044" d="M105.628,467.343v2.068a1.714,1.714,0,0,0,1.714,1.714h7.123v-3.783Z" transform="translate(-88.804 -391.092)" fill="#0593fc"/>
        <path id="Path_1329045" data-name="Path 1329045" d="M250.34,367.924h35.673a1.848,1.848,0,0,0,1.848-1.848V344.634a1.848,1.848,0,0,0-1.848-1.848H252.188a1.848,1.848,0,0,0-1.848,1.848Z" transform="translate(-208.706 -287.89)" fill="#cdbfba"/>
        <path id="Path_1329046" data-name="Path 1329046" d="M286.013,342.786h-3.182v19.448a1.848,1.848,0,0,1-1.848,1.848H250.34v3.842h35.673a1.848,1.848,0,0,0,1.848-1.848V344.634A1.848,1.848,0,0,0,286.013,342.786Z" transform="translate(-208.706 -287.89)" fill="#b9acac"/>
        <path id="Path_1329047" data-name="Path 1329047" d="M330.5,401.344h8.5a.924.924,0,0,0,.924-.924v-3.882a.924.924,0,0,0-.924-.924h-8.5a.924.924,0,0,0-.924.924v3.882A.924.924,0,0,0,330.5,401.344Z" transform="translate(-274.36 -331.66)" fill="#00f2a6"/>
        <path id="Path_1329048" data-name="Path 1329048" d="M339.007,395.613H336.06v2.3a.924.924,0,0,1-.924.924H329.58v1.581a.924.924,0,0,0,.924.924h8.5a.924.924,0,0,0,.924-.924v-3.882A.924.924,0,0,0,339.007,395.613Z" transform="translate(-274.36 -331.66)" fill="#05e39c"/>
      </g>
      <g id="Group_1205017" data-name="Group 1205017" transform="translate(0 15.093)">
        <path id="Path_1329049" data-name="Path 1329049" d="M365.569,49.592H344.977a1.286,1.286,0,1,0,0,2.572h20.592a1.286,1.286,0,1,0,0-2.572Z" transform="translate(-284.766 -43.677)"/>
        <path id="Path_1329050" data-name="Path 1329050" d="M42.254,235.5H35.785a1.286,1.286,0,1,0,0,2.572h6.469a1.286,1.286,0,0,0,0-2.572Z" transform="translate(-28.584 -197.712)"/>
        <path id="Path_1329051" data-name="Path 1329051" d="M42.254,267.843H35.785a1.286,1.286,0,1,0,0,2.572h6.469a1.286,1.286,0,1,0,0-2.572Z" transform="translate(-28.584 -224.51)"/>
        <path id="Path_1329052" data-name="Path 1329052" d="M42.254,300.186H35.785a1.286,1.286,0,1,0,0,2.572h6.469a1.286,1.286,0,0,0,0-2.572Z" transform="translate(-28.584 -251.308)"/>
        <path id="Path_1329053" data-name="Path 1329053" d="M42.254,332.528H35.785a1.286,1.286,0,1,0,0,2.572h6.469a1.286,1.286,0,0,0,0-2.572Z" transform="translate(-28.584 -278.105)"/>
        <path id="Path_1329054" data-name="Path 1329054" d="M223.336,183.1a1.286,1.286,0,0,0-1.286,1.286V185.4a1.286,1.286,0,1,0,2.572,0v-1.012A1.286,1.286,0,0,0,223.336,183.1Z" transform="translate(-183.98 -154.298)"/>
        <path id="Path_1329055" data-name="Path 1329055" d="M282.346,183.1a1.286,1.286,0,0,0-1.286,1.286V185.4a1.286,1.286,0,1,0,2.572,0v-1.012A1.286,1.286,0,0,0,282.346,183.1Z" transform="translate(-232.873 -154.298)"/>
        <path id="Path_1329056" data-name="Path 1329056" d="M13.974,404.214c0-.023-.006-.047-.011-.07s-.01-.041-.015-.062-.009-.04-.015-.06-.014-.04-.021-.059-.014-.04-.022-.059-.017-.036-.025-.054-.018-.04-.029-.059-.02-.034-.03-.051-.022-.038-.034-.056-.027-.037-.041-.056-.022-.031-.034-.045q-.04-.049-.085-.094l-3.006-3.006A1.286,1.286,0,0,0,8.787,402.3l.811.811H2.572v-7.323a1.286,1.286,0,1,0-2.572,0v7.751a2.145,2.145,0,0,0,2.143,2.143H9.6l-.811.811a1.286,1.286,0,1,0,1.818,1.818l3.006-3.006c.03-.03.058-.062.085-.094.012-.015.022-.03.034-.045s.028-.037.041-.056.023-.037.034-.056.021-.034.031-.052.019-.04.029-.059.017-.036.025-.054.015-.039.022-.059.015-.039.021-.059.01-.04.015-.06.011-.041.015-.062.007-.047.011-.07.006-.036.008-.054a1.284,1.284,0,0,0,0-.254c0-.018-.005-.036-.008-.054Z" transform="translate(0 -329.452)"/>
        <path id="Path_1329057" data-name="Path 1329057" d="M324.289,396.414h8.5A2.213,2.213,0,0,0,335,394.2v-3.882a2.213,2.213,0,0,0-2.21-2.21h-8.5a2.213,2.213,0,0,0-2.21,2.21V394.2A2.213,2.213,0,0,0,324.289,396.414Zm.362-5.73h7.779v3.158h-7.779Z" transform="translate(-266.859 -324.159)"/>
        <path id="Path_1329058" data-name="Path 1329058" d="M87.781,26.494v-8.4a3,3,0,0,0-3-3H56.233a3,3,0,0,0-3,3v4.334a16.984,16.984,0,0,0-5.986-1.084H41.581A17.088,17.088,0,0,0,24.513,38.412v.738h-9.94a1.286,1.286,0,0,0,0,2.572H21.98a5.6,5.6,0,0,0-.907,3.058v2.643c0,.077,0,.153.006.23H2.572V43.007a1.287,1.287,0,0,1,1.286-1.286H8.572a1.286,1.286,0,1,0,0-2.572H3.858A3.862,3.862,0,0,0,0,43.007V73.879a3.862,3.862,0,0,0,3.858,3.858H16.824v2.319a1.286,1.286,0,1,0,2.572,0V73.843a7.04,7.04,0,0,1,7.032-7.032H38.482l3.461,4.963a3.109,3.109,0,0,0-.309,1.349V83.332a3.907,3.907,0,0,0-.487-.034H29V75.527a1.286,1.286,0,1,0-2.572,0v9.057a1.286,1.286,0,0,0,1.286,1.286h4.629v3.641c0,.024,0,.048,0,.071H27.871a2.213,2.213,0,0,0-2.21,2.21v3.335H19.824A.429.429,0,0,1,19.4,94.7V86.056a1.286,1.286,0,1,0-2.572,0V94.7a3,3,0,0,0,3,3H78.593a3.138,3.138,0,0,0,3.134-3.134V73.124a3.138,3.138,0,0,0-3.134-3.134H71.2a9.574,9.574,0,0,0-8.8-5.75H50.961v-.97a11.762,11.762,0,0,0,5.875-4.746h2.956A4.326,4.326,0,0,0,64.113,54.2V52.688a5.64,5.64,0,0,0,3.637-5.053H76.1V61.1l-.811-.811a1.286,1.286,0,0,0-1.818,1.818l3.006,3.006a1.286,1.286,0,0,0,1.818,0L81.3,62.111a1.286,1.286,0,0,0-1.818-1.818l-.811.811V47.635h6.105a3,3,0,0,0,3-3v-8.4a3,3,0,0,0-3-3H79.037a1.286,1.286,0,1,0,0,2.572h5.743a.429.429,0,0,1,.429.429v8.4a.429.429,0,0,1-.429.429H67.755v-.285a5.594,5.594,0,0,0-.907-3.058H80.8a1.286,1.286,0,0,0,0-2.572H64.316v-.738a17.115,17.115,0,0,0-.2-2.605h8.92a1.286,1.286,0,1,0,0-2.572H63.512a16.988,16.988,0,0,0-1.717-3.74H84.781a3,3,0,0,0,3-3ZM41.634,95.127h-13.4V92.154h13.4Zm0-5.545H34.923c0-.024,0-.047,0-.071V85.869h6.229a1.342,1.342,0,0,1,.487.092Zm-17.989-44.8A3.062,3.062,0,0,1,26.7,41.721h3.475v8.76H26.7a3.062,3.062,0,0,1-3.058-3.058ZM37.867,64.24H26.427a9.614,9.614,0,0,0-9.6,9.6v1.322H3.858a1.287,1.287,0,0,1-1.286-1.286V50.223H21.823A5.632,5.632,0,0,0,26.7,53.052h3.5a11.725,11.725,0,0,0,7.66,10.218v.97Zm2.572.882V63.887a11.74,11.74,0,0,0,1.44.092h5.071a11.735,11.735,0,0,0,1.44-.092v1.228l-3.465,4.874h-.155a3.124,3.124,0,0,0-.851.12Zm38.154,7.44a.563.563,0,0,1,.563.563V94.565a.563.563,0,0,1-.563.563H44.206v-22a.56.56,0,0,1,.164-.4l0,0a.56.56,0,0,1,.4-.164H78.594ZM62.4,66.811a7.011,7.011,0,0,1,5.884,3.178H48.079l2.259-3.178ZM56.078,52.278a9.074,9.074,0,0,1-.775,3.674H49.241V53.784a2.894,2.894,0,0,0-2.891-2.891H42.479a2.894,2.894,0,0,0-2.891,2.891v1.848a2.894,2.894,0,0,0,2.891,2.891H53.6a9.1,9.1,0,0,1-6.649,2.883H41.879a9.139,9.139,0,0,1-9.129-9.129V41.721h8.625a6.785,6.785,0,0,0,4.835-2.006l7.4-7.417a8.8,8.8,0,0,1,2.467,6.113V52.278Zm-9.409,1.507v2.167H42.479a.32.32,0,0,1-.319-.32V53.785a.32.32,0,0,1,.319-.319H46.35A.32.32,0,0,1,46.669,53.785ZM32.75,39.149v-.738a8.841,8.841,0,0,1,8.831-8.831h5.666a8.774,8.774,0,0,1,4.316,1.131L44.39,37.9a4.231,4.231,0,0,1-3.015,1.251H32.75Zm14.5-12.141H41.581a11.416,11.416,0,0,0-11.4,11.4v.738H27.085v-.738a14.513,14.513,0,0,1,14.5-14.5h5.666a14.513,14.513,0,0,1,14.5,14.5v.738H58.65v-.738a11.416,11.416,0,0,0-11.4-11.4ZM61.542,54.2a1.751,1.751,0,0,1-1.749,1.749H58.056a11.623,11.623,0,0,0,.566-2.9h2.92V54.2Zm.584-12.482a3.062,3.062,0,0,1,3.058,3.058v2.643a3.062,3.062,0,0,1-3.058,3.058H58.65v-8.76h3.475Zm-2.266-14.8A17.185,17.185,0,0,0,55.8,23.648V18.093a.429.429,0,0,1,.429-.429H84.781a.429.429,0,0,1,.429.429v8.4a.429.429,0,0,1-.429.429Z" transform="translate(0 -15.093)"/>
      </g>
    </g>
  </g>
</svg>
