<svg xmlns="http://www.w3.org/2000/svg" xmlns:xlink="http://www.w3.org/1999/xlink" width="118" height="118" viewBox="0 0 118 118">
  <defs>
    <filter id="Rectangle_411831" x="0" y="0" width="118" height="118" filterUnits="userSpaceOnUse">
      <feOffset dy="3" input="SourceAlpha"/>
      <feGaussianBlur stdDeviation="3" result="blur"/>
      <feFlood flood-opacity="0.161"/>
      <feComposite operator="in" in2="blur"/>
      <feComposite in="SourceGraphic"/>
    </filter>
  </defs>
  <g id="Group_1204999" data-name="Group 1204999" transform="translate(-215.73 6691.35)">
    <g id="Group_1204781" data-name="Group 1204781" transform="translate(-111.051 -10543.35)">
      <g transform="matrix(1, 0, 0, 1, 326.78, 3852)" filter="url(#Rectangle_411831)">
        <g id="Rectangle_411831-2" data-name="Rectangle 411831" transform="translate(9 6)" fill="#37f1e9" stroke="#fff" stroke-width="2">
          <path d="M5,0H68a32,32,0,0,1,32,32V95a5,5,0,0,1-5,5H32A32,32,0,0,1,0,68V5A5,5,0,0,1,5,0Z" stroke="none"/>
          <path d="M5,1H68A31,31,0,0,1,99,32V95a4,4,0,0,1-4,4H32A31,31,0,0,1,1,68V5A4,4,0,0,1,5,1Z" fill="none"/>
        </g>
      </g>
    </g>
    <g id="proceso" transform="translate(229.635 -6686.043)">
      <path id="Path_1328974" data-name="Path 1328974" d="M276.586,286.4l-5.9-10.217-5.9-10.216a3.052,3.052,0,0,0-5.286,0l-5.9,10.216-5.9,10.216a3.051,3.051,0,0,0,2.643,4.576h23.6a3.051,3.051,0,0,0,2.64-4.575Z" transform="translate(-204.772 -212.682)" fill="#ffdf40"/>
      <path id="Path_1328975" data-name="Path 1328975" d="M373.619,276.177l-5.9-10.216a2.945,2.945,0,0,0-2.643-1.525V290.97h11.8a3.051,3.051,0,0,0,2.64-4.575Z" transform="translate(-307.701 -212.678)" fill="#ffbe40"/>
      <path id="Path_1328976" data-name="Path 1328976" d="M32.344,66.122H28.166a1.008,1.008,0,0,1-.858-.479l-1.23-1.992-3.332-1.383-2.276.542a1.008,1.008,0,0,1-.947-.267l-2.955-2.956a1.008,1.008,0,0,1-.268-.947l.542-2.276-1.379-3.33L13.47,51.808a1.008,1.008,0,0,1-.48-.859V46.768a1.008,1.008,0,0,1,.48-.859l1.994-1.226,1.379-3.331L16.3,39.076a1.008,1.008,0,0,1,.268-.947l2.955-2.955a1.008,1.008,0,0,1,.945-.268l2.277.54,3.332-1.379,1.23-1.992a1.008,1.008,0,0,1,.858-.479h4.177a1.008,1.008,0,0,1,.859.479l1.226,1.991,3.334,1.38,2.274-.539a1.008,1.008,0,0,1,.945.268l2.959,2.955a1.009,1.009,0,0,1,.268.947l-.542,2.277,1.38,3.331,1.991,1.226a1.008,1.008,0,0,1,.48.859v4.181a1.008,1.008,0,0,1-.48.859l-1.991,1.226-1.38,3.331.542,2.276a1.008,1.008,0,0,1-.268.947l-2.955,2.956a1.008,1.008,0,0,1-.947.268l-2.276-.542-3.334,1.383L33.2,65.644A1.008,1.008,0,0,1,32.344,66.122Zm-3.615-2.017H31.78l1.1-1.789a1.01,1.01,0,0,1,.472-.4l3.938-1.633a1.008,1.008,0,0,1,.62-.05l2.046.488,2.159-2.158-.488-2.046a1.007,1.007,0,0,1,.049-.62l1.629-3.934a1.008,1.008,0,0,1,.4-.473l1.789-1.1V47.332l-1.789-1.1a1.008,1.008,0,0,1-.4-.473l-1.629-3.934a1.007,1.007,0,0,1-.049-.62l.487-2.046L39.955,37l-2.043.485a1.009,1.009,0,0,1-.618-.049L33.355,35.8a1.009,1.009,0,0,1-.473-.4l-1.1-1.789H28.729L27.624,35.4a1.008,1.008,0,0,1-.472.4l-3.935,1.63a1.009,1.009,0,0,1-.618.05L20.552,37l-2.159,2.159.488,2.046a1.009,1.009,0,0,1-.049.62L17.2,45.757a1.007,1.007,0,0,1-.4.473l-1.792,1.1v3.053l1.792,1.1a1.007,1.007,0,0,1,.4.473l1.63,3.934a1.008,1.008,0,0,1,.049.62l-.488,2.046,2.158,2.158,2.046-.487a1.009,1.009,0,0,1,.62.05l3.935,1.633a1.008,1.008,0,0,1,.471.4Zm1.524-4.6A10.649,10.649,0,1,1,40.9,48.859,10.649,10.649,0,0,1,30.253,59.508Zm0-19.282a8.632,8.632,0,1,0,8.632,8.632A8.633,8.633,0,0,0,30.253,40.226ZM59.5,44.539H56.746a1.009,1.009,0,0,1-.859-.48l-.751-1.219-1.991-.825-1.394.332a1.008,1.008,0,0,1-.947-.269l-1.947-1.951a1.008,1.008,0,0,1-.267-.946l.332-1.39L48.1,35.8l-1.219-.751a1.008,1.008,0,0,1-.48-.859V31.431a1.008,1.008,0,0,1,.48-.859l1.219-.751.825-1.991-.332-1.394a1.009,1.009,0,0,1,.267-.945L50.8,23.54a1.008,1.008,0,0,1,.947-.269l1.394.332,1.991-.825.751-1.219a1.008,1.008,0,0,1,.859-.479H59.5a1.008,1.008,0,0,1,.859.48l.751,1.219,1.991.825,1.394-.332a1.008,1.008,0,0,1,.947.269l1.947,1.951a1.008,1.008,0,0,1,.267.945l-.332,1.394.825,1.991,1.219.751a1.008,1.008,0,0,1,.48.859v2.755a1.008,1.008,0,0,1-.48.859l-1.219.751-.826,1.994.332,1.39a1.009,1.009,0,0,1-.267.946l-1.947,1.951a1.01,1.01,0,0,1-.947.269l-1.394-.332-1.991.826-.751,1.219a1.009,1.009,0,0,1-.859.48Zm-2.2-2.017h1.631l.627-1.018a1.009,1.009,0,0,1,.473-.4l2.594-1.076a1.009,1.009,0,0,1,.62-.05l1.163.277L65.568,39.1l-.277-1.16a1.009,1.009,0,0,1,.049-.62l1.076-2.6a1.008,1.008,0,0,1,.4-.473l1.017-.627V31.995l-1.017-.626a1.008,1.008,0,0,1-.4-.472L65.341,28.3a1.007,1.007,0,0,1-.05-.62l.277-1.164-1.151-1.153-1.163.277a1.008,1.008,0,0,1-.62-.05l-2.594-1.076a1.008,1.008,0,0,1-.473-.4L58.942,23.1H57.31l-.627,1.018a1.009,1.009,0,0,1-.473.4l-2.594,1.076a1.008,1.008,0,0,1-.62.05l-1.163-.277-1.151,1.153.277,1.164a1.009,1.009,0,0,1-.05.62L49.834,30.9a1.008,1.008,0,0,1-.4.472L48.414,32v1.628l1.018.627a1.008,1.008,0,0,1,.4.473l1.076,2.6a1.009,1.009,0,0,1,.049.62l-.277,1.16,1.151,1.153L53,39.977a1.009,1.009,0,0,1,.62.05L56.211,41.1a1.008,1.008,0,0,1,.473.4Zm.816-3.132A6.581,6.581,0,1,1,64.7,32.81,6.581,6.581,0,0,1,58.125,39.39Zm0-11.145a4.564,4.564,0,1,0,4.562,4.566,4.564,4.564,0,0,0-4.562-4.566ZM69.174,80.308H45.579a5.068,5.068,0,0,1-4.389-7.6l5.9-10.215,5.9-10.216a5.069,5.069,0,0,1,8.779,0l5.9,10.216,5.9,10.216a5.068,5.068,0,0,1-4.386,7.6Zm-11.8-28.551a2.945,2.945,0,0,0-2.643,1.525L48.836,63.5l-5.9,10.216a3.051,3.051,0,0,0,2.643,4.576H69.174a3.051,3.051,0,0,0,2.64-4.575L65.917,63.5l-5.9-10.216a2.945,2.945,0,0,0-2.643-1.525Zm0,17.845A2.7,2.7,0,0,1,54.721,67l-.3-5.81a2.782,2.782,0,0,1,.78-2.071,2.992,2.992,0,0,1,4.341,0,2.781,2.781,0,0,1,.78,2.07L60.03,67a2.7,2.7,0,0,1-2.655,2.6Zm0-9.4a.984.984,0,0,0-.709.306.779.779,0,0,0-.227.579l.3,5.81a.642.642,0,1,0,1.28,0l.3-5.81a.778.778,0,0,0-.228-.578.984.984,0,0,0-.709-.306Zm0,15.53a2.656,2.656,0,1,1,2.656-2.656,2.656,2.656,0,0,1-2.656,2.656Zm0-3.295a.639.639,0,1,0,.639.639.639.639,0,0,0-.639-.639Z"/>
      <path id="Path_1328977" data-name="Path 1328977" d="M311.994,44.879l-1.076-2.594a1.007,1.007,0,0,1-.05-.62l.277-1.164-1.151-1.153-1.163.277a1.009,1.009,0,0,1-.62-.05L305.618,38.5a1.009,1.009,0,0,1-.473-.4l-.627-1.018h-1.632L302.26,38.1a1.009,1.009,0,0,1-.473.4l-2.594,1.076a1.009,1.009,0,0,1-.62.05l-1.163-.277L296.26,40.5l.277,1.164a1.008,1.008,0,0,1-.05.62l-1.076,2.594a1.008,1.008,0,0,1-.4.472l-1.017.627v1.628l1.017.627a1.009,1.009,0,0,1,.4.473l1.076,2.6a1.01,1.01,0,0,1,.049.62l-.277,1.16,1.151,1.153,1.163-.277a1.008,1.008,0,0,1,.62.05l2.594,1.076a1.008,1.008,0,0,1,.473.4l.627,1.018h1.632l.627-1.018a1.008,1.008,0,0,1,.473-.4l2.594-1.076a1.008,1.008,0,0,1,.62-.05l1.163.277,1.151-1.153-.277-1.16a1.008,1.008,0,0,1,.049-.62l1.076-2.6a1.008,1.008,0,0,1,.4-.473l1.017-.627V45.978l-1.017-.626A1.007,1.007,0,0,1,311.994,44.879ZM303.7,53.373a6.581,6.581,0,1,1,6.579-6.58,6.581,6.581,0,0,1-6.579,6.58Z" transform="translate(-245.577 -13.983)" fill="#bec7cf"/>
      <path id="Path_1328978" data-name="Path 1328978" d="M358.584,331.421a.985.985,0,0,0-.709.306.779.779,0,0,0-.227.579l.3,5.809a.642.642,0,1,0,1.28,0l.3-5.81a.778.778,0,0,0-.228-.578A.984.984,0,0,0,358.584,331.421Z" transform="translate(-301.209 -271.22)" fill="#ec4c36"/>
      <path id="Path_1328979" data-name="Path 1328979" d="M360.649,428.478a.639.639,0,1,0,.639.639A.639.639,0,0,0,360.649,428.478Z" transform="translate(-303.274 -356.041)" fill="#ec4c36"/>
      <path id="Path_1328980" data-name="Path 1328980" d="M31.179,138.844l1.63,3.934a1.008,1.008,0,0,1,.049.62l-.488,2.046,2.158,2.158,2.046-.487a1.009,1.009,0,0,1,.62.05l3.935,1.633a1.008,1.008,0,0,1,.471.4l1.105,1.79h3.051l1.1-1.789a1.009,1.009,0,0,1,.472-.4l3.938-1.633a1.008,1.008,0,0,1,.62-.05l2.046.488,2.159-2.157-.488-2.046a1.007,1.007,0,0,1,.049-.62l1.629-3.934a1.009,1.009,0,0,1,.4-.473l1.789-1.1v-3.054l-1.789-1.1a1.008,1.008,0,0,1-.4-.473l-1.629-3.934a1.007,1.007,0,0,1-.049-.62l.487-2.046-2.162-2.159-2.043.485a1.009,1.009,0,0,1-.618-.049l-3.938-1.629a1.009,1.009,0,0,1-.473-.4l-1.1-1.789H42.706l-1.105,1.79a1.009,1.009,0,0,1-.472.4l-3.935,1.63a1.01,1.01,0,0,1-.618.05l-2.046-.485L32.37,126.04l.488,2.046a1.009,1.009,0,0,1-.049.62l-1.63,3.934a1.007,1.007,0,0,1-.4.473l-1.792,1.1v3.053l1.792,1.1a1.007,1.007,0,0,1,.4.472ZM44.23,125.093a10.649,10.649,0,1,1-10.646,10.648A10.649,10.649,0,0,1,44.23,125.093Z" transform="translate(-13.977 -86.883)" fill="#bec7cf"/>
      <g id="Group_1204998" data-name="Group 1204998" transform="translate(30.255 23.096)">
        <path id="Path_1328981" data-name="Path 1328981" d="M163,132.64l-1.629-3.934a1.007,1.007,0,0,1-.049-.62l.487-2.046-2.162-2.159-2.043.485a1.008,1.008,0,0,1-.618-.049l-3.938-1.629a1.008,1.008,0,0,1-.473-.4l-1.1-1.789h-1.525v4.6a10.649,10.649,0,1,1,0,21.3v4.6h1.525l1.1-1.789a1.009,1.009,0,0,1,.472-.4l3.938-1.633a1.009,1.009,0,0,1,.62-.05l2.046.488,2.158-2.157-.488-2.046a1.007,1.007,0,0,1,.049-.62L163,138.843a1.009,1.009,0,0,1,.4-.473l1.789-1.1v-3.054l-1.789-1.1A1.008,1.008,0,0,1,163,132.64Z" transform="translate(-149.945 -109.979)" fill="#abb3ba"/>
        <path id="Path_1328982" data-name="Path 1328982" d="M379.322,44.879l-1.076-2.594a1.007,1.007,0,0,1-.05-.62l.277-1.164-1.151-1.153-1.163.277a1.009,1.009,0,0,1-.62-.05L372.946,38.5a1.009,1.009,0,0,1-.473-.4l-.627-1.018h-.816v3.132a6.581,6.581,0,1,1,0,13.162v3.132h.815l.627-1.018a1.008,1.008,0,0,1,.473-.4l2.594-1.076a1.008,1.008,0,0,1,.62-.05l1.163.277,1.151-1.153-.277-1.16a1.008,1.008,0,0,1,.049-.62l1.076-2.6a1.008,1.008,0,0,1,.4-.473l1.017-.627V45.978l-1.017-.626a1.007,1.007,0,0,1-.4-.473Z" transform="translate(-343.16 -37.079)" fill="#abb3ba"/>
      </g>
    </g>
  </g>
</svg>
