<svg xmlns="http://www.w3.org/2000/svg" width="96.344" height="96.344" viewBox="0 0 96.344 96.344">
  <g id="Group_1205058" data-name="Group 1205058" transform="translate(-1065.573 -3643.001)">
    <g id="Group_1204886" data-name="Group 1204886" transform="translate(43.606 545.346)">
      <g id="Group_1200255" data-name="Group 1200255" transform="translate(1021.967 3097.655)">
        <g id="Group_1187152" data-name="Group 1187152">
          <g id="Group_1185946" data-name="Group 1185946">
            <g id="Group_1184280" data-name="Group 1184280">
              <g id="Group_1182168" data-name="Group 1182168">
                <g id="Group_1178877" data-name="Group 1178877">
                  <g id="Group_1111311" data-name="Group 1111311">
                    <g id="Group_1098742" data-name="Group 1098742" transform="translate(0 0)">
                      <g id="Rectangle_400898" data-name="Rectangle 400898" transform="translate(0.001 0)" fill="#c5aaf1" stroke="#615478" stroke-width="0.5" opacity="0.859">
                        <rect width="96.344" height="96.344" rx="48.172" stroke="none"/>
                        <rect x="0.25" y="0.25" width="95.844" height="95.844" rx="47.922" fill="none"/>
                      </g>
                      <g id="Rectangle_400907" data-name="Rectangle 400907" transform="translate(0 0)" fill="none" stroke="#615478" stroke-width="0.5">
                        <rect width="96.344" height="96.344" rx="48.172" stroke="none"/>
                        <rect x="0.25" y="0.25" width="95.844" height="95.844" rx="47.922" fill="none"/>
                      </g>
                    </g>
                  </g>
                </g>
              </g>
            </g>
          </g>
        </g>
      </g>
    </g>
    <g id="prueba" transform="translate(1083.745 3634.133)">
      <g id="Group_1205055" data-name="Group 1205055" transform="translate(0.879 31.506)">
        <path id="Path_1329143" data-name="Path 1329143" d="M275.469,44.353V71.627L260.5,73.146,247.52,71.627l-1.126-11.789L247.52,42.88l25.377.178C273.868,43.058,275.469,43.846,275.469,44.353Z" transform="translate(-218.399 -42.321)" fill="#fe93d3"/>
        <path id="Path_1329144" data-name="Path 1329144" d="M268.988,288.19v17.564c0,1.434-1.74,3.851-2.711,3.851l-1.064.347H241.039l-1.986-10.113,1.986-11.649Z" transform="translate(-211.918 -258.884)" fill="#66c6a6"/>
        <path id="Path_1329145" data-name="Path 1329145" d="M36.621,278.69v21.762H9.258A1.758,1.758,0,0,1,7.5,298.694v-20l17.407-1.261Z" transform="translate(-7.5 -249.384)" fill="#ffef57"/>
        <path id="Path_1329146" data-name="Path 1329146" d="M36.621,41.5V70.25H7.5V48.485l1.172-5.407A1.758,1.758,0,0,1,10.43,41.32Z" transform="translate(-7.5 -40.944)" fill="#b2e5fb"/>
        <path id="Path_1329147" data-name="Path 1329147" d="M65.28,40.3v4.973l-3.121.374L7.5,45.654V39.872a1.758,1.758,0,0,1,1.758-1.758H60.483l2.737.122A2.318,2.318,0,0,1,65.28,40.3Z" transform="translate(-7.5 -38.114)" fill="#756e78"/>
        <g id="Group_1205052" data-name="Group 1205052" transform="translate(49.271 0)">
          <path id="Path_1329148" data-name="Path 1329148" d="M458.463,94.715v21.777l-3.056.989-3.056-.989V94.715l3.662-1.015Z" transform="translate(-449.492 -87.186)" fill="#fe73c5"/>
          <path id="Path_1329149" data-name="Path 1329149" d="M440.933,288.19v20c0,.97-1.343,1.758-3,1.758h-5.439l.634-.22c1.05-.363,1.693-1.025,1.693-1.74v-19.8Z" transform="translate(-431.962 -258.884)" fill="#50b29f"/>
          <path id="Path_1329150" data-name="Path 1329150" d="M436.915,39.872v5.771H430.8v-5.25c0-.846-.791-1.624-2.061-2.026l-.8-.253h5.973C435.572,38.114,436.915,38.9,436.915,39.872Z" transform="translate(-427.944 -38.114)" fill="#655f66"/>
        </g>
        <path id="Path_1329151" data-name="Path 1329151" d="M134.7,138.736a7.421,7.421,0,0,1-1,3.734l-2.291-.358-1.518-1.84a3.069,3.069,0,0,0-2.658-4.6l-.556-1.734.556-2.663A7.467,7.467,0,0,1,134.7,138.736Z" transform="translate(-112.711 -120.353)" fill="#ffef57"/>
        <path id="Path_1329152" data-name="Path 1329152" d="M75.176,131.27v4.4a3.069,3.069,0,0,0-2.659,4.6l-1.239,2.2H68.71a7.467,7.467,0,0,1,6.466-11.2Z" transform="translate(-60.654 -120.353)" fill="#fe93d3"/>
        <path id="Path_1329153" data-name="Path 1329153" d="M89.173,210.278a7.468,7.468,0,0,1-12.933,0l3.807-2.2a3.069,3.069,0,0,0,5.317,0Z" transform="translate(-68.185 -188.162)" fill="#7ec8ed"/>
        <g id="Group_1205053" data-name="Group 1205053" transform="translate(34.726 10.917)">
          <path id="Path_1329154" data-name="Path 1329154" d="M308.3,220.044h-4.234a.234.234,0,0,1-.234-.234v-4.661a.234.234,0,0,1,.234-.234H308.3l1.242,2.565Z" transform="translate(-303.83 -205.112)" fill="#f9db48"/>
          <path id="Path_1329155" data-name="Path 1329155" d="M346.425,195.923h-4.468v-8.1a.234.234,0,0,1,.234-.234h4.234l1.142,5.035Z" transform="translate(-337.489 -180.991)" fill="#f2c853"/>
          <path id="Path_1329156" data-name="Path 1329156" d="M384.553,171.064h-4.468v-11.4a.234.234,0,0,1,.234-.234h4.234l1.041,7.236Z" transform="translate(-371.149 -156.132)" fill="#f9db48"/>
          <path id="Path_1329157" data-name="Path 1329157" d="M422.446,146.206h-4.234v-14.7a.234.234,0,0,1,.234-.234h4a.234.234,0,0,1,.234.234v14.463A.234.234,0,0,1,422.446,146.206Z" transform="translate(-404.808 -131.274)" fill="#ffef57"/>
        </g>
        <g id="Group_1205054" data-name="Group 1205054" transform="translate(4.742 35.798)">
          <circle id="Ellipse_12638" data-name="Ellipse 12638" cx="1.805" cy="1.805" r="1.805" fill="#fe93d3"/>
          <circle id="Ellipse_12639" data-name="Ellipse 12639" cx="1.805" cy="1.805" r="1.805" transform="translate(5.157 5.157)" fill="#fe93d3"/>
          <circle id="Ellipse_12640" data-name="Ellipse 12640" cx="1.805" cy="1.805" r="1.805" transform="translate(10.315)" fill="#fe93d3"/>
          <circle id="Ellipse_12641" data-name="Ellipse 12641" cx="1.805" cy="1.805" r="1.805" transform="translate(15.949 5.157)" fill="#fe93d3"/>
        </g>
        <path id="Path_1329158" data-name="Path 1329158" d="M307.079,333.79l.779,1.87-.779,1.87h-3a1.87,1.87,0,1,1,0-3.739Z" transform="translate(-267.674 -299.14)" fill="#40a089"/>
        <path id="Path_1329159" data-name="Path 1329159" d="M356.953,335.659a1.869,1.869,0,0,1-1.87,1.87H343.76V333.79h11.323a1.869,1.869,0,0,1,1.87,1.869Z" transform="translate(-304.355 -299.14)" fill="#f5f8f9"/>
        <path id="Path_1329160" data-name="Path 1329160" d="M315.52,398.38l.862,1.87-.862,1.87H304.08a1.87,1.87,0,0,1,0-3.741Z" transform="translate(-267.674 -356.161)" fill="#40a089"/>
        <path id="Path_1329161" data-name="Path 1329161" d="M420.542,400.25a1.87,1.87,0,0,1-1.87,1.87H415.79V398.38h2.882A1.87,1.87,0,0,1,420.542,400.25Z" transform="translate(-367.943 -356.161)" fill="#f5f8f9"/>
      </g>
      <g id="Group_1205057" data-name="Group 1205057" transform="translate(0 30.629)">
        <path id="Path_1329162" data-name="Path 1329162" d="M57.21,30.629H29.282a.879.879,0,0,0,0,1.758H57.21a1.034,1.034,0,0,1,1.032,1.033v4.668H1.758V33.419A1.034,1.034,0,0,1,2.79,32.387H25.18a.879.879,0,0,0,0-1.758H2.79A2.794,2.794,0,0,0,0,33.419V80.66a2.793,2.793,0,0,0,2.79,2.79H19.705a.879.879,0,0,0,0-1.758H2.79A1.034,1.034,0,0,1,1.758,80.66V61.691H5.375a.879.879,0,0,0,0-1.758H1.758V39.845H29.121V59.933H9.477a.879.879,0,0,0,0,1.758H29.121v20H23.807a.879.879,0,1,0,0,1.758h33.4A2.793,2.793,0,0,0,60,80.66V33.419A2.793,2.793,0,0,0,57.21,30.629ZM58.242,80.66a1.034,1.034,0,0,1-1.032,1.033H30.879v-20H58.242Zm0-20.727H30.879V39.845H58.242Z" transform="translate(0 -30.629)"/>
        <path id="Path_1329163" data-name="Path 1329163" d="M68.555,140.464a8.345,8.345,0,1,0-8.345-8.345A8.354,8.354,0,0,0,68.555,140.464Zm0-1.758a6.579,6.579,0,0,1-5.21-2.564l2.318-1.338a3.94,3.94,0,0,0,5.784,0l2.318,1.338a6.578,6.578,0,0,1-5.21,2.564Zm.879-13.114a6.583,6.583,0,0,1,5.213,9.029l-2.318-1.339a3.949,3.949,0,0,0-2.895-5.013Zm1.312,6.527a2.191,2.191,0,1,1-2.191-2.191A2.193,2.193,0,0,1,70.746,132.119Zm-8.778,0a6.6,6.6,0,0,1,5.708-6.527v2.678a3.949,3.949,0,0,0-2.895,5.013l-2.318,1.338A6.548,6.548,0,0,1,61.968,132.119Z" transform="translate(-53.154 -112.859)"/>
        <path id="Path_1329164" data-name="Path 1329164" d="M299.443,140.46h17.872a.879.879,0,0,0,.879-.879v-5.415a.879.879,0,1,0-1.758,0V138.7h-2.711V125.528h2.711v4.536a.879.879,0,1,0,1.758,0v-5.415a.879.879,0,0,0-.879-.879h-4.468a.879.879,0,0,0-.879.879v2.421h-3.589a.879.879,0,0,0-.879.879v2.421h-3.589a.879.879,0,0,0-.879.879v2.323h-3.589a.879.879,0,0,0-.879.879v5.13A.879.879,0,0,0,299.443,140.46Zm9.815-11.632h2.71V138.7h-2.71Zm-4.468,3.3h2.71V138.7h-2.71Zm-4.468,3.2h2.71V138.7h-2.71Z" transform="translate(-263.576 -112.855)"/>
        <path id="Path_1329165" data-name="Path 1329165" d="M62.123,343.927a2.682,2.682,0,0,0-4.159-2.241l-1.745-1.745a2.684,2.684,0,1,0-4.829,0l-1.572,1.572a2.68,2.68,0,0,0-2.343,0L45.9,339.941a2.685,2.685,0,1,0-1.243,1.243l1.572,1.571a2.684,2.684,0,1,0,4.829,0l1.572-1.572a2.68,2.68,0,0,0,2.343,0l1.912,1.912a2.684,2.684,0,1,0,5.235.831ZM43.49,339.7a.926.926,0,1,1,.926-.926A.927.927,0,0,1,43.49,339.7Zm5.157,5.157a.926.926,0,1,1,.926-.926A.927.927,0,0,1,48.647,344.853ZM53.8,339.7a.926.926,0,1,1,.926-.926A.927.927,0,0,1,53.8,339.7Zm4.708,4.231a.926.926,0,1,1,.926.926A.927.927,0,0,1,58.513,343.927Z" transform="translate(-36.024 -300.29)"/>
        <path id="Path_1329166" data-name="Path 1329166" d="M298.434,331.785h14.322a2.749,2.749,0,1,0,0-5.5H298.434a2.749,2.749,0,0,0,0,5.5Zm3.878-3.74h10.444a.991.991,0,1,1,0,1.982H302.312Zm-3.878,0h2.121v1.982h-2.121a.991.991,0,0,1,0-1.982Z" transform="translate(-261.034 -291.64)"/>
        <path id="Path_1329167" data-name="Path 1329167" d="M298.434,396.381h14.322a2.749,2.749,0,1,0,0-5.5H298.434a2.749,2.749,0,0,0,0,5.5Zm12.319-3.74h2a.991.991,0,1,1,0,1.982h-2Zm-12.319,0h10.561v1.982H298.434a.991.991,0,0,1,0-1.982Z" transform="translate(-261.034 -348.666)"/>
        <g id="Group_1205056" data-name="Group 1205056" transform="translate(4.051 3.73)">
          <circle id="Ellipse_12642" data-name="Ellipse 12642" cx="0.879" cy="0.879" r="0.879"/>
          <circle id="Ellipse_12643" data-name="Ellipse 12643" cx="0.879" cy="0.879" r="0.879" transform="translate(3.998)"/>
          <circle id="Ellipse_12644" data-name="Ellipse 12644" cx="0.879" cy="0.879" r="0.879" transform="translate(7.997)"/>
        </g>
      </g>
    </g>
  </g>
</svg>
