<svg xmlns="http://www.w3.org/2000/svg" xmlns:xlink="http://www.w3.org/1999/xlink" width="118" height="118" viewBox="0 0 118 118">
  <defs>
    <filter id="Rectangle_411831" x="0" y="0" width="118" height="118" filterUnits="userSpaceOnUse">
      <feOffset dy="3" input="SourceAlpha"/>
      <feGaussianBlur stdDeviation="3" result="blur"/>
      <feFlood flood-opacity="0.161"/>
      <feComposite operator="in" in2="blur"/>
      <feComposite in="SourceGraphic"/>
    </filter>
  </defs>
  <g id="Group_1204991" data-name="Group 1204991" transform="translate(-1109.781 -4933.65)">
    <g id="Group_1204778" data-name="Group 1204778" transform="translate(783 1081.65)">
      <g transform="matrix(1, 0, 0, 1, 326.78, 3852)" filter="url(#Rectangle_411831)">
        <g id="Rectangle_411831-2" data-name="Rectangle 411831" transform="translate(9 6)" fill="#37f1e9" stroke="#fff" stroke-width="2">
          <path d="M5,0H68a32,32,0,0,1,32,32V95a5,5,0,0,1-5,5H32A32,32,0,0,1,0,68V5A5,5,0,0,1,5,0Z" stroke="none"/>
          <path d="M5,1H68A31,31,0,0,1,99,32V95a4,4,0,0,1-4,4H32A31,31,0,0,1,1,68V5A4,4,0,0,1,5,1Z" fill="none"/>
        </g>
      </g>
    </g>
    <g id="contenido" transform="translate(1135.703 4917.438)">
      <g id="Group_1204989" data-name="Group 1204989" transform="translate(0.971 46.683)">
        <path id="Path_1328906" data-name="Path 1328906" d="M70.722,163.83H8.654l-1.154.148v36.1a1.942,1.942,0,0,0,1.942,1.942h60.47a1.942,1.942,0,0,0,1.942-1.942v-36.1Z" transform="translate(-7.5 -149.507)" fill="#d8ecfe"/>
        <path id="Path_1328907" data-name="Path 1328907" d="M70.722,163.83H67.258v31.441a1.942,1.942,0,0,1-1.942,1.942H7.5v2.868a1.942,1.942,0,0,0,1.942,1.942h60.47a1.942,1.942,0,0,0,1.942-1.942v-36.1Z" transform="translate(-7.5 -149.507)" fill="#c4e2ff"/>
        <path id="Path_1328908" data-name="Path 1328908" d="M22.747,103.146H9.442A1.942,1.942,0,0,0,7.5,105.088v6.064H22.747Z" transform="translate(-7.5 -96.68)" fill="#0593fc"/>
        <path id="Path_1328909" data-name="Path 1328909" d="M370.261,103.146H352.524l4.09,4.09a1.158,1.158,0,0,1,.341.824v3.091H372.2v-6.064A1.942,1.942,0,0,0,370.261,103.146Z" transform="translate(-307.848 -96.68)" fill="#0593fc"/>
        <path id="Path_1328910" data-name="Path 1328910" d="M471.654,103.146H469v8.006h4.6v-6.064A1.942,1.942,0,0,0,471.654,103.146Z" transform="translate(-409.242 -96.68)" fill="#0182fc"/>
        <path id="Path_1328911" data-name="Path 1328911" d="M155.159,99.44a5.775,5.775,0,0,1-5.769-5.769v-6.9A5.775,5.775,0,0,1,155.159,81h3.211V64.593a1.3,1.3,0,0,0-.379-.916L147.9,53.592a1.3,1.3,0,0,0-.916-.379H125.545a1.3,1.3,0,0,0-1.295,1.295V98.274a1.3,1.3,0,0,0,1.295,1.295h29.614l.024-.129Z" transform="translate(-109.132 -53.213)" fill="#fff0ad"/>
        <g id="Group_1204986" data-name="Group 1204986" transform="translate(15.118 0.118)">
          <path id="Path_1328912" data-name="Path 1328912" d="M358.642,128h3.211V111.6a1.3,1.3,0,0,0-.379-.916L358,107.208v20.831A5.8,5.8,0,0,1,358.642,128Z" transform="translate(-327.733 -100.334)" fill="#ffe177"/>
          <path id="Path_1328913" data-name="Path 1328913" d="M149.7,383H124.25v2.358a1.3,1.3,0,0,0,1.295,1.295h28.764c-.027-.024-.054-.049-.081-.074A5.9,5.9,0,0,1,149.7,383Z" transform="translate(-124.25 -340.415)" fill="#ffe177"/>
          <path id="Path_1328914" data-name="Path 1328914" d="M314.469,64.47,304.383,54.384a1.293,1.293,0,0,0-.379-.261v9.431a1.3,1.3,0,0,0,1.295,1.295h9.431A1.287,1.287,0,0,0,314.469,64.47Z" transform="translate(-280.728 -54.123)" fill="#ffe177"/>
        </g>
        <path id="Path_1328915" data-name="Path 1328915" d="M358,111.06h3.734a1.293,1.293,0,0,0-.261-.379L358,107.208Z" transform="translate(-312.615 -100.216)" fill="#ffd15b"/>
        <path id="Path_1328916" data-name="Path 1328916" d="M49.791,206.651H45.647A.648.648,0,0,1,45,206V201.86a.648.648,0,0,1,.647-.647h4.144a.647.647,0,0,1,.647.647V206A.647.647,0,0,1,49.791,206.651Z" transform="translate(-40.144 -182.049)" fill="#fff"/>
        <path id="Path_1328917" data-name="Path 1328917" d="M49.791,286.651H45.647A.648.648,0,0,1,45,286V281.86a.648.648,0,0,1,.647-.647h4.144a.647.647,0,0,1,.647.647V286A.647.647,0,0,1,49.791,286.651Z" transform="translate(-40.144 -251.69)" fill="#fff"/>
        <path id="Path_1328918" data-name="Path 1328918" d="M49.791,366.651H45.647A.648.648,0,0,1,45,366V361.86a.648.648,0,0,1,.647-.647h4.144a.647.647,0,0,1,.647.647V366A.647.647,0,0,1,49.791,366.651Z" transform="translate(-40.144 -321.331)" fill="#fff"/>
        <g id="Group_1204988" data-name="Group 1204988" transform="translate(40.129 27.656)">
          <path id="Path_1328919" data-name="Path 1328919" d="M331.1,285.5H323.3a5.9,5.9,0,0,1-5.9-5.9v-6.9a5.9,5.9,0,0,1,5.9-5.9H331.1a5.9,5.9,0,0,1,5.9,5.9v6.9A5.9,5.9,0,0,1,331.1,285.5Z" transform="translate(-317.406 -266.796)" fill="#7a6d79"/>
          <g id="Group_1204987" data-name="Group 1204987" transform="translate(0.443 0.383)">
            <path id="Path_1328920" data-name="Path 1328920" d="M336.165,269.755v12.074a2.59,2.59,0,0,1-2.59,2.59H320.824a5.9,5.9,0,0,0,5.455,3.653h7.794a5.9,5.9,0,0,0,5.9-5.9v-6.9A5.9,5.9,0,0,0,336.165,269.755Z" transform="translate(-320.824 -269.755)" fill="#685e68"/>
          </g>
          <path id="Path_1328921" data-name="Path 1328921" d="M351.79,306.714v-3.763a1.769,1.769,0,0,1,1.769-1.769h7.147a1.769,1.769,0,0,1,1.769,1.769v3.763a1.769,1.769,0,0,1-1.769,1.769h-7.147A1.769,1.769,0,0,1,351.79,306.714Z" transform="translate(-347.338 -296.729)" fill="#00f2a6"/>
          <path id="Path_1328922" data-name="Path 1328922" d="M360.706,301.182h-1.081v2.66a1.769,1.769,0,0,1-1.769,1.769H351.79v1.1a1.769,1.769,0,0,0,1.769,1.769h7.147a1.769,1.769,0,0,0,1.769-1.769v-3.763A1.77,1.77,0,0,0,360.706,301.182Z" transform="translate(-347.338 -296.729)" fill="#05e39c"/>
        </g>
      </g>
      <g id="Group_1204990" data-name="Group 1204990" transform="translate(0 45.712)">
        <path id="Path_1328923" data-name="Path 1328923" d="M467.61,128.5a.971.971,0,0,0,0-1.942h-.129a.971.971,0,1,0,0,1.942Z" transform="translate(-406.102 -116.091)"/>
        <path id="Path_1328924" data-name="Path 1328924" d="M441.572,127.531a.971.971,0,0,0-.971-.971h-.129a.971.971,0,0,0,0,1.942h.129A.971.971,0,0,0,441.572,127.531Z" transform="translate(-382.591 -116.091)"/>
        <path id="Path_1328925" data-name="Path 1328925" d="M413.462,126.56a.971.971,0,1,0,0,1.942h.129a.971.971,0,1,0,0-1.942Z" transform="translate(-359.079 -116.091)"/>
        <path id="Path_1328926" data-name="Path 1328926" d="M168.946,310.208h14.409a.971.971,0,1,0,0-1.942H168.946a.971.971,0,1,0,0,1.942Z" transform="translate(-146.225 -274.269)"/>
        <path id="Path_1328927" data-name="Path 1328927" d="M168.946,347.8h1.071a.971.971,0,1,0,0-1.942h-1.071a.971.971,0,1,0,0,1.942Z" transform="translate(-146.225 -306.992)"/>
        <path id="Path_1328928" data-name="Path 1328928" d="M202.946,345.857a.971.971,0,1,0,0,1.942h1.072a.971.971,0,1,0,0-1.942Z" transform="translate(-175.822 -306.992)"/>
        <path id="Path_1328929" data-name="Path 1328929" d="M242.55,345.857h-5.6a.971.971,0,1,0,0,1.942h5.6a.971.971,0,1,0,0-1.942Z" transform="translate(-205.419 -306.992)"/>
        <path id="Path_1328930" data-name="Path 1328930" d="M311.041,202.489h-2.819a.971.971,0,0,0,0,1.942h2.819a.971.971,0,0,0,0-1.942Z" transform="translate(-267.465 -182.188)"/>
        <path id="Path_1328931" data-name="Path 1328931" d="M168.946,204.431h14.668a.971.971,0,0,0,0-1.942H168.946a.971.971,0,0,0,0,1.942Z" transform="translate(-146.225 -182.188)"/>
        <path id="Path_1328932" data-name="Path 1328932" d="M168.946,166.839H189.8a.971.971,0,1,0,0-1.942H168.946a.971.971,0,1,0,0,1.942Z" transform="translate(-146.225 -149.464)"/>
        <path id="Path_1328933" data-name="Path 1328933" d="M168.946,129.247h11.807a.971.971,0,0,0,0-1.942H168.946a.971.971,0,1,0,0,1.942Z" transform="translate(-146.225 -116.74)"/>
        <path id="Path_1328934" data-name="Path 1328934" d="M168.946,91.655h11.807a.971.971,0,0,0,0-1.942H168.946a.971.971,0,0,0,0,1.942Z" transform="translate(-146.225 -84.015)"/>
        <path id="Path_1328935" data-name="Path 1328935" d="M168.946,272.616h14.409a.971.971,0,1,0,0-1.942H168.946a.971.971,0,1,0,0,1.942Z" transform="translate(-146.225 -241.544)"/>
        <path id="Path_1328936" data-name="Path 1328936" d="M44.881,195.332a1.62,1.62,0,0,0-1.619-1.619H39.119a1.62,1.62,0,0,0-1.619,1.619v4.144a1.62,1.62,0,0,0,1.619,1.619h4.144a1.62,1.62,0,0,0,1.619-1.619Zm-1.942,3.82h-3.5v-3.5h3.5Z" transform="translate(-32.644 -174.549)"/>
        <path id="Path_1328937" data-name="Path 1328937" d="M44.881,275.332a1.62,1.62,0,0,0-1.619-1.619H39.119a1.62,1.62,0,0,0-1.619,1.619v4.144a1.62,1.62,0,0,0,1.619,1.619h4.144a1.62,1.62,0,0,0,1.619-1.619Zm-1.942,3.82h-3.5v-3.5h3.5Z" transform="translate(-32.644 -244.19)"/>
        <path id="Path_1328938" data-name="Path 1328938" d="M43.262,353.713H39.119a1.62,1.62,0,0,0-1.619,1.619v4.144a1.62,1.62,0,0,0,1.619,1.619h4.144a1.62,1.62,0,0,0,1.619-1.619v-4.144A1.62,1.62,0,0,0,43.262,353.713Zm-.324,5.438h-3.5v-3.5h3.5Z" transform="translate(-32.644 -313.831)"/>
        <path id="Path_1328939" data-name="Path 1328939" d="M63.384,52.178H46.233l-5.8-5.8a2.251,2.251,0,0,0-1.6-.663H17.384a2.269,2.269,0,0,0-2.266,2.266v4.2H2.913A2.917,2.917,0,0,0,0,55.091V97.257a2.917,2.917,0,0,0,2.913,2.913H48.557a.971.971,0,1,0,0-1.942H2.913a.972.972,0,0,1-.971-.971V62.126H15.118v14.7a.971.971,0,1,0,1.942,0V47.978a.324.324,0,0,1,.324-.324h21.01v8.578A2.269,2.269,0,0,0,40.659,58.5h8.578v14.87H47.852V72.063a.971.971,0,1,0-1.942,0v1.393a6.879,6.879,0,0,0-5.781,6.782v6.9a6.848,6.848,0,0,0,2.09,4.927H17.384a.324.324,0,0,1-.324-.324V81.358a.971.971,0,0,0-1.942,0V91.745a2.269,2.269,0,0,0,2.266,2.266H54.792a6.877,6.877,0,0,0,6.869-6.869v-6.9a6.88,6.88,0,0,0-5.781-6.782V72.063a.971.971,0,0,0-1.942,0v1.306H51.18V62.126h3.593a.971.971,0,1,0,0-1.942H51.18v-2.12a2.252,2.252,0,0,0-.664-1.6L48.175,54.12H63.384a.972.972,0,0,1,.971.971v5.092H59.3a.971.971,0,1,0,0,1.942h5.05V97.257a.972.972,0,0,1-.971.971H53.089a.971.971,0,1,0,0,1.942H63.384A2.917,2.917,0,0,0,66.3,97.257V55.091a2.917,2.917,0,0,0-2.913-2.913ZM15.118,60.184H1.942V55.091a.972.972,0,0,1,.971-.971h12.2ZM54.792,75.311a4.933,4.933,0,0,1,4.927,4.927v6.9a4.933,4.933,0,0,1-4.927,4.927H47a4.933,4.933,0,0,1-4.927-4.927v-6.9A4.933,4.933,0,0,1,47,75.311ZM40.659,56.556a.324.324,0,0,1-.324-.324v-7.2l7.528,7.528Z" transform="translate(0 -45.712)"/>
        <path id="Path_1328940" data-name="Path 1328940" d="M344.29,296.423v3.763a2.744,2.744,0,0,0,2.741,2.741h7.147a2.744,2.744,0,0,0,2.741-2.741v-3.763a2.744,2.744,0,0,0-2.741-2.741h-7.147A2.744,2.744,0,0,0,344.29,296.423Zm1.942,0a.8.8,0,0,1,.8-.8h7.147a.8.8,0,0,1,.8.8v3.763a.8.8,0,0,1-.8.8h-7.147a.8.8,0,0,1-.8-.8Z" transform="translate(-299.709 -261.573)"/>
        <path id="Path_1328941" data-name="Path 1328941" d="M373.324,323.384a.971.971,0,0,0,.971-.971v-.152a.971.971,0,0,0-1.942,0v.152A.971.971,0,0,0,373.324,323.384Z" transform="translate(-324.138 -285.606)"/>
        <path id="Path_1328942" data-name="Path 1328942" d="M399.722,323.384a.971.971,0,0,0,.971-.971v-.152a.971.971,0,0,0-1.942,0v.152A.971.971,0,0,0,399.722,323.384Z" transform="translate(-347.118 -285.606)"/>
      </g>
    </g>
  </g>
</svg>
