<svg xmlns="http://www.w3.org/2000/svg" xmlns:xlink="http://www.w3.org/1999/xlink" width="118" height="118" viewBox="0 0 118 118">
  <defs>
    <filter id="Rectangle_411831" x="0" y="0" width="118" height="118" filterUnits="userSpaceOnUse">
      <feOffset dy="3" input="SourceAlpha"/>
      <feGaussianBlur stdDeviation="3" result="blur"/>
      <feFlood flood-opacity="0.161"/>
      <feComposite operator="in" in2="blur"/>
      <feComposite in="SourceGraphic"/>
    </filter>
  </defs>
  <g id="Group_1205004" data-name="Group 1205004" transform="translate(-540 6691)">
    <g id="Group_1204782" data-name="Group 1204782" transform="translate(213.219 -10543)">
      <g transform="matrix(1, 0, 0, 1, 326.78, 3852)" filter="url(#Rectangle_411831)">
        <g id="Rectangle_411831-2" data-name="Rectangle 411831" transform="translate(9 6)" fill="#37f1e9" stroke="#fff" stroke-width="2">
          <path d="M5,0H68a32,32,0,0,1,32,32V95a5,5,0,0,1-5,5H32A32,32,0,0,1,0,68V5A5,5,0,0,1,5,0Z" stroke="none"/>
          <path d="M5,1H68A31,31,0,0,1,99,32V95a4,4,0,0,1-4,4H32A31,31,0,0,1,1,68V5A4,4,0,0,1,5,1Z" fill="none"/>
        </g>
      </g>
    </g>
    <g id="asistente-de-ai" transform="translate(566 -6673.947)">
      <g id="Group_1205001" data-name="Group 1205001" transform="translate(0.966 7.912)">
        <path id="Path_1328983" data-name="Path 1328983" d="M56.435,350.8H10.84A3.337,3.337,0,0,1,7.5,347.464V337.126a7.769,7.769,0,0,1,7.769-7.769H48.666a7.769,7.769,0,0,1,7.769,7.769V350.8Z" transform="translate(-7.503 -288.817)" fill="#fee97d"/>
        <path id="Path_1328984" data-name="Path 1328984" d="M160.92,282.018h9.432v6.094H160.92Z" transform="translate(-141.17 -247.572)" fill="#ffe5c2"/>
        <path id="Path_1328985" data-name="Path 1328985" d="M207.08,282.016h3.49v6.094h-3.49Z" transform="translate(-181.388 -247.571)" fill="#fed2a4"/>
        <path id="Path_1328986" data-name="Path 1328986" d="M121.672,329.357l-6.266,5.337a1.718,1.718,0,0,1-2.663-.566l-2.282-4.771Z" transform="translate(-97.206 -288.817)" fill="#d9b1ee"/>
        <path id="Path_1328987" data-name="Path 1328987" d="M197.553,329.357l6.266,5.337a1.718,1.718,0,0,0,2.663-.566l2.282-4.771Z" transform="translate(-173.087 -288.817)" fill="#cb97e7"/>
        <path id="Path_1328988" data-name="Path 1328988" d="M254.871,350.8H226.979l4.734-18.563a3.828,3.828,0,0,1,3.709-2.882h24.041a3.021,3.021,0,0,1,2.927,3.768l-3.764,14.758A3.876,3.876,0,0,1,254.871,350.8Z" transform="translate(-198.725 -288.817)" fill="#8d9ca8"/>
        <path id="Path_1328989" data-name="Path 1328989" d="M416.266,333.124,412.5,347.882a3.877,3.877,0,0,1-3.756,2.918H403.59a3.875,3.875,0,0,0,3.756-2.918l3.764-14.758a3.021,3.021,0,0,0-2.927-3.768h5.156A3.022,3.022,0,0,1,416.266,333.124Z" transform="translate(-352.6 -288.816)" fill="#7a8c98"/>
        <path id="Path_1328990" data-name="Path 1328990" d="M134.831,462.257H123.7a2.488,2.488,0,1,1,0-4.977h12.4Z" transform="translate(-106.577 -400.272)" fill="#7a8c98"/>
        <circle id="Ellipse_12622" data-name="Ellipse 12622" cx="2.676" cy="2.676" r="2.676" transform="translate(44.592 48.738)" fill="#d8ecfe"/>
        <path id="Path_1328991" data-name="Path 1328991" d="M122.457,110.995H105.981a4.075,4.075,0,0,1-4.075-4.075V89.8a4.076,4.076,0,0,1,4.075-4.075h16.475a4.076,4.076,0,0,1,4.075,4.075v17.119A4.076,4.076,0,0,1,122.457,110.995Z" transform="translate(-89.753 -76.549)" fill="#d9b1ee"/>
        <path id="Path_1328992" data-name="Path 1328992" d="M226.964,89.8v17.118A4.075,4.075,0,0,1,222.888,111h-5.711a3.993,3.993,0,0,0,4.019-4.076V89.8a3.993,3.993,0,0,0-4.019-4.076h5.711A4.075,4.075,0,0,1,226.964,89.8Z" transform="translate(-190.185 -76.55)" fill="#cb97e7"/>
        <g id="Group_1205000" data-name="Group 1205000" transform="translate(0 7.521)">
          <circle id="Ellipse_12623" data-name="Ellipse 12623" cx="1.987" cy="1.987" r="1.987" transform="translate(47.078 24.391)" fill="#60b7ff"/>
          <circle id="Ellipse_12624" data-name="Ellipse 12624" cx="1.987" cy="1.987" r="1.987" transform="translate(0 12.302)" fill="#60b7ff"/>
          <circle id="Ellipse_12625" data-name="Ellipse 12625" cx="1.987" cy="1.987" r="1.987" transform="translate(1.14)" fill="#60b7ff"/>
          <circle id="Ellipse_12626" data-name="Ellipse 12626" cx="1.987" cy="1.987" r="1.987" transform="translate(1.14 24.391)" fill="#60b7ff"/>
        </g>
        <path id="Path_1328993" data-name="Path 1328993" d="M353.5,14.446c-5.672,0-10.271,4.018-10.271,8.974a9.041,9.041,0,0,0,6.23,8.252l-.855,2.5a.562.562,0,0,0,.821.665l4.075-2.439c5.672,0,10.271-4.018,10.271-8.974s-4.6-8.974-10.271-8.974Z" transform="translate(-300.013 -14.446)" fill="#d8ecfe"/>
        <path id="Path_1328994" data-name="Path 1328994" d="M399.931,23.42c0,4.956-4.6,8.974-10.272,8.974l-4.074,2.44a.563.563,0,0,1-.821-.666l.642-1.877c4.916-.651,8.606-4.346,8.606-8.839,0-4.074-3.037-7.537-7.27-8.639a11.691,11.691,0,0,1,2.917-.367c5.673,0,10.272,4.018,10.272,8.974Z" transform="translate(-336.169 -14.446)" fill="#c4e2ff"/>
      </g>
      <g id="Group_1205003" data-name="Group 1205003" transform="translate(0 6.947)">
        <path id="Path_1328995" data-name="Path 1328995" d="M61.7,98.386H31.114V94.223h2.556a5.047,5.047,0,0,0,5.041-5.041V87.907h5.738a.9.9,0,0,1,.686.318l2.427,2.868a2.953,2.953,0,1,0,1.53-1.182l-2.483-2.934a2.825,2.825,0,0,0-2.16-1H38.71V81.588h5.954a.966.966,0,0,0,0-1.931H38.71V72.063a5.047,5.047,0,0,0-5.041-5.041H17.194a5.047,5.047,0,0,0-5.041,5.041v1.061H9.675a.9.9,0,0,1-.686-.318L6.561,69.937a2.953,2.953,0,1,0-1.53,1.182l2.483,2.934a2.825,2.825,0,0,0,2.16,1h2.478v4.6H5.743a2.953,2.953,0,1,0,0,1.931h6.41v4.388H9.675a2.825,2.825,0,0,0-2.16,1L5.031,89.912a2.958,2.958,0,1,0,1.53,1.182l2.427-2.868a.9.9,0,0,1,.686-.318h2.478v1.275a5.047,5.047,0,0,0,5.041,5.041H19.75v4.163H14.22a.973.973,0,0,0-.871,1.382l2.282,4.771a2.7,2.7,0,0,0,4.161.885l5.64-4.8,5.64,4.8a2.669,2.669,0,0,0,.941.516l-2.274,8.915H18.093a3.452,3.452,0,0,0-3.1,4.976H4.3a2.375,2.375,0,0,1-2.373-2.371V107.121a6.811,6.811,0,0,1,6.8-6.8H9.7a.966.966,0,0,0,0-1.931H8.735A8.745,8.745,0,0,0,0,107.121v10.339a4.308,4.308,0,0,0,4.3,4.3H57.111a4.839,4.839,0,0,0,4.692-3.645l3.764-14.758A4.009,4.009,0,0,0,61.7,98.386ZM51.053,92.711a1.022,1.022,0,1,1-2.044,0,1.035,1.035,0,0,1,1.022-1.022A1.023,1.023,0,0,1,51.053,92.711ZM3.071,68.32a1.022,1.022,0,0,1,2.044,0,1.035,1.035,0,0,1-1.022,1.022A1.023,1.023,0,0,1,3.071,68.32ZM2.953,81.644a1.022,1.022,0,1,1,1.022-1.022A1.023,1.023,0,0,1,2.953,81.644Zm1.14,12.088a1.022,1.022,0,0,1,0-2.044,1.035,1.035,0,0,1,1.022,1.022A1.023,1.023,0,0,1,4.093,93.732Zm9.992-4.551V72.063a3.113,3.113,0,0,1,3.11-3.11H33.669a3.113,3.113,0,0,1,3.11,3.11V89.182a3.113,3.113,0,0,1-3.11,3.11H17.194a3.113,3.113,0,0,1-3.11-3.11Zm7.6,5.041h7.5v4.163h-7.5Zm-3.141,9.731a.757.757,0,0,1-1.166-.248l-1.621-3.389h7.057Zm9.514-3.636h5.764a4.787,4.787,0,0,0-.8,1.678l-.527,2.067C32.432,104.033,28.054,100.317,28.054,100.317ZM16.57,118.308a1.525,1.525,0,0,1,1.523-1.523H29.247l-.777,3.045H18.089A1.524,1.524,0,0,1,16.57,118.308ZM63.7,102.881l-3.764,14.758a2.909,2.909,0,0,1-2.821,2.192H30.463l4.427-17.359a2.86,2.86,0,0,1,2.773-2.155H61.7A2.067,2.067,0,0,1,63.7,102.881Z" transform="translate(0 -57.846)"/>
        <path id="Path_1328996" data-name="Path 1328996" d="M350.029,385.543a3.641,3.641,0,1,0,3.642,3.642A3.646,3.646,0,0,0,350.029,385.543Zm0,5.352a1.71,1.71,0,1,1,1.711-1.711A1.712,1.712,0,0,1,350.029,390.895Z" transform="translate(-301.796 -336.805)"/>
        <path id="Path_1328997" data-name="Path 1328997" d="M142.215,143.653l.79,2.094a.966.966,0,1,0,1.807-.682l-4.119-10.916-.01-.027a1.212,1.212,0,0,0-1.125-.754h0a1.212,1.212,0,0,0-1.125.756l-.009.022-4.157,10.915a.966.966,0,0,0,1.8.687l.8-2.1h5.347Zm-2.661-7.052,1.932,5.121H137.6Z" transform="translate(-116.916 -117.094)"/>
        <path id="Path_1328998" data-name="Path 1328998" d="M234.359,146.372a.966.966,0,0,0,.966-.965V134.335a.966.966,0,0,0-1.931,0v11.071A.965.965,0,0,0,234.359,146.372Z" transform="translate(-203.348 -117.095)"/>
        <path id="Path_1328999" data-name="Path 1328999" d="M341.72,25.679l-.563,1.643a1.537,1.537,0,0,0,2.23,1.806l4.075-2.439a.966.966,0,0,0-.992-1.657l-3.13,1.873.5-1.454a.966.966,0,0,0-.575-1.217,8.072,8.072,0,0,1-5.6-7.348c0-4.416,4.174-8.009,9.305-8.009s9.305,3.593,9.305,8.009a7.951,7.951,0,0,1-5.229,7.2.966.966,0,1,0,.749,1.78,9.973,9.973,0,0,0,6.411-8.98c0-5.481-5.041-9.94-11.236-9.94s-11.236,4.459-11.236,9.94a9.84,9.84,0,0,0,5.989,8.793Z" transform="translate(-292.511 -6.947)"/>
        <g id="Group_1205002" data-name="Group 1205002" transform="translate(49.083 9.074)">
          <circle id="Ellipse_12627" data-name="Ellipse 12627" cx="0.957" cy="0.957" r="0.957"/>
          <circle id="Ellipse_12628" data-name="Ellipse 12628" cx="0.957" cy="0.957" r="0.957" transform="translate(4.799)"/>
          <circle id="Ellipse_12629" data-name="Ellipse 12629" cx="0.957" cy="0.957" r="0.957" transform="translate(9.822)"/>
        </g>
      </g>
    </g>
  </g>
</svg>
