<svg xmlns="http://www.w3.org/2000/svg" xmlns:xlink="http://www.w3.org/1999/xlink" width="118" height="118" viewBox="0 0 118 118">
  <defs>
    <filter id="Rectangle_411831" x="0" y="0" width="118" height="118" filterUnits="userSpaceOnUse">
      <feOffset dy="3" input="SourceAlpha"/>
      <feGaussianBlur stdDeviation="3" result="blur"/>
      <feFlood flood-opacity="0.161"/>
      <feComposite operator="in" in2="blur"/>
      <feComposite in="SourceGraphic"/>
    </filter>
  </defs>
  <g id="Group_1204921" data-name="Group 1204921" transform="translate(-236.051 -5652)">
    <g id="Group_1204669" data-name="Group 1204669" transform="translate(-90.73 1800)">
      <g transform="matrix(1, 0, 0, 1, 326.78, 3852)" filter="url(#Rectangle_411831)">
        <g id="Rectangle_411831-2" data-name="Rectangle 411831" transform="translate(9 6)" fill="#37f1e9" stroke="#fff" stroke-width="2">
          <path d="M5,0H68a32,32,0,0,1,32,32V95a5,5,0,0,1-5,5H32A32,32,0,0,1,0,68V5A5,5,0,0,1,5,0Z" stroke="none"/>
          <path d="M5,1H68A31,31,0,0,1,99,32V95a4,4,0,0,1-4,4H32A31,31,0,0,1,1,68V5A4,4,0,0,1,5,1Z" fill="none"/>
        </g>
      </g>
    </g>
    <g id="configuracion" transform="translate(241.051 5661)">
      <g id="Group_1204920" data-name="Group 1204920" transform="translate(57.328 34.034)">
        <ellipse id="Ellipse_12593" data-name="Ellipse 12593" cx="1.754" cy="2.193" rx="1.754" ry="2.193" transform="translate(10.525 37.713)" fill="#c7312e"/>
        <circle id="Ellipse_12594" data-name="Ellipse 12594" cx="2.193" cy="2.193" r="2.193" transform="translate(0 37.713)" fill="#c7312e"/>
        <ellipse id="Ellipse_12595" data-name="Ellipse 12595" cx="1.754" cy="2.193" rx="1.754" ry="2.193" transform="translate(21.927 20.172)" fill="#c7312e"/>
        <ellipse id="Ellipse_12596" data-name="Ellipse 12596" cx="1.754" cy="2.193" rx="1.754" ry="2.193" transform="translate(21.927 0)" fill="#c7312e"/>
      </g>
      <path id="Path_1328803" data-name="Path 1328803" d="M60.471,82.975h-6.1V76.069a23.217,23.217,0,0,1-5.216-2.112L44.2,78.908,35.05,69.757,40,64.8a23.216,23.216,0,0,1-2.112-5.216H32v-12.2h5.89A23.216,23.216,0,0,1,40,42.171L35.05,37.219,44.2,28.067l4.952,4.952a23.216,23.216,0,0,1,5.216-2.112V24h6.1Z" transform="translate(-6.983 -6.983)" fill="#3397e8"/>
      <circle id="Ellipse_12597" data-name="Ellipse 12597" cx="17.102" cy="17.102" r="17.102" transform="translate(36.279 29.649)" fill="#2978b8"/>
      <circle id="Ellipse_12598" data-name="Ellipse 12598" cx="13.156" cy="13.156" r="13.156" transform="translate(40.664 33.157)" fill="#e9eef2"/>
      <ellipse id="Ellipse_12599" data-name="Ellipse 12599" cx="1.754" cy="2.193" rx="1.754" ry="2.193" transform="translate(79.254 44.558)" fill="#c7312e"/>
      <circle id="Ellipse_12600" data-name="Ellipse 12600" cx="1.754" cy="1.754" r="1.754" transform="translate(67.852 17.37)" fill="#c7312e"/>
      <ellipse id="Ellipse_12601" data-name="Ellipse 12601" cx="2.193" cy="1.754" rx="2.193" ry="1.754" transform="translate(57.328 17.37)" fill="#c7312e"/>
      <path id="Path_1328804" data-name="Path 1328804" d="M53.488,32.269A14.235,14.235,0,1,0,67.723,46.5,14.252,14.252,0,0,0,53.488,32.269Zm0,26.437a12.2,12.2,0,1,1,12.2-12.2A12.216,12.216,0,0,1,53.488,58.706ZM78.066,47.521a3.05,3.05,0,1,0,0-2.034h-6.3a18.2,18.2,0,0,0-.69-4.067h1.736a1.017,1.017,0,0,0,.909-.562l1.753-3.505h2.6a3.05,3.05,0,1,0,0-2.034H74.841a1.017,1.017,0,0,0-.909.562l-1.753,3.505H70.35a18.361,18.361,0,0,0-3.643-5.529V27.813l3.505-1.753a1.017,1.017,0,0,0,.562-.909V21.926a3.05,3.05,0,1,0-2.034,0v2.6l-3.505,1.753a1.017,1.017,0,0,0-.562.909v4.843a18.313,18.313,0,0,0-4.067-2.385V21.926a3.05,3.05,0,1,0-2.034,0v6.995a18.211,18.211,0,0,0-4.067-.69V17.017A1.017,1.017,0,0,0,53.488,16h-6.1a1.017,1.017,0,0,0-1.017,1.017v6.141a24.262,24.262,0,0,0-4.013,1.626l-4.419-4.419a1.017,1.017,0,0,0-1.438,0l-9.151,9.151a1.017,1.017,0,0,0,0,1.438l4.419,4.419a24.274,24.274,0,0,0-1.626,4.013H25.017A1.017,1.017,0,0,0,24,40.4v12.2a1.017,1.017,0,0,0,1.017,1.017h5.124a24.284,24.284,0,0,0,1.626,4.013l-4.419,4.419a1.017,1.017,0,0,0,0,1.438L36.5,72.644a1.017,1.017,0,0,0,1.438,0l4.419-4.419a24.273,24.273,0,0,0,4.013,1.626v6.141a1.017,1.017,0,0,0,1.017,1.017h6.1A1.017,1.017,0,0,0,54.5,75.992V64.778a18.2,18.2,0,0,0,4.067-.69v6.995a3.05,3.05,0,1,0,2.034,0V63.367a18.313,18.313,0,0,0,4.067-2.385v4.843a1.017,1.017,0,0,0,.562.909l3.505,1.753v2.6a3.05,3.05,0,1,0,2.034,0V67.858a1.017,1.017,0,0,0-.562-.909L66.706,65.2V59.151a18.361,18.361,0,0,0,3.643-5.529h1.829l1.753,3.505a1.017,1.017,0,0,0,.909.562h3.225a3.05,3.05,0,1,0,0-2.034h-2.6l-1.753-3.505a1.017,1.017,0,0,0-.909-.562H71.071a18.211,18.211,0,0,0,.69-4.067Zm2.876-12.2a1.017,1.017,0,1,1-1.017,1.017A1.018,1.018,0,0,1,80.942,35.32ZM69.757,18.034A1.017,1.017,0,1,1,68.74,19.05,1.018,1.018,0,0,1,69.757,18.034Zm-10.168,0a1.017,1.017,0,1,1-1.017,1.017A1.018,1.018,0,0,1,59.589,18.034Zm0,56.942a1.017,1.017,0,1,1,1.017-1.017A1.018,1.018,0,0,1,59.589,74.975Zm10.168,0a1.017,1.017,0,1,1,1.017-1.017A1.018,1.018,0,0,1,69.757,74.975Zm11.185-19.32a1.017,1.017,0,1,1-1.017,1.017A1.018,1.018,0,0,1,80.942,55.656Zm0-10.168A1.017,1.017,0,1,1,79.925,46.5,1.018,1.018,0,0,1,80.942,45.488ZM37.219,46.5A16.269,16.269,0,1,1,53.488,62.774,16.287,16.287,0,0,1,37.219,46.5ZM48.4,74.975v-5.89a1.017,1.017,0,0,0-.752-.982,22.224,22.224,0,0,1-4.988-2.02,1.016,1.016,0,0,0-1.212.17l-4.233,4.233-7.713-7.713,4.233-4.233a1.017,1.017,0,0,0,.17-1.212,22.23,22.23,0,0,1-2.02-4.988,1.017,1.017,0,0,0-.982-.752H26.034V41.42h4.873a1.017,1.017,0,0,0,.982-.752,22.23,22.23,0,0,1,2.02-4.988,1.017,1.017,0,0,0-.17-1.212l-4.233-4.233,7.713-7.713,4.233,4.233a1.018,1.018,0,0,0,1.212.17,22.236,22.236,0,0,1,4.988-2.02,1.017,1.017,0,0,0,.752-.982v-5.89h4.067v10.2a18.3,18.3,0,0,0,0,36.548v10.2ZM58.572,41.42V51.589a1.017,1.017,0,0,1-2.034,0V41.42a1.017,1.017,0,0,1,2.034,0Zm-7.161-.292a1.017,1.017,0,0,0-1.948,0L46.413,51.3a1.017,1.017,0,1,0,1.948.584l.7-2.326h2.758l.7,2.326a1.017,1.017,0,1,0,1.948-.584Zm-1.743,6.393.769-2.562.769,2.562Z"/>
    </g>
  </g>
</svg>
