<svg xmlns="http://www.w3.org/2000/svg" xmlns:xlink="http://www.w3.org/1999/xlink" width="610" height="497" viewBox="0 0 610 497">
  <defs>
    <clipPath id="clip-path">
      <rect id="Rectangle_425558" data-name="Rectangle 425558" width="329.4" height="321.6" fill="none"/>
    </clipPath>
  </defs>
  <g id="Group_1205070" data-name="Group 1205070" transform="translate(-495 -1585)">
    <rect id="Rectangle_425384" data-name="Rectangle 425384" width="610" height="497" transform="translate(495 1585)" fill="#f4f3ed"/>
    <g id="Group_1205068" data-name="Group 1205068">
      <g id="Group_1204899" data-name="Group 1204899">
        <circle id="Ellipse_12576" data-name="Ellipse 12576" cx="95" cy="95" r="95" transform="translate(705 1741)" fill="#ff9800"/>
        <path id="Path_1329295" data-name="Path 1329295" d="M4.34-5.511,3.373,0H.226L2.943-15.641l5.479.011a5.481,5.481,0,0,1,3.985,1.407,4.364,4.364,0,0,1,1.268,3.674,4.939,4.939,0,0,1-1.917,3.674A6.978,6.978,0,0,1,7.3-5.5Zm.44-2.61L7.4-8.1a3.314,3.314,0,0,0,2.105-.655,2.637,2.637,0,0,0,1-1.772,2.264,2.264,0,0,0-.36-1.783A1.949,1.949,0,0,0,8.6-13.02L5.64-13.03Zm17.08-.591a6.254,6.254,0,0,0-1.021-.107,2.937,2.937,0,0,0-2.567,1.214L16.93,0H13.9l2.02-11.623,2.847-.011-.279,1.418a3.2,3.2,0,0,1,2.707-1.644,4.419,4.419,0,0,1,1.053.15Zm6.2-3.126a4.662,4.662,0,0,1,2.648.79,4.446,4.446,0,0,1,1.633,2.116A6.547,6.547,0,0,1,32.71-5.94a7.072,7.072,0,0,1-1.928,4.485A5.445,5.445,0,0,1,26.63.215a4.648,4.648,0,0,1-2.621-.779,4.43,4.43,0,0,1-1.633-2.1A6.4,6.4,0,0,1,22-5.629a7.281,7.281,0,0,1,1.955-4.576A5.332,5.332,0,0,1,28.059-11.838ZM25-4.522A2.689,2.689,0,0,0,25.48-2.9a1.605,1.605,0,0,0,1.3.618,2.354,2.354,0,0,0,2.191-1.284,6.407,6.407,0,0,0,.741-3.486,2.925,2.925,0,0,0-.5-1.649,1.579,1.579,0,0,0-1.305-.639,2.357,2.357,0,0,0-2.165,1.273A6.34,6.34,0,0,0,25-4.522Zm13.417-7.111-.247,1.321a4.279,4.279,0,0,1,3.405-1.525,3.271,3.271,0,0,1,1.783.494,2.309,2.309,0,0,1,.956,1.278,4.476,4.476,0,0,1,3.609-1.772,2.923,2.923,0,0,1,2.412,1.1,4.5,4.5,0,0,1,.682,3.072l-.021.269L49.758,0h-3.04l1.235-7.423a5.361,5.361,0,0,0,.032-.741A1.15,1.15,0,0,0,46.7-9.324a2.558,2.558,0,0,0-2.138,1.332l-.032.247L43.173,0H40.144l1.235-7.4a5.361,5.361,0,0,0,.032-.741,1.149,1.149,0,0,0-1.278-1.171A2.567,2.567,0,0,0,38.06-8.229L36.609,0H33.58l2.009-11.623ZM63.325-5.779a9.6,9.6,0,0,1-.956,3.244A5.26,5.26,0,0,1,60.554-.43a4.2,4.2,0,0,1-2.406.655,3.355,3.355,0,0,1-2.664-1.257l-1.063,5.5H51.391l2.782-16.092,2.793-.011-.2,1.171a3.711,3.711,0,0,1,2.965-1.375A3.3,3.3,0,0,1,62.38-10.6a5.393,5.393,0,0,1,1.01,3.25A12.557,12.557,0,0,1,63.325-5.779ZM60.317-6l.064-1.031A2.865,2.865,0,0,0,60-8.69a1.369,1.369,0,0,0-1.176-.634,2.5,2.5,0,0,0-2.181,1.117l-.87,4.791a1.7,1.7,0,0,0,1.708,1.128,2.187,2.187,0,0,0,1.826-.849A5.807,5.807,0,0,0,60.317-6ZM70.426-14.48l-.5,2.857h1.934l-.4,2.277H69.523l-.988,5.822a1.48,1.48,0,0,0,.086.838q.15.29.73.312.172.011.924-.054L70.061-.054a5.1,5.1,0,0,1-1.74.247A2.73,2.73,0,0,1,66.1-.741a3.377,3.377,0,0,1-.6-2.471l1-6.134H64.851l.4-2.277h1.644l.494-2.857Z" transform="translate(770 1842)" fill="#12263f"/>
        <circle id="Ellipse_12578" data-name="Ellipse 12578" cx="52" cy="52" r="52" transform="translate(748 1627)" fill="#25a8a2"/>
        <circle id="Ellipse_12579" data-name="Ellipse 12579" cx="46" cy="46" r="46" transform="translate(915 1754)" fill="#727997"/>
        <circle id="Ellipse_12580" data-name="Ellipse 12580" cx="46" cy="46" r="46" transform="translate(662 1925)" fill="#b16a00"/>
        <circle id="Ellipse_12581" data-name="Ellipse 12581" cx="46" cy="46" r="46" transform="translate(846 1925)" fill="#8876a8"/>
        <circle id="Ellipse_12582" data-name="Ellipse 12582" cx="46" cy="46" r="46" transform="translate(593 1754)" fill="#727069"/>
        <path id="Path_1329293" data-name="Path 1329293" d="M2.93,0H1.43V-11.375h1.5ZM6.813-8.453l.047,1.063A3.08,3.08,0,0,1,9.391-8.609q2.68,0,2.7,3.023V0H10.648V-5.594a1.946,1.946,0,0,0-.418-1.352,1.675,1.675,0,0,0-1.277-.437,2.086,2.086,0,0,0-1.234.375,2.546,2.546,0,0,0-.828.984V0H5.445V-8.453ZM16.234-10.5v2.047h1.578v1.117H16.234v5.242a1.171,1.171,0,0,0,.211.762.888.888,0,0,0,.719.254,3.5,3.5,0,0,0,.688-.094V0a4.19,4.19,0,0,1-1.109.156A1.8,1.8,0,0,1,15.281-.43a2.517,2.517,0,0,1-.492-1.664V-7.336H13.25V-8.453h1.539V-10.5Zm7.352,3.344a4.331,4.331,0,0,0-.711-.055A1.9,1.9,0,0,0,20.945-6V0H19.5V-8.453h1.406l.023.977a2.251,2.251,0,0,1,2.016-1.133,1.477,1.477,0,0,1,.641.109ZM24.375-4.3a4.993,4.993,0,0,1,.488-2.234A3.643,3.643,0,0,1,26.223-8.07a3.7,3.7,0,0,1,1.988-.539A3.565,3.565,0,0,1,31-7.414a4.6,4.6,0,0,1,1.066,3.18v.1A5.036,5.036,0,0,1,31.6-1.918,3.589,3.589,0,0,1,30.246-.391a3.743,3.743,0,0,1-2.02.547,3.556,3.556,0,0,1-2.785-1.2A4.575,4.575,0,0,1,24.375-4.2Zm1.453.172a3.616,3.616,0,0,0,.652,2.258,2.088,2.088,0,0,0,1.746.852,2.075,2.075,0,0,0,1.75-.863A3.955,3.955,0,0,0,30.625-4.3a3.61,3.61,0,0,0-.66-2.254,2.1,2.1,0,0,0-1.754-.863,2.075,2.075,0,0,0-1.727.852A3.925,3.925,0,0,0,25.828-4.133Zm7.7-.164a4.952,4.952,0,0,1,.922-3.129,2.915,2.915,0,0,1,2.414-1.184,2.932,2.932,0,0,1,2.352,1.016V-12h1.445V0H39.336l-.07-.906A2.943,2.943,0,0,1,36.852.156a2.887,2.887,0,0,1-2.395-1.2,5.008,5.008,0,0,1-.926-3.141Zm1.445.164a3.749,3.749,0,0,0,.594,2.25,1.92,1.92,0,0,0,1.641.813A2.108,2.108,0,0,0,39.219-2.3V-6.187a2.125,2.125,0,0,0-1.992-1.2,1.929,1.929,0,0,0-1.656.82A4.128,4.128,0,0,0,34.977-4.133Zm13.148,3.3a3.07,3.07,0,0,1-2.477.992A2.628,2.628,0,0,1,43.59-.629a3.4,3.4,0,0,1-.715-2.324v-5.5H44.32v5.461q0,1.922,1.563,1.922a2.163,2.163,0,0,0,2.2-1.234V-8.453h1.445V0H48.156Zm6.992-.187a2.082,2.082,0,0,0,1.352-.469,1.649,1.649,0,0,0,.641-1.172h1.367a2.621,2.621,0,0,1-.5,1.383,3.293,3.293,0,0,1-1.23,1.047,3.55,3.55,0,0,1-1.629.391A3.482,3.482,0,0,1,52.371-1a4.59,4.59,0,0,1-1.02-3.152v-.242a5.089,5.089,0,0,1,.453-2.2,3.451,3.451,0,0,1,1.3-1.492,3.7,3.7,0,0,1,2-.531,3.39,3.39,0,0,1,2.363.852,3.043,3.043,0,0,1,1,2.211H57.109a1.992,1.992,0,0,0-.621-1.348,1.932,1.932,0,0,0-1.379-.527,2.023,2.023,0,0,0-1.707.793A3.724,3.724,0,0,0,52.8-4.336v.273a3.65,3.65,0,0,0,.6,2.25A2.033,2.033,0,0,0,55.117-1.023Zm8.375,0a2.082,2.082,0,0,0,1.352-.469,1.649,1.649,0,0,0,.641-1.172h1.367a2.621,2.621,0,0,1-.5,1.383,3.293,3.293,0,0,1-1.23,1.047,3.55,3.55,0,0,1-1.629.391A3.482,3.482,0,0,1,60.746-1a4.59,4.59,0,0,1-1.02-3.152v-.242a5.089,5.089,0,0,1,.453-2.2,3.451,3.451,0,0,1,1.3-1.492,3.7,3.7,0,0,1,2-.531,3.39,3.39,0,0,1,2.363.852,3.043,3.043,0,0,1,1,2.211H65.484a1.992,1.992,0,0,0-.621-1.348,1.932,1.932,0,0,0-1.379-.527,2.023,2.023,0,0,0-1.707.793,3.724,3.724,0,0,0-.605,2.293v.273a3.65,3.65,0,0,0,.6,2.25A2.033,2.033,0,0,0,63.492-1.023ZM70.047,0H68.6V-8.453h1.445ZM68.484-10.7a.863.863,0,0,1,.215-.594.807.807,0,0,1,.637-.242.819.819,0,0,1,.641.242.854.854,0,0,1,.219.594.826.826,0,0,1-.219.586.834.834,0,0,1-.641.234.821.821,0,0,1-.637-.234A.834.834,0,0,1,68.484-10.7ZM71.977-4.3a4.993,4.993,0,0,1,.488-2.234A3.643,3.643,0,0,1,73.824-8.07a3.7,3.7,0,0,1,1.988-.539,3.565,3.565,0,0,1,2.793,1.2,4.6,4.6,0,0,1,1.066,3.18v.1A5.036,5.036,0,0,1,79.2-1.918,3.589,3.589,0,0,1,77.848-.391a3.743,3.743,0,0,1-2.02.547,3.556,3.556,0,0,1-2.785-1.2A4.575,4.575,0,0,1,71.977-4.2Zm1.453.172a3.616,3.616,0,0,0,.652,2.258,2.088,2.088,0,0,0,1.746.852,2.075,2.075,0,0,0,1.75-.863A3.955,3.955,0,0,0,78.227-4.3a3.61,3.61,0,0,0-.66-2.254,2.1,2.1,0,0,0-1.754-.863,2.075,2.075,0,0,0-1.727.852A3.925,3.925,0,0,0,73.43-4.133ZM76.469-12h1.75L76.125-9.7H74.961Zm6.383,3.547L82.9-7.391A3.08,3.08,0,0,1,85.43-8.609q2.68,0,2.7,3.023V0H86.688V-5.594a1.946,1.946,0,0,0-.418-1.352,1.675,1.675,0,0,0-1.277-.437,2.086,2.086,0,0,0-1.234.375,2.546,2.546,0,0,0-.828.984V0H81.484V-8.453Z" transform="translate(756 1680)" fill="#fff"/>
        <path id="Path_1329298" data-name="Path 1329298" d="M9.688-3.609A4.185,4.185,0,0,1,8.355-.824a4.365,4.365,0,0,1-2.98.98,4.008,4.008,0,0,1-3.23-1.445A5.815,5.815,0,0,1,.93-5.156V-6.25A6.481,6.481,0,0,1,1.5-9.039,4.231,4.231,0,0,1,3.1-10.887a4.47,4.47,0,0,1,2.406-.645A4.11,4.11,0,0,1,8.414-10.52a4.235,4.235,0,0,1,1.273,2.8H8.18a3.254,3.254,0,0,0-.848-1.969A2.569,2.569,0,0,0,5.508-10.3,2.685,2.685,0,0,0,3.254-9.234a4.875,4.875,0,0,0-.816,3.023v1.1a5.011,5.011,0,0,0,.773,2.945A2.5,2.5,0,0,0,5.375-1.07a2.887,2.887,0,0,0,1.918-.566A3.143,3.143,0,0,0,8.18-3.609Zm1.438-.7a4.993,4.993,0,0,1,.488-2.234A3.643,3.643,0,0,1,12.973-8.07a3.7,3.7,0,0,1,1.988-.539,3.565,3.565,0,0,1,2.793,1.2,4.6,4.6,0,0,1,1.066,3.18v.1a5.036,5.036,0,0,1-.473,2.215A3.589,3.589,0,0,1,17-.391a3.743,3.743,0,0,1-2.02.547,3.556,3.556,0,0,1-2.785-1.2A4.575,4.575,0,0,1,11.125-4.2Zm1.453.172a3.616,3.616,0,0,0,.652,2.258,2.088,2.088,0,0,0,1.746.852,2.075,2.075,0,0,0,1.75-.863A3.955,3.955,0,0,0,17.375-4.3a3.61,3.61,0,0,0-.66-2.254,2.1,2.1,0,0,0-1.754-.863,2.075,2.075,0,0,0-1.727.852A3.925,3.925,0,0,0,12.578-4.133ZM22-8.453l.047,1.063a3.08,3.08,0,0,1,2.531-1.219q2.68,0,2.7,3.023V0H25.836V-5.594a1.946,1.946,0,0,0-.418-1.352,1.675,1.675,0,0,0-1.277-.437,2.086,2.086,0,0,0-1.234.375,2.546,2.546,0,0,0-.828.984V0H20.633V-8.453ZM31.422-10.5v2.047H33v1.117H31.422v5.242a1.171,1.171,0,0,0,.211.762.888.888,0,0,0,.719.254,3.5,3.5,0,0,0,.688-.094V0A4.19,4.19,0,0,1,31.93.156,1.8,1.8,0,0,1,30.469-.43a2.517,2.517,0,0,1-.492-1.664V-7.336H28.438V-8.453h1.539V-10.5ZM38.2.156A3.693,3.693,0,0,1,35.4-.973a4.19,4.19,0,0,1-1.078-3.02v-.266A5.073,5.073,0,0,1,34.8-6.5a3.748,3.748,0,0,1,1.344-1.547,3.378,3.378,0,0,1,1.871-.559,3.166,3.166,0,0,1,2.563,1.086,4.7,4.7,0,0,1,.914,3.109v.6H35.766a3,3,0,0,0,.73,2.02,2.3,2.3,0,0,0,1.777.77,2.517,2.517,0,0,0,1.3-.312,3.259,3.259,0,0,0,.93-.828l.883.688A3.55,3.55,0,0,1,38.2.156Zm-.18-7.578a1.928,1.928,0,0,0-1.469.637A3.1,3.1,0,0,0,35.813-5h4.234v-.109a2.753,2.753,0,0,0-.594-1.707A1.815,1.815,0,0,0,38.016-7.422ZM46-5.367l1.875-3.086h1.688L46.8-4.273,49.648,0H47.977L46.023-3.164,44.07,0h-1.68l2.852-4.273-2.766-4.18h1.672ZM53.055-10.5v2.047h1.578v1.117H53.055v5.242a1.171,1.171,0,0,0,.211.762.888.888,0,0,0,.719.254,3.5,3.5,0,0,0,.688-.094V0a4.19,4.19,0,0,1-1.109.156A1.8,1.8,0,0,1,52.1-.43a2.517,2.517,0,0,1-.492-1.664V-7.336H50.07V-8.453h1.539V-10.5Zm2.727,6.2a4.993,4.993,0,0,1,.488-2.234A3.643,3.643,0,0,1,57.629-8.07a3.7,3.7,0,0,1,1.988-.539,3.565,3.565,0,0,1,2.793,1.2,4.6,4.6,0,0,1,1.066,3.18v.1A5.036,5.036,0,0,1,63-1.918,3.589,3.589,0,0,1,61.652-.391a3.743,3.743,0,0,1-2.02.547,3.556,3.556,0,0,1-2.785-1.2A4.575,4.575,0,0,1,55.781-4.2Zm1.453.172a3.616,3.616,0,0,0,.652,2.258,2.088,2.088,0,0,0,1.746.852,2.075,2.075,0,0,0,1.75-.863A3.955,3.955,0,0,0,62.031-4.3a3.61,3.61,0,0,0-.66-2.254,2.1,2.1,0,0,0-1.754-.863,2.075,2.075,0,0,0-1.727.852A3.925,3.925,0,0,0,57.234-4.133Z" transform="translate(929 1806)" fill="#fff"/>
        <path id="Path_1329297" data-name="Path 1329297" d="M1.32,0V-11.375H4.531a5.169,5.169,0,0,1,2.625.656A4.438,4.438,0,0,1,8.918-8.852,6.078,6.078,0,0,1,9.547-6.07v.727a6.1,6.1,0,0,1-.621,2.82A4.369,4.369,0,0,1,7.152-.664,5.5,5.5,0,0,1,4.469,0Zm1.5-10.141v8.914H4.4A3.435,3.435,0,0,0,7.1-2.3a4.452,4.452,0,0,0,.965-3.07v-.664a4.522,4.522,0,0,0-.91-3.012,3.24,3.24,0,0,0-2.582-1.09ZM16.8,0a3.036,3.036,0,0,1-.2-.891A3.225,3.225,0,0,1,14.2.156a2.984,2.984,0,0,1-2.051-.707,2.287,2.287,0,0,1-.8-1.793,2.39,2.39,0,0,1,1-2.051,4.733,4.733,0,0,1,2.824-.73h1.406v-.664A1.623,1.623,0,0,0,16.125-7a1.821,1.821,0,0,0-1.336-.449,2.107,2.107,0,0,0-1.3.391,1.151,1.151,0,0,0-.523.945H11.516a2,2,0,0,1,.449-1.223,3.066,3.066,0,0,1,1.219-.934,4.1,4.1,0,0,1,1.691-.344,3.342,3.342,0,0,1,2.289.73,2.635,2.635,0,0,1,.859,2.012v3.891a4.757,4.757,0,0,0,.3,1.852V0Zm-2.4-1.1A2.54,2.54,0,0,0,15.7-1.453a2.127,2.127,0,0,0,.883-.914V-4.1H15.445q-2.656,0-2.656,1.555a1.316,1.316,0,0,0,.453,1.063A1.742,1.742,0,0,0,14.406-1.1Zm7.844-9.4v2.047h1.578v1.117H22.25v5.242a1.171,1.171,0,0,0,.211.762.888.888,0,0,0,.719.254,3.5,3.5,0,0,0,.688-.094V0a4.19,4.19,0,0,1-1.109.156A1.8,1.8,0,0,1,21.3-.43,2.517,2.517,0,0,1,20.8-2.094V-7.336H19.266V-8.453H20.8V-10.5Zm2.727,6.2a4.993,4.993,0,0,1,.488-2.234A3.643,3.643,0,0,1,26.824-8.07a3.7,3.7,0,0,1,1.988-.539,3.565,3.565,0,0,1,2.793,1.2,4.6,4.6,0,0,1,1.066,3.18v.1A5.036,5.036,0,0,1,32.2-1.918,3.589,3.589,0,0,1,30.848-.391a3.743,3.743,0,0,1-2.02.547,3.556,3.556,0,0,1-2.785-1.2A4.575,4.575,0,0,1,24.977-4.2Zm1.453.172a3.616,3.616,0,0,0,.652,2.258,2.088,2.088,0,0,0,1.746.852,2.075,2.075,0,0,0,1.75-.863A3.955,3.955,0,0,0,31.227-4.3a3.61,3.61,0,0,0-.66-2.254,2.1,2.1,0,0,0-1.754-.863,2.075,2.075,0,0,0-1.727.852A3.925,3.925,0,0,0,26.43-4.133ZM39.406-2.242a1.064,1.064,0,0,0-.441-.91,4.249,4.249,0,0,0-1.539-.559,7.277,7.277,0,0,1-1.742-.562,2.479,2.479,0,0,1-.953-.781,1.869,1.869,0,0,1-.309-1.078A2.193,2.193,0,0,1,35.3-7.891a3.432,3.432,0,0,1,2.246-.719,3.532,3.532,0,0,1,2.332.742,2.357,2.357,0,0,1,.895,1.9H39.32a1.3,1.3,0,0,0-.5-1.023,1.888,1.888,0,0,0-1.27-.43,1.976,1.976,0,0,0-1.234.344,1.082,1.082,0,0,0-.445.9.877.877,0,0,0,.414.789,5.1,5.1,0,0,0,1.5.508,7.8,7.8,0,0,1,1.754.578,2.558,2.558,0,0,1,1,.809,1.988,1.988,0,0,1,.324,1.152,2.163,2.163,0,0,1-.906,1.816,3.8,3.8,0,0,1-2.352.684A4.257,4.257,0,0,1,35.8-.2a2.922,2.922,0,0,1-1.223-1A2.42,2.42,0,0,1,34.133-2.6h1.445a1.5,1.5,0,0,0,.582,1.152,2.258,2.258,0,0,0,1.434.426,2.331,2.331,0,0,0,1.316-.332A1.02,1.02,0,0,0,39.406-2.242Z" transform="translate(871 1977)" fill="#fff"/>
        <path id="Path_1329296" data-name="Path 1329296" d="M7.594-5.023H2.82V0H1.32V-11.375H8.367v1.234H2.82V-6.25H7.594Zm1.8.719a4.993,4.993,0,0,1,.488-2.234A3.643,3.643,0,0,1,11.238-8.07a3.7,3.7,0,0,1,1.988-.539,3.565,3.565,0,0,1,2.793,1.2,4.6,4.6,0,0,1,1.066,3.18v.1a5.036,5.036,0,0,1-.473,2.215A3.589,3.589,0,0,1,15.262-.391a3.743,3.743,0,0,1-2.02.547,3.556,3.556,0,0,1-2.785-1.2A4.575,4.575,0,0,1,9.391-4.2Zm1.453.172A3.616,3.616,0,0,0,11.5-1.875a2.088,2.088,0,0,0,1.746.852,2.075,2.075,0,0,0,1.75-.863A3.955,3.955,0,0,0,15.641-4.3a3.61,3.61,0,0,0-.66-2.254,2.1,2.1,0,0,0-1.754-.863A2.075,2.075,0,0,0,11.5-6.57,3.925,3.925,0,0,0,10.844-4.133ZM22.984-7.156a4.331,4.331,0,0,0-.711-.055A1.9,1.9,0,0,0,20.344-6V0H18.9V-8.453H20.3l.023.977a2.251,2.251,0,0,1,2.016-1.133,1.477,1.477,0,0,1,.641.109Zm2.688-1.3.039.938a3.122,3.122,0,0,1,2.508-1.094A2.417,2.417,0,0,1,30.633-7.25a3.2,3.2,0,0,1,1.1-.984,3.242,3.242,0,0,1,1.6-.375q2.781,0,2.828,2.945V0H34.711V-5.578A1.941,1.941,0,0,0,34.3-6.934a1.823,1.823,0,0,0-1.391-.449,1.916,1.916,0,0,0-1.336.48,1.949,1.949,0,0,0-.617,1.293V0H29.5V-5.539a1.613,1.613,0,0,0-1.8-1.844A1.934,1.934,0,0,0,25.75-6.172V0H24.3V-8.453ZM43.555,0a3.036,3.036,0,0,1-.2-.891A3.225,3.225,0,0,1,40.945.156a2.984,2.984,0,0,1-2.051-.707,2.287,2.287,0,0,1-.8-1.793,2.39,2.39,0,0,1,1-2.051,4.733,4.733,0,0,1,2.824-.73h1.406v-.664A1.623,1.623,0,0,0,42.875-7a1.821,1.821,0,0,0-1.336-.449,2.107,2.107,0,0,0-1.3.391,1.151,1.151,0,0,0-.523.945H38.266a2,2,0,0,1,.449-1.223,3.066,3.066,0,0,1,1.219-.934,4.1,4.1,0,0,1,1.691-.344,3.342,3.342,0,0,1,2.289.73,2.635,2.635,0,0,1,.859,2.012v3.891a4.757,4.757,0,0,0,.3,1.852V0Zm-2.4-1.1a2.54,2.54,0,0,0,1.289-.352,2.127,2.127,0,0,0,.883-.914V-4.1H42.2q-2.656,0-2.656,1.555a1.316,1.316,0,0,0,.453,1.063A1.742,1.742,0,0,0,41.156-1.1ZM49-10.5v2.047h1.578v1.117H49v5.242a1.171,1.171,0,0,0,.211.762.888.888,0,0,0,.719.254,3.5,3.5,0,0,0,.688-.094V0a4.19,4.19,0,0,1-1.109.156A1.8,1.8,0,0,1,48.047-.43a2.517,2.517,0,0,1-.492-1.664V-7.336H46.016V-8.453h1.539V-10.5Zm2.727,6.2a4.993,4.993,0,0,1,.488-2.234A3.643,3.643,0,0,1,53.574-8.07a3.7,3.7,0,0,1,1.988-.539,3.565,3.565,0,0,1,2.793,1.2,4.6,4.6,0,0,1,1.066,3.18v.1a5.036,5.036,0,0,1-.473,2.215A3.589,3.589,0,0,1,57.6-.391a3.743,3.743,0,0,1-2.02.547,3.556,3.556,0,0,1-2.785-1.2A4.575,4.575,0,0,1,51.727-4.2Zm1.453.172a3.616,3.616,0,0,0,.652,2.258,2.088,2.088,0,0,0,1.746.852,2.075,2.075,0,0,0,1.75-.863A3.955,3.955,0,0,0,57.977-4.3a3.61,3.61,0,0,0-.66-2.254,2.1,2.1,0,0,0-1.754-.863,2.075,2.075,0,0,0-1.727.852A3.925,3.925,0,0,0,53.18-4.133Z" transform="translate(675 1977)" fill="#fff"/>
        <path id="Path_1329294" data-name="Path 1329294" d="M7.6-2.969H2.836L1.766,0H.219L4.563-11.375H5.875L10.227,0H8.688ZM3.289-4.2H7.156L5.219-9.523ZM16.664-.836a3.07,3.07,0,0,1-2.477.992,2.628,2.628,0,0,1-2.059-.785,3.4,3.4,0,0,1-.715-2.324v-5.5h1.445v5.461q0,1.922,1.563,1.922a2.163,2.163,0,0,0,2.2-1.234V-8.453H18.07V0H16.7ZM19.914-4.3a4.952,4.952,0,0,1,.922-3.129A2.915,2.915,0,0,1,23.25-8.609,2.932,2.932,0,0,1,25.6-7.594V-12h1.445V0H25.719l-.07-.906A2.943,2.943,0,0,1,23.234.156a2.887,2.887,0,0,1-2.395-1.2,5.008,5.008,0,0,1-.926-3.141Zm1.445.164a3.749,3.749,0,0,0,.594,2.25,1.92,1.92,0,0,0,1.641.813A2.108,2.108,0,0,0,25.6-2.3V-6.187a2.125,2.125,0,0,0-1.992-1.2,1.929,1.929,0,0,0-1.656.82A4.128,4.128,0,0,0,21.359-4.133ZM30.859,0H29.414V-8.453h1.445ZM29.3-10.7a.863.863,0,0,1,.215-.594.807.807,0,0,1,.637-.242.819.819,0,0,1,.641.242.854.854,0,0,1,.219.594.826.826,0,0,1-.219.586.834.834,0,0,1-.641.234.821.821,0,0,1-.637-.234A.834.834,0,0,1,29.3-10.7ZM36.68.156a3.693,3.693,0,0,1-2.8-1.129A4.19,4.19,0,0,1,32.8-3.992v-.266a5.073,5.073,0,0,1,.48-2.246,3.748,3.748,0,0,1,1.344-1.547A3.378,3.378,0,0,1,36.5-8.609a3.166,3.166,0,0,1,2.563,1.086,4.7,4.7,0,0,1,.914,3.109v.6H34.25a3,3,0,0,0,.73,2.02,2.3,2.3,0,0,0,1.777.77,2.517,2.517,0,0,0,1.3-.312,3.259,3.259,0,0,0,.93-.828l.883.688A3.55,3.55,0,0,1,36.68.156ZM36.5-7.422a1.928,1.928,0,0,0-1.469.637A3.1,3.1,0,0,0,34.3-5h4.234v-.109a2.753,2.753,0,0,0-.594-1.707A1.815,1.815,0,0,0,36.5-7.422Zm6.516-1.031.047,1.063a3.08,3.08,0,0,1,2.531-1.219q2.68,0,2.7,3.023V0H46.852V-5.594a1.946,1.946,0,0,0-.418-1.352,1.675,1.675,0,0,0-1.277-.437,2.086,2.086,0,0,0-1.234.375,2.546,2.546,0,0,0-.828.984V0H41.648V-8.453Zm10.852,7.43a2.082,2.082,0,0,0,1.352-.469,1.649,1.649,0,0,0,.641-1.172h1.367a2.621,2.621,0,0,1-.5,1.383A3.293,3.293,0,0,1,55.5-.234a3.55,3.55,0,0,1-1.629.391A3.482,3.482,0,0,1,51.121-1,4.59,4.59,0,0,1,50.1-4.148v-.242a5.089,5.089,0,0,1,.453-2.2,3.451,3.451,0,0,1,1.3-1.492,3.7,3.7,0,0,1,2-.531,3.39,3.39,0,0,1,2.363.852,3.043,3.043,0,0,1,1,2.211H55.859a1.992,1.992,0,0,0-.621-1.348,1.932,1.932,0,0,0-1.379-.527,2.023,2.023,0,0,0-1.707.793,3.724,3.724,0,0,0-.605,2.293v.273a3.65,3.65,0,0,0,.6,2.25A2.033,2.033,0,0,0,53.867-1.023ZM60.422,0H58.977V-8.453h1.445ZM58.859-10.7a.863.863,0,0,1,.215-.594.807.807,0,0,1,.637-.242.819.819,0,0,1,.641.242.854.854,0,0,1,.219.594.826.826,0,0,1-.219.586.834.834,0,0,1-.641.234.821.821,0,0,1-.637-.234A.834.834,0,0,1,58.859-10.7ZM67.953,0a3.036,3.036,0,0,1-.2-.891A3.225,3.225,0,0,1,65.344.156a2.984,2.984,0,0,1-2.051-.707,2.287,2.287,0,0,1-.8-1.793,2.39,2.39,0,0,1,1-2.051,4.733,4.733,0,0,1,2.824-.73h1.406v-.664A1.623,1.623,0,0,0,67.273-7a1.821,1.821,0,0,0-1.336-.449,2.108,2.108,0,0,0-1.3.391,1.151,1.151,0,0,0-.523.945H62.664a2,2,0,0,1,.449-1.223,3.066,3.066,0,0,1,1.219-.934,4.1,4.1,0,0,1,1.691-.344,3.342,3.342,0,0,1,2.289.73,2.635,2.635,0,0,1,.859,2.012v3.891a4.757,4.757,0,0,0,.3,1.852V0Zm-2.4-1.1a2.54,2.54,0,0,0,1.289-.352,2.127,2.127,0,0,0,.883-.914V-4.1H66.594q-2.656,0-2.656,1.555a1.316,1.316,0,0,0,.453,1.063A1.742,1.742,0,0,0,65.555-1.1Z" transform="translate(600 1806)" fill="#fff"/>
      </g>
      <g id="Group_1205067" data-name="Group 1205067" transform="translate(635.3 1679)">
        <g id="Group_1205066" data-name="Group 1205066" clip-path="url(#clip-path)">
          <path id="Path_1329218" data-name="Path 1329218" d="M112.71,0a165.79,165.79,0,0,0-92.8,77.54c.95.35,1.87.74,2.79,1.15A162.889,162.889,0,0,1,112.82,3.12c-.07-1.03-.11-2.07-.11-3.12" fill="#25a8a2"/>
          <path id="Path_1329219" data-name="Path 1329219" d="M216.69,0c0,1.05-.04,2.09-.11,3.12A162.85,162.85,0,0,1,306.7,78.69c.91-.41,1.84-.8,2.79-1.15A165.79,165.79,0,0,0,216.69,0" fill="#727997"/>
          <path id="Path_1329220" data-name="Path 1329220" d="M326.39,166.59a161.13,161.13,0,0,1-36.7,92.96c.71.72,1.39,1.47,2.04,2.24a164.944,164.944,0,0,0,33.67-67.63c.19-.81.37-1.63.55-2.45.18-.85.36-1.7.53-2.55.18-.88.35-1.76.51-2.65.17-.91.33-1.82.48-2.74v-.03c.22-1.36.43-2.73.63-4.1.48-3.42.85-6.88,1.12-10.36.07-.94.13-1.89.18-2.83-.99.08-2,.13-3.01.14" fill="#615478"/>
          <path id="Path_1329221" data-name="Path 1329221" d="M214.82,310.67a162.255,162.255,0,0,1-100.24-.01c-.42.92-.87,1.82-1.35,2.71a161.31,161.31,0,0,0,21.19,5.45c1.03.19,2.07.38,3.11.55h.03c1.35.22,2.71.43,4.07.63,3.43.47,6.9.85,10.39,1.12q3.135.24,6.3.36c2.12.08,4.24.12,6.38.12s4.26-.04,6.38-.12,4.21-.2,6.3-.36c3.48-.27,6.94-.64,10.36-1.12,1.37-.2,2.74-.41,4.1-.63h.03c1.04-.17,2.08-.36,3.12-.55a162.75,162.75,0,0,0,21.18-5.45q-.72-1.32-1.35-2.7" fill="#b16a00"/>
          <path id="Path_1329222" data-name="Path 1329222" d="M0,166.45c.05.94.11,1.89.18,2.83.27,3.48.64,6.94,1.12,10.36.2,1.37.41,2.74.63,4.1v.03c.15.92.31,1.83.48,2.74.16.89.33,1.77.51,2.65.17.85.35,1.7.53,2.55.18.82.36,1.64.55,2.45a164.944,164.944,0,0,0,33.67,67.63c.65-.77,1.33-1.52,2.04-2.24a161.13,161.13,0,0,1-36.7-92.96C2,166.58,1,166.53,0,166.45" fill="#727069"/>
        </g>
      </g>
    </g>
  </g>
</svg>
