<svg xmlns="http://www.w3.org/2000/svg" width="84.764" height="84.763" viewBox="0 0 84.764 84.763">
  <g id="Group_1204967" data-name="Group 1204967" transform="translate(-1020.051 -1533)">
    <g id="Group_1204728" data-name="Group 1204728" transform="translate(-1.916 -1564.655)">
      <g id="Group_1200255" data-name="Group 1200255" transform="translate(1021.967 3097.655)">
        <g id="Group_1187152" data-name="Group 1187152">
          <g id="Group_1185946" data-name="Group 1185946">
            <g id="Group_1184280" data-name="Group 1184280">
              <g id="Group_1182168" data-name="Group 1182168">
                <g id="Group_1178877" data-name="Group 1178877">
                  <g id="Group_1111311" data-name="Group 1111311">
                    <g id="Group_1098742" data-name="Group 1098742" transform="translate(0 0)">
                      <g id="Rectangle_400898" data-name="Rectangle 400898" transform="translate(0 0)" fill="#c5aaf1" stroke="#615478" stroke-width="0.5" opacity="0.859">
                        <rect width="84.763" height="84.763" rx="42.382" stroke="none"/>
                        <rect x="0.25" y="0.25" width="84.263" height="84.263" rx="42.132" fill="none"/>
                      </g>
                      <g id="Rectangle_400907" data-name="Rectangle 400907" transform="translate(0 0)" fill="none" stroke="#615478" stroke-width="0.5">
                        <rect width="84.763" height="84.763" rx="42.382" stroke="none"/>
                        <rect x="0.25" y="0.25" width="84.263" height="84.263" rx="42.132" fill="none"/>
                      </g>
                    </g>
                  </g>
                </g>
              </g>
            </g>
          </g>
        </g>
      </g>
    </g>
    <g id="inteligencia-artificial" transform="translate(1034.051 1481.855)">
      <path id="Path_1328874" data-name="Path 1328874" d="M61.074,79.645H10.224A2.724,2.724,0,0,0,7.5,82.369v30.873a2.724,2.724,0,0,0,2.724,2.724h50.85a2.724,2.724,0,0,0,2.724-2.724V82.369A2.724,2.724,0,0,0,61.074,79.645Z" transform="translate(-6.65 -6.65)" fill="#99e7ff"/>
      <path id="Path_1328875" data-name="Path 1328875" d="M288.916,119.726H274.388a1.816,1.816,0,0,0-1.816,1.816v2.724l-3.92,3.92a.363.363,0,0,0,.257.62h3.663v1.816a1.816,1.816,0,0,0,1.816,1.816h14.529a1.816,1.816,0,0,0,1.816-1.816v-9.08A1.816,1.816,0,0,0,288.916,119.726Z" transform="translate(-238.125 -42.191)" fill="#fff"/>
      <path id="Path_1328876" data-name="Path 1328876" d="M84.342,130.623H77.077a5.448,5.448,0,0,1-5.448-5.448h0a5.448,5.448,0,0,1,5.448-5.448h7.264a5.448,5.448,0,0,1,5.448,5.448h0A5.448,5.448,0,0,1,84.342,130.623Z" transform="translate(-63.515 -42.191)" fill="#59d8ff"/>
      <rect id="Rectangle_425544" data-name="Rectangle 425544" width="14.529" height="10.896" transform="translate(9.93 94.787)" fill="#dbd9dc"/>
      <path id="Path_1328877" data-name="Path 1328877" d="M102.19,272.033H87.661v3.482l3.023.864a4.541,4.541,0,0,0,8.482,0l3.023-.864Z" transform="translate(-77.731 -177.245)" fill="#c9c6ca"/>
      <path id="Path_1328878" data-name="Path 1328878" d="M75.574,247.984H57.413A1.816,1.816,0,0,0,55.6,249.8v.519l10.9,3.113,10.9-3.113V249.8A1.816,1.816,0,0,0,75.574,247.984Z" transform="translate(-49.299 -155.921)" fill="#edebed"/>
      <circle id="Ellipse_12616" data-name="Ellipse 12616" cx="1.816" cy="1.816" r="1.816" transform="translate(15.378 95.696)" fill="#99e9df"/>
      <path id="Path_1328879" data-name="Path 1328879" d="M105.666,149.223H98.4a2.724,2.724,0,0,1-2.724-2.724h0a2.724,2.724,0,0,1,2.724-2.724h7.264a2.724,2.724,0,0,1,2.724,2.724h0A2.724,2.724,0,0,1,105.666,149.223Z" transform="translate(-84.84 -63.516)" fill="#99e7ff"/>
      <path id="Path_1328880" data-name="Path 1328880" d="M54.424,72.145H3.574A3.578,3.578,0,0,0,0,75.719v30.873a3.578,3.578,0,0,0,3.574,3.574H10.9V112.1H9.022a.85.85,0,1,0,0,1.7H48.976a.85.85,0,1,0,0-1.7H47.1v-1.933h7.323A3.578,3.578,0,0,0,58,106.592V75.719A3.578,3.578,0,0,0,54.424,72.145ZM56.3,106.592a1.877,1.877,0,0,1-1.875,1.875H44.435a.85.85,0,0,0,0,1.7H45.4V112.1H12.6v-1.933H40.8a.85.85,0,1,0,0-1.7H3.574A1.877,1.877,0,0,1,1.7,106.592V75.719a1.877,1.877,0,0,1,1.875-1.875h50.85A1.877,1.877,0,0,1,56.3,75.719v30.873Z"/>
      <path id="Path_1328881" data-name="Path 1328881" d="M58.34,140.376h-.966V129.421a2.669,2.669,0,0,0-2.666-2.666H46.477v-1.933h2.783a6.306,6.306,0,0,0,6.239-5.448h.117a.85.85,0,0,0,0-1.7H55.5a6.306,6.306,0,0,0-6.239-5.448H41.995a6.306,6.306,0,0,0-6.239,5.448h-.117a.85.85,0,1,0,0,1.7h.117a6.306,6.306,0,0,0,6.239,5.448h2.783v1.933h-.967a.85.85,0,1,0,0,1.7h10.9a.968.968,0,0,1,.966.966v.276l-7.608,2.282a2.664,2.664,0,0,0-4.878,0L35.58,129.7v-.276a.968.968,0,0,1,.966-.966h3.632a.85.85,0,1,0,0-1.7H36.547a2.669,2.669,0,0,0-2.666,2.666v10.955h-.966a.85.85,0,0,0,0,1.7H58.34a.85.85,0,1,0,0-1.7ZM37.4,118.525a4.6,4.6,0,0,1,4.6-4.6h7.264a4.6,4.6,0,0,1,0,9.2H41.995A4.6,4.6,0,0,1,37.4,118.525Zm18.278,21.852H53.741v-8.231a.834.834,0,0,0-.005-.093l1.938-.581v8.905Zm-10.047-4.657a2.67,2.67,0,0,0,2.584-2.009l3.831-1.149v7.815H39.212v-7.815l3.831,1.149A2.67,2.67,0,0,0,45.627,135.719Zm0-3.632a.966.966,0,1,1-.966.966A.968.968,0,0,1,45.627,132.087Zm-10.047-.616,1.938.581a.864.864,0,0,0-.005.093v8.231H35.58Z" transform="translate(-28.433 -35.542)"/>
      <path id="Path_1328882" data-name="Path 1328882" d="M105.059,152.307a.85.85,0,0,0-.85.85v1.816a.85.85,0,0,0,1.7,0v-1.816A.85.85,0,0,0,105.059,152.307Z" transform="translate(-92.405 -71.082)"/>
      <path id="Path_1328883" data-name="Path 1328883" d="M185.221,155.822a.85.85,0,0,0,.85-.85v-1.816a.85.85,0,1,0-1.7,0v1.816A.85.85,0,0,0,185.221,155.822Z" transform="translate(-163.486 -71.082)"/>
      <path id="Path_1328884" data-name="Path 1328884" d="M278.25,112.226H263.722a2.669,2.669,0,0,0-2.666,2.666v2.372l-4.291,4.291a.85.85,0,0,0,.6,1.45h3.691v.966a2.669,2.669,0,0,0,2.666,2.666H278.25a2.669,2.669,0,0,0,2.666-2.666v-9.08A2.669,2.669,0,0,0,278.25,112.226Zm.967,11.746a.968.968,0,0,1-.967.966H263.722a.968.968,0,0,1-.966-.966v-1.816a.85.85,0,0,0-.85-.85h-2.489l3.09-3.09a.849.849,0,0,0,.249-.6v-2.724a.968.968,0,0,1,.966-.967H278.25a.968.968,0,0,1,.967.967Z" transform="translate(-227.459 -35.541)"/>
      <path id="Path_1328885" data-name="Path 1328885" d="M346.607,152.307h-9.08a.85.85,0,1,0,0,1.7h9.08a.85.85,0,1,0,0-1.7Z" transform="translate(-298.539 -71.082)"/>
      <path id="Path_1328886" data-name="Path 1328886" d="M334.207,272.548H321.495a.85.85,0,0,0,0,1.7h12.713a.85.85,0,1,0,0-1.7Z" transform="translate(-284.323 -177.702)"/>
      <path id="Path_1328887" data-name="Path 1328887" d="M376.856,304.613h-7.264a.85.85,0,0,0,0,1.7h7.264a.85.85,0,0,0,0-1.7Z" transform="translate(-326.972 -206.135)"/>
      <path id="Path_1328888" data-name="Path 1328888" d="M323.311,304.613h-1.816a.85.85,0,0,0,0,1.7h1.816a.85.85,0,0,0,0-1.7Z" transform="translate(-284.323 -206.135)"/>
      <path id="Path_1328889" data-name="Path 1328889" d="M375.04,336.677h-5.448a.85.85,0,0,0,0,1.7h5.448a.85.85,0,0,0,0-1.7Z" transform="translate(-326.972 -234.567)"/>
      <path id="Path_1328890" data-name="Path 1328890" d="M323.311,336.677h-1.816a.85.85,0,1,0,0,1.7h1.816a.85.85,0,0,0,0-1.7Z" transform="translate(-284.323 -234.567)"/>
      <path id="Path_1328891" data-name="Path 1328891" d="M346.607,184.371h-9.08a.85.85,0,1,0,0,1.7h9.08a.85.85,0,1,0,0-1.7Z" transform="translate(-298.539 -99.513)"/>
    </g>
  </g>
</svg>
