<svg xmlns="http://www.w3.org/2000/svg" width="85" height="85" viewBox="0 0 85 85">
  <g id="Group_1205065" data-name="Group 1205065" transform="translate(-1020 -3208)">
    <g id="Group_1204880" data-name="Group 1204880" transform="translate(-1.967 110.345)">
      <g id="Group_1200255" data-name="Group 1200255" transform="translate(1021.967 3097.655)">
        <g id="Group_1187152" data-name="Group 1187152">
          <g id="Group_1185946" data-name="Group 1185946">
            <g id="Group_1184280" data-name="Group 1184280">
              <g id="Group_1182168" data-name="Group 1182168">
                <g id="Group_1178877" data-name="Group 1178877">
                  <g id="Group_1111311" data-name="Group 1111311">
                    <g id="Group_1098742" data-name="Group 1098742" transform="translate(0 0)">
                      <g id="Rectangle_400898" data-name="Rectangle 400898" transform="translate(0 0)" fill="#c5aaf1" stroke="#615478" stroke-width="0.5" opacity="0.859">
                        <rect width="85" height="85" rx="42.5" stroke="none"/>
                        <rect x="0.25" y="0.25" width="84.5" height="84.5" rx="42.25" fill="none"/>
                      </g>
                      <g id="Rectangle_400907" data-name="Rectangle 400907" transform="translate(0 0)" fill="none" stroke="#615478" stroke-width="0.5">
                        <rect width="85" height="85" rx="42.5" stroke="none"/>
                        <rect x="0.25" y="0.25" width="84.5" height="84.5" rx="42.25" fill="none"/>
                      </g>
                    </g>
                  </g>
                </g>
              </g>
            </g>
          </g>
        </g>
      </g>
    </g>
    <g id="Icons" transform="translate(1033.5 3222.833)">
      <g id="Group_1205064" data-name="Group 1205064" transform="translate(2.5 2.167)">
        <path id="Path_1329186" data-name="Path 1329186" d="M55.993,43.227v33.33a2.029,2.029,0,0,1-2.073,1.982H7.073A2.029,2.029,0,0,1,5,76.557V43.227Z" transform="translate(-4.482 -34.716)" fill="#efefef"/>
        <path id="Path_1329187" data-name="Path 1329187" d="M84.694,58.191V87.607H54.02V58.191a3.529,3.529,0,0,1,3.524-3.524H81.17a3.529,3.529,0,0,1,3.524,3.524Z" transform="translate(-43.341 -43.784)" fill="#afafaf"/>
        <path id="Path_1329188" data-name="Path 1329188" d="M55.993,12.661H5V6.74A2.073,2.073,0,0,1,7.073,4.667H53.92A2.073,2.073,0,0,1,55.993,6.74Z" transform="translate(-4.482 -4.149)" fill="#72c2e9"/>
        <circle id="Ellipse_12645" data-name="Ellipse 12645" cx="1.298" cy="1.298" r="1.298" transform="translate(3.688 3.217)" fill="#fc5d3d"/>
        <circle id="Ellipse_12646" data-name="Ellipse 12646" cx="1.298" cy="1.298" r="1.298" transform="translate(9.563 3.217)" fill="#f0c020"/>
        <circle id="Ellipse_12647" data-name="Ellipse 12647" cx="1.298" cy="1.298" r="1.298" transform="translate(15.438 3.217)" fill="#efefef"/>
        <path id="Path_1329189" data-name="Path 1329189" d="M86.719,100.982H63.093a2.073,2.073,0,0,1-2.073-2.073V63.74a2.073,2.073,0,0,1,2.073-2.073H86.719a2.073,2.073,0,0,1,2.073,2.073V98.91A2.073,2.073,0,0,1,86.719,100.982Z" transform="translate(-48.89 -49.333)" fill="#fc5d3d"/>
        <path id="Path_1329190" data-name="Path 1329190" d="M107.059,65.295H95.036A1.037,1.037,0,0,1,94,64.258V61.667h14.1v2.591A1.037,1.037,0,0,1,107.059,65.295Z" transform="translate(-75.033 -49.333)" fill="#f0c020"/>
        <path id="Path_1329191" data-name="Path 1329191" d="M98.939,90.591v27.276A1.037,1.037,0,0,1,97.9,118.9H79.389a1.037,1.037,0,0,1-1.036-1.036V90.591a1.037,1.037,0,0,1,1.036-1.036H97.9a1.037,1.037,0,0,1,1.037,1.036Z" transform="translate(-62.63 -71.441)" fill="#efefef"/>
        <path id="Path_1329192" data-name="Path 1329192" d="M220.073,155.51h-2.117a1.059,1.059,0,1,1,0-2.117h2.117a1.059,1.059,0,1,1,0,2.117Z" transform="translate(-172.455 -122.046)" fill="#72c2e9"/>
        <path id="Path_1329193" data-name="Path 1329193" d="M211.482,180.118l-1.5-1.5a1.059,1.059,0,0,1,1.5-1.5l1.5,1.5a1.059,1.059,0,1,1-1.5,1.5Z" transform="translate(-166.73 -140.612)" fill="#f0c020"/>
        <path id="Path_1329194" data-name="Path 1329194" d="M209.985,126.054a1.058,1.058,0,0,1,0-1.5l1.5-1.5a1.059,1.059,0,0,1,1.5,1.5l-1.5,1.5A1.058,1.058,0,0,1,209.985,126.054Z" transform="translate(-166.73 -97.755)" fill="#fc5d3d"/>
        <path id="Path_1329195" data-name="Path 1329195" d="M19.734,154.56h2.117a1.059,1.059,0,0,1,0,2.117H19.734a1.059,1.059,0,0,1,0-2.117Z" transform="translate(-15.322 -122.971)" fill="#72c2e9"/>
        <path id="Path_1329196" data-name="Path 1329196" d="M30.7,124.227l1.5,1.5a1.059,1.059,0,0,1-1.5,1.5l-1.5-1.5a1.059,1.059,0,0,1,1.5-1.5Z" transform="translate(-23.419 -98.68)" fill="#f0c020"/>
        <path id="Path_1329197" data-name="Path 1329197" d="M32.193,178.291a1.058,1.058,0,0,1,0,1.5l-1.5,1.5a1.059,1.059,0,0,1-1.5-1.5l1.5-1.5A1.058,1.058,0,0,1,32.193,178.291Z" transform="translate(-23.419 -141.537)" fill="#fc5d3d"/>
        <path id="Path_1329198" data-name="Path 1329198" d="M102.429,132.621l-3.209-3.209a1.4,1.4,0,0,1,1.987-1.987l2.216,2.216,5.469-5.469a1.4,1.4,0,1,1,1.987,1.987l-6.462,6.462A1.4,1.4,0,0,1,102.429,132.621Z" transform="translate(-78.845 -98.556)" fill="#72c2e9"/>
        <path id="Path_1329199" data-name="Path 1329199" d="M239.018,82.929a.518.518,0,0,1-.518-.518v-.622a.518.518,0,1,1,1.036,0v.622A.518.518,0,0,1,239.018,82.929Zm0-2.695a.518.518,0,0,1-.518-.518V51.245a.518.518,0,0,1,1.036,0V79.716A.518.518,0,0,1,239.018,80.234Z" transform="translate(-189.58 -40.661)" fill="#fff"/>
        <path id="Path_1329200" data-name="Path 1329200" d="M13.018,82.929a.518.518,0,0,1-.518-.518V53.94a.518.518,0,0,1,1.036,0V82.411A.518.518,0,0,1,13.018,82.929Zm0-30.544a.518.518,0,0,1-.518-.518v-.622a.518.518,0,0,1,1.036,0v.622A.518.518,0,0,1,13.018,52.385Z" transform="translate(-10.427 -40.661)" fill="#fff"/>
        <path id="Path_1329201" data-name="Path 1329201" d="M5.091,46.508h9.021v5.235A2.594,2.594,0,0,0,16.7,54.334h.825a.518.518,0,1,0,0-1.036H16.7a1.556,1.556,0,0,1-1.55-1.554V16.573A1.556,1.556,0,0,1,16.7,15.019h4.245v2.073A1.556,1.556,0,0,0,22.5,18.646v1.117H19.26a1.556,1.556,0,0,0-1.555,1.555V48.594a1.556,1.556,0,0,0,1.555,1.555H37.773a1.556,1.556,0,0,0,1.555-1.555V21.318a1.556,1.556,0,0,0-1.555-1.555H34.526V18.646a1.556,1.556,0,0,0,1.555-1.555V15.019H40.33a1.556,1.556,0,0,1,1.555,1.555v35.17a1.556,1.556,0,0,1-1.55,1.554H21.674a.518.518,0,0,0,0,1.036H40.33a2.594,2.594,0,0,0,2.591-2.591V46.507h9.017a2.55,2.55,0,0,0,2.591-2.5h0V18.97a.518.518,0,1,0-1.036,0V44.008a1.513,1.513,0,0,1-1.555,1.463H42.921v-28.9a2.594,2.594,0,0,0-2.591-2.591H16.7a2.594,2.594,0,0,0-2.591,2.591v28.9H5.091a1.513,1.513,0,0,1-1.555-1.463V11.2H53.493v3.628a.518.518,0,1,0,1.036,0V4.758a2.594,2.594,0,0,0-2.591-2.591H5.091A2.594,2.594,0,0,0,2.5,4.758v39.25a2.55,2.55,0,0,0,2.591,2.5ZM37.773,20.8a.519.519,0,0,1,.518.518V48.594a.519.519,0,0,1-.518.518H19.26a.519.519,0,0,1-.518-.518V21.318a.519.519,0,0,1,.518-.518H22.5v1.267a1.556,1.556,0,0,0,1.555,1.555h8.913a1.556,1.556,0,0,0,1.555-1.555V20.8Zm-14.234,0h9.95v1.267a.519.519,0,0,1-.518.518H24.058a.519.519,0,0,1-.518-.518Zm9.95-1.036H23.54V18.646h9.95Zm1.555-2.672a.519.519,0,0,1-.518.518H22.5a.519.519,0,0,1-.518-.518V15.019H35.044ZM5.091,3.2H51.938a1.556,1.556,0,0,1,1.555,1.555v5.4H3.536v-5.4A1.556,1.556,0,0,1,5.091,3.2Z" transform="translate(-2.5 -2.167)"/>
        <circle id="Ellipse_12648" data-name="Ellipse 12648" cx="0.518" cy="0.518" r="0.518" transform="translate(50.992 14.212)"/>
        <path id="Path_1329202" data-name="Path 1329202" d="M19.608,18.819A1.816,1.816,0,1,0,17.792,17,1.818,1.818,0,0,0,19.608,18.819Zm0-2.6a.78.78,0,1,1-.78.78A.78.78,0,0,1,19.608,16.224Z" transform="translate(-14.622 -12.488)"/>
        <path id="Path_1329203" data-name="Path 1329203" d="M47.951,18.819A1.816,1.816,0,1,0,46.135,17a1.818,1.818,0,0,0,1.816,1.816Zm0-2.6a.78.78,0,1,1-.78.78A.78.78,0,0,1,47.951,16.224Z" transform="translate(-37.09 -12.488)"/>
        <path id="Path_1329204" data-name="Path 1329204" d="M76.294,18.819A1.816,1.816,0,1,0,74.478,17,1.818,1.818,0,0,0,76.294,18.819Zm0-2.6a.78.78,0,1,1-.78.78A.78.78,0,0,1,76.294,16.224Z" transform="translate(-59.558 -12.488)"/>
        <path id="Path_1329205" data-name="Path 1329205" d="M189.018,22.484h9.121a.518.518,0,1,0,0-1.036h-9.121a.518.518,0,1,0,0,1.036Z" transform="translate(-149.945 -17.451)"/>
        <circle id="Ellipse_12649" data-name="Ellipse 12649" cx="0.518" cy="0.518" r="0.518" transform="translate(16.583 51.13)"/>
        <path id="Path_1329206" data-name="Path 1329206" d="M219.668,152.47a1.579,1.579,0,0,0-1.577-1.577h-2.117a1.577,1.577,0,1,0,0,3.154h2.117A1.579,1.579,0,0,0,219.668,152.47Zm-4.235,0a.541.541,0,0,1,.54-.54h2.117a.54.54,0,1,1,0,1.081h-2.117A.541.541,0,0,1,215.433,152.47Z" transform="translate(-170.474 -120.064)"/>
        <path id="Path_1329207" data-name="Path 1329207" d="M211.362,178.506a1.578,1.578,0,0,0,0-2.23l-1.5-1.5a1.577,1.577,0,0,0-2.23,2.23l1.5,1.5A1.576,1.576,0,0,0,211.362,178.506Zm-2.994-2.23a.54.54,0,0,1,.764-.764l1.5,1.5a.541.541,0,0,1,0,.764.554.554,0,0,1-.764,0Z" transform="translate(-164.747 -138.633)"/>
        <path id="Path_1329208" data-name="Path 1329208" d="M209.865,124.438l1.5-1.5a1.577,1.577,0,1,0-2.23-2.23l-1.5,1.5a1.577,1.577,0,1,0,2.23,2.23Zm-1.5-1.5,1.5-1.5a.54.54,0,1,1,.764.764l-1.5,1.5a.54.54,0,1,1-.764-.764Z" transform="translate(-164.747 -95.772)"/>
        <path id="Path_1329209" data-name="Path 1329209" d="M21.446,153.637a1.579,1.579,0,0,0-1.577-1.577H17.752a1.577,1.577,0,1,0,0,3.154h2.117A1.579,1.579,0,0,0,21.446,153.637Zm-4.235,0a.541.541,0,0,1,.54-.54h2.117a.54.54,0,1,1,0,1.081H17.752A.541.541,0,0,1,17.211,153.637Z" transform="translate(-13.34 -120.989)"/>
        <path id="Path_1329210" data-name="Path 1329210" d="M30.576,123.374l-1.5-1.5a1.577,1.577,0,1,0-2.23,2.23l1.5,1.5a1.577,1.577,0,1,0,2.23-2.23Zm-.733,1.5a.541.541,0,0,1-.764,0l-1.5-1.5a.54.54,0,1,1,.764-.764l1.5,1.5A.541.541,0,0,1,29.844,124.871Z" transform="translate(-21.436 -96.696)"/>
        <path id="Path_1329211" data-name="Path 1329211" d="M29.08,179.673l1.5-1.5a1.577,1.577,0,1,0-2.23-2.23l-1.5,1.5a1.577,1.577,0,0,0,2.23,2.23Zm-1.5-1.5,1.5-1.5a.54.54,0,1,1,.764.764l-1.5,1.5a.553.553,0,0,1-.764,0A.54.54,0,0,1,27.583,178.176Z" transform="translate(-21.436 -139.559)"/>
        <path id="Path_1329212" data-name="Path 1329212" d="M106.547,121.828l-5.1,5.1L99.6,125.081a1.923,1.923,0,0,0-2.72,2.72l3.209,3.209a1.925,1.925,0,0,0,2.718,0l0,0,.6-.6a.518.518,0,0,0,0-.732.53.53,0,0,0-.734,0l-.6.6h0a.888.888,0,0,1-1.254,0l-3.209-3.209a.887.887,0,1,1,1.254-1.254l2.216,2.216a.518.518,0,0,0,.733,0l5.469-5.468a.887.887,0,1,1,1.254,1.254v0l-2.931,2.931a.518.518,0,1,0,.734.732l2.931-2.931,0,0a1.923,1.923,0,0,0-2.722-2.717Z" transform="translate(-76.868 -96.578)"/>
        <path id="Path_1329213" data-name="Path 1329213" d="M120.813,185.445h-8.877a.518.518,0,1,0,0,1.036h8.877a.518.518,0,1,0,0-1.036Z" transform="translate(-88.841 -147.454)"/>
        <path id="Path_1329214" data-name="Path 1329214" d="M97.484,185.445H96.4a.518.518,0,1,0,0,1.036h1.085a.518.518,0,0,0,0-1.036Z" transform="translate(-76.524 -147.454)"/>
        <path id="Path_1329215" data-name="Path 1329215" d="M120.813,200.739h-8.877a.518.518,0,1,0,0,1.036h8.877a.518.518,0,1,0,0-1.036Z" transform="translate(-88.841 -159.578)"/>
        <path id="Path_1329216" data-name="Path 1329216" d="M97.484,200.739H96.4a.518.518,0,1,0,0,1.036h1.085a.518.518,0,1,0,0-1.036Z" transform="translate(-76.524 -159.578)"/>
        <path id="Path_1329217" data-name="Path 1329217" d="M134.207,154.947a.518.518,0,0,0,0-.732.53.53,0,0,0-.734,0,.518.518,0,0,0,.734.732Z" transform="translate(-106.205 -122.581)"/>
      </g>
    </g>
  </g>
</svg>
